<svg width="350" height="331" viewBox="0 0 350 331" fill="none" xmlns="http://www.w3.org/2000/svg">
        <rect y="1" width="350" height="330" fill="white"/>
        <path class="primary-80" d="M95.6317 5.9122L301.74 51.0615L243.109 318.718L37 273.568L95.6317 5.9122Z" fill="var(--primary-80)"/>
        <path d="M79.4336 14.6306L289.172 37.629L259.306 309.999L49.5671 287.001L79.4336 14.6306Z" fill="#EEEEEE"/>
        <path d="M63.873 11.6918H274.869V285.694H63.873V11.6918Z" fill="#F8F8F8"/>
        <path d="M214.494 162.315H72.7261V20.5464H214.494V162.315Z" fill="white"/>
        <path d="M268.379 45.1748H220.985V38.7268H268.379V45.1748Z" fill="#EBE6E2"/>
        <path d="M254.784 56.5592H220.985V50.1112H254.784V56.5592Z" fill="#EBE6E2"/>
        <path class="primary-30" d="M224.487 69.3519H220.985V65.85H224.487V69.3519Z" fill="var(--primary-30)"/>
        <path class="primary-30" d="M230.757 69.3519H227.255V65.85H230.757V69.3519Z" fill="var(--primary-30)"/>
        <path class="primary-30" d="M237.028 69.3519H233.526V65.85H237.028V69.3519Z" fill="var(--primary-30)"/>
        <path class="primary-30" d="M243.297 69.3519H239.795V65.85H243.297V69.3519Z" fill="var(--primary-30)"/>
        <path class="primary-30" d="M249.567 69.3519H246.065V65.85H249.567V69.3519Z" fill="var(--primary-30)"/>
        <path class="primary-30" d="M255.838 69.3519H252.336V65.85H255.838V69.3519Z" fill="var(--primary-30)"/>
        <path class="primary-30" d="M262.107 69.3519H258.605V65.85H262.107V69.3519Z" fill="var(--primary-30)"/>
        <path class="primary-30" d="M268.379 69.3519H264.877V65.85H268.379V69.3519Z" fill="var(--primary-30)"/>
        <path d="M79.3572 179.587C79.3572 175.925 82.3252 172.957 85.9868 172.957C89.6481 172.957 92.6162 175.925 92.6162 179.587C92.6162 183.248 89.6481 186.216 85.9868 186.216C82.3252 186.216 79.3572 183.248 79.3572 179.587Z" fill="#EBE6E2"/>
        <path d="M79.3572 208.673C79.3572 205.011 82.3252 202.043 85.9868 202.043C89.6481 202.043 92.6162 205.011 92.6162 208.673C92.6162 212.334 89.6481 215.302 85.9868 215.302C82.3252 215.302 79.3572 212.334 79.3572 208.673Z" fill="#EBE6E2"/>
        <path d="M79.3572 237.761C79.3572 234.1 82.3252 231.132 85.9868 231.132C89.6481 231.132 92.6162 234.1 92.6162 237.761C92.6162 241.423 89.6481 244.391 85.9868 244.391C82.3252 244.391 79.3572 241.423 79.3572 237.761Z" fill="#EBE6E2"/>
        <path d="M79.3572 266.847C79.3572 263.186 82.3252 260.217 85.9868 260.217C89.6481 260.217 92.6162 263.186 92.6162 266.847C92.6162 270.508 89.6481 273.477 85.9868 273.477C82.3252 273.477 79.3572 270.508 79.3572 266.847Z" fill="#EBE6E2"/>
        <path d="M105.219 177.354H166.831V181.82H105.219V177.354Z" fill="#EBE6E2"/>
        <path d="M105.219 206.44H157.009V210.906H105.219V206.44Z" fill="#EBE6E2"/>
        <path d="M105.219 235.526H166.831V239.992H105.219V235.526Z" fill="#EBE6E2"/>
        <path d="M105.219 264.614H146.458V269.08H105.219V264.614Z" fill="#EBE6E2"/>
        <path d="M268.379 88.0182H220.986V85.786H268.379V88.0182Z" fill="#EBE6E2"/>
        <path d="M268.379 93.6646H220.986V91.4323H268.379V93.6646Z" fill="#EBE6E2"/>
        <path d="M268.379 99.3109H220.986V97.0787H268.379V99.3109Z" fill="#EBE6E2"/>
        <path d="M268.379 104.957H220.986V102.725H268.379V104.957Z" fill="#EBE6E2"/>
        <path d="M268.379 110.604H220.986V108.371H268.379V110.604Z" fill="#EBE6E2"/>
        <path d="M268.379 116.25H220.986V114.018H268.379V116.25Z" fill="#EBE6E2"/>
        <path d="M268.379 121.896H220.986V119.664H268.379V121.896Z" fill="#EBE6E2"/>
        <path d="M254.784 127.543H220.986V125.31H254.784V127.543Z" fill="#EBE6E2"/>
        <path d="M115.271 47.8678C112.628 47.8678 110.478 45.7176 110.478 43.0747V17.6266H112.487V43.0747C112.487 44.6099 113.736 45.8587 115.271 45.8587C116.806 45.8587 118.055 44.6099 118.055 43.0747V7.46819C118.055 5.00803 116.053 3.007 113.593 3.007C111.133 3.007 109.132 5.00803 109.132 7.46819V11.6878H107.123V7.46819C107.123 3.90009 110.025 0.997932 113.593 0.997932C117.161 0.997932 120.064 3.90009 120.064 7.46819V43.0747C120.064 45.7176 117.913 47.8678 115.271 47.8678Z" fill="#858585"/>
        <path d="M129.802 115.036V96.0604L157.479 96.0598V115.034L162.865 120.832L143.656 129.967L126.037 120.833L129.802 115.036Z" fill="#F8D8D0"/>
        <path d="M129.807 112.385C133.779 115.1 138.528 116.694 143.647 116.695C148.765 116.696 153.51 115.102 157.484 112.386V96.0558L129.807 96.0563V112.385Z" fill="#E8C2B8"/>
        <path d="M168.836 78.2745C168.838 63.873 157.559 52.2001 143.648 52.1982C129.734 52.1995 118.455 63.8741 118.455 78.2737L118.554 86.3263C119.554 99.7801 130.394 110.374 143.646 110.377C156.899 110.375 167.736 99.7801 168.736 86.3255L168.753 86.326V86.0016C168.793 85.4354 168.838 78.848 168.836 78.2745Z" fill="#F8D8D0"/>
        <path d="M118.454 78.2737C121.122 80.9412 119.727 67.9353 126.318 67.9345C132.908 67.935 133.947 70.232 140.4 70.2312C146.849 70.2312 147.263 66.0682 152.88 66.0682C158.497 66.0695 160.31 74.5957 167.341 69.4075C174.105 64.4173 158.923 45.3084 147.813 49.42C143.456 51.0321 139.562 46.4043 135.321 48.7359C130.135 51.5866 127.33 56.0255 122.552 57.1412C113.98 59.1439 115.416 75.2359 118.454 78.2737Z" fill="#424242"/>
        <path class="secondary-30" d="M157.485 115.028C157.487 122.926 151.472 126.082 143.648 126.083C135.822 126.082 129.809 122.063 129.808 115.03C121.503 115.028 89.5984 127.088 89.5984 158.96C99.7929 158.962 143.648 158.96 143.648 158.96C143.648 158.96 188.339 158.961 198.534 158.962C198.534 126.227 165.789 115.03 157.485 115.028Z" fill="var(--secondary-30)"/>
        <path class="secondary-20" d="M110.479 158.962C110.479 158.962 109.021 145.585 107.571 147.259C106.12 148.933 105.785 158.962 105.785 158.962H110.479Z" fill="var(--secondary-20)"/>
        <path class="secondary-20" d="M176.812 158.962C176.812 158.962 178.269 145.585 179.72 147.259C181.171 148.933 181.506 158.962 181.506 158.962H176.812Z" fill="var(--secondary-20)"/>
        <circle cx="99" cy="165.001" r="50" fill="black" fill-opacity="0.2"/>
        <path d="M137.315 209.562L131.962 204.205L138.21 197.958L143.564 203.314L137.315 209.562Z" fill="#424242"/>
        <path d="M186.271 240.294L146.427 200.451L140.441 206.439L186.271 252.269C189.577 248.963 189.578 243.601 186.271 240.294Z" fill="#424242"/>
        <path d="M134.455 212.423L174.297 252.268C177.604 255.575 182.965 255.574 186.272 252.268L140.442 206.437L134.455 212.423Z" fill="#858585"/>
        <path d="M133.101 198.721C114.736 217.296 84.792 217.465 66.2162 199.1C47.6426 180.736 47.4716 150.791 65.8352 132.215C84.2005 113.642 114.147 113.471 132.721 131.834C151.296 150.2 151.466 180.146 133.101 198.721ZM99.4705 113.518C70.7792 113.52 47.5197 136.779 47.5192 165.469C47.5185 194.159 70.7775 217.418 99.4678 217.418C128.159 217.418 151.418 194.159 151.419 165.468C151.419 136.777 128.159 113.518 99.4705 113.518Z" fill="#424242"/>
        <path d="M94.6094 118.423C105.15 119.382 115.432 123.866 123.544 131.889C142.118 150.253 142.29 180.198 123.925 198.773C115.904 206.887 105.672 211.487 95.1443 212.568C108.736 213.805 122.753 209.184 133.097 198.722C151.462 180.146 151.292 150.201 132.717 131.835C122.256 121.492 108.186 117.028 94.6094 118.423Z" fill="#E9EDF7"/>
        </svg>
