<svg viewBox="0 0 350 330" width="100%" height="100%" fill="none" xmlns="http://www.w3.org/2000/svg">
        <rect width="350" height="330" fill="white"/>
        <path d="M57 316.167C57 312.332 82.4121 309.225 113.758 309.225C145.106 309.225 170.517 312.332 170.517 316.167C170.517 320.002 145.106 323.109 113.758 323.109C82.4121 323.109 57 320.002 57 316.167Z" fill="#EEEEEE"/>
        <path d="M121.733 64.8853V52.3851L139.965 52.3848V64.8843L143.513 68.704L130.859 74.7215L119.252 68.7045L121.733 64.8853Z" fill="#F8D8D0"/>
        <path d="M121.731 61.7223C124.347 63.5107 127.476 64.5609 130.848 64.5613C134.22 64.5616 137.345 63.5117 139.963 61.723V52.3843L121.731 52.3846V61.7223Z" fill="#E8C2B8"/>
        <path d="M147.444 40.6727C147.445 31.1854 140.015 23.4956 130.851 23.4944C121.685 23.4953 114.254 31.1861 114.254 40.6722L114.32 45.9769C114.979 54.8397 122.119 61.8185 130.85 61.8207C139.58 61.8192 146.719 54.8397 147.378 45.9764L147.389 45.9765V45.7631C147.416 45.39 147.445 41.0504 147.444 40.6727Z" fill="#F8D8D0"/>
        <path d="M114.254 40.672C116.011 42.4293 115.092 33.8616 119.434 33.8611C123.776 33.8612 124.46 35.3745 128.711 35.3738C132.959 35.3738 133.232 32.6316 136.933 32.6316C140.633 32.6323 141.827 38.249 146.459 34.8314C150.915 31.5441 140.914 18.9557 133.594 21.6642C130.724 22.7263 128.159 19.6775 125.365 21.2137C121.949 23.0916 120.101 26.0156 116.953 26.7508C111.306 28.07 112.252 38.6708 114.254 40.672Z" fill="#424242"/>
        <path class="secondary-30" d="M139.964 64.8839C139.966 70.0865 136.003 72.1654 130.849 72.1665C125.694 72.1654 121.732 69.5183 121.732 64.8849C116.26 64.8839 92.9334 72.8287 98.0062 93.8248C104.722 93.826 130.849 93.8248 130.849 93.8248C130.849 93.8248 156.975 93.8255 163.692 93.826C167.635 72.261 145.435 64.8849 139.964 64.8839Z" fill="var(--secondary-30)"/>
        <path class="secondary-20" d="M182.843 43.7516H177.661V38.5699H182.843V43.7516Z" fill="var(--secondary-20)"/>
        <path class="secondary-40" d="M177.18 54.0303L181.008 47.3993L184.836 54.0303H177.18Z" fill="var(--secondary-40)"/>
        <path class="secondary-40" d="M177.18 30.2724C177.18 28.5747 178.557 27.1987 180.254 27.1987C181.952 27.1987 183.329 28.5747 183.329 30.2724C183.329 31.9701 181.952 33.3461 180.254 33.3461C178.557 33.3461 177.18 31.9701 177.18 30.2724Z" fill="var(--secondary-40)"/>
        <path class="secondary-30" d="M215.862 42.8323C214.847 42.8323 213.895 42.4376 213.179 41.7209C212.316 40.859 210.911 40.8588 210.048 41.7213C208.567 43.2003 206.159 43.2003 204.68 41.7213C204.262 41.3039 203.706 41.0738 203.115 41.0738C202.523 41.0738 201.967 41.3036 201.55 41.7213C200.833 42.4378 199.88 42.8323 198.867 42.8323C197.853 42.8323 196.9 42.4378 196.184 41.7213C195.32 40.8593 193.916 40.8588 193.053 41.7213C191.573 43.2003 189.165 43.2009 187.686 41.7213C187.377 41.4127 187.377 40.9122 187.686 40.6036C187.994 40.2948 188.495 40.2948 188.804 40.6036C189.667 41.4661 191.072 41.4662 191.936 40.6032C193.413 39.1252 195.82 39.1251 197.301 40.6031C197.72 41.0213 198.275 41.2514 198.867 41.2514C199.458 41.2514 200.014 41.0213 200.432 40.6036C201.147 39.8874 202.1 39.4929 203.115 39.4929C204.129 39.4929 205.081 39.8871 205.798 40.6036C206.661 41.4666 208.066 41.4666 208.93 40.6031C210.408 39.1254 212.816 39.1251 214.297 40.6031C214.715 41.0217 215.27 41.2514 215.862 41.2514C216.453 41.2514 217.009 41.0213 217.427 40.6036C218.143 39.8874 219.095 39.4929 220.109 39.4929C221.123 39.4929 222.076 39.8874 222.792 40.6036C223.1 40.9122 223.1 41.4127 222.792 41.7213C222.483 42.0301 221.982 42.0301 221.674 41.7213C221.256 41.3036 220.701 41.0738 220.109 41.0738C219.518 41.0738 218.962 41.3036 218.545 41.7213C217.828 42.4378 216.875 42.8323 215.862 42.8323Z" fill="var(--secondary-30)"/>
        <path class="secondary-30" d="M215.862 53.7214C214.847 53.7214 213.895 53.3267 213.179 52.61C212.316 51.748 210.911 51.7479 210.048 52.6103C208.567 54.0894 206.159 54.0894 204.68 52.6103C204.262 52.193 203.706 51.9629 203.115 51.9629C202.523 51.9629 201.967 52.1926 201.55 52.6103C200.833 53.3268 199.88 53.7214 198.867 53.7214C197.853 53.7214 196.9 53.3268 196.184 52.6103C195.32 51.7484 193.916 51.7479 193.053 52.6103C191.573 54.0896 189.165 54.0896 187.686 52.6103C187.377 52.3017 187.377 51.8013 187.686 51.4926C187.994 51.1838 188.495 51.1838 188.804 51.4926C189.667 52.3551 191.072 52.3553 191.936 51.4923C193.413 50.0143 195.82 50.0141 197.301 51.4921C197.72 51.9103 198.275 52.1405 198.867 52.1405C199.458 52.1405 200.014 51.9103 200.432 51.4926C201.147 50.7765 202.1 50.3819 203.115 50.3819C204.129 50.3819 205.081 50.7761 205.798 51.4926C206.661 52.3556 208.066 52.3556 208.93 51.4921C210.408 50.0148 212.816 50.0138 214.297 51.4921C214.715 51.9107 215.27 52.1405 215.862 52.1405C216.453 52.1405 217.009 51.9103 217.427 51.4926C218.143 50.7765 219.095 50.3819 220.109 50.3819C221.123 50.3819 222.076 50.7765 222.792 51.4926C223.1 51.8013 223.1 52.3017 222.792 52.6103C222.483 52.9191 221.982 52.9191 221.674 52.6103C221.256 52.1926 220.701 51.9629 220.109 51.9629C219.518 51.9629 218.962 52.1926 218.545 52.6103C217.828 53.3268 216.875 53.7214 215.862 53.7214Z" fill="var(--secondary-30)"/>
        <path class="secondary-30" d="M210.464 31.0601H188.245C187.808 31.0601 187.454 30.7063 187.454 30.2696C187.454 29.8329 187.808 29.4791 188.245 29.4791H210.464C210.901 29.4791 211.254 29.8329 211.254 30.2696C211.254 30.7063 210.901 31.0601 210.464 31.0601Z" fill="var(--secondary-30)"/>
        <path d="M129.43 83.6994L129.431 80.9291H132.663L132.662 83.6994H129.43Z" fill="#424242"/>
        <path d="M134.143 104.319V83.7079L131.046 83.7081V107.416C132.756 107.416 134.143 106.029 134.143 104.319Z" fill="#858585"/>
        <path d="M127.952 83.7079L127.952 104.319C127.952 106.029 129.339 107.416 131.049 107.416V83.7081L127.952 83.7079Z" fill="#424242"/>
        <path d="M131.245 79.2892C111.763 79.3995 95.8817 63.6964 95.7702 44.2139C95.66 24.7327 111.363 8.84935 130.844 8.73763C150.326 8.62802 166.21 24.3317 166.321 43.8126C166.432 63.295 150.728 79.178 131.245 79.2892ZM157.567 17.4935C142.919 2.84746 119.171 2.84746 104.524 17.4935C89.8781 32.1394 89.8781 55.887 104.524 70.5333C119.171 85.1806 142.919 85.1806 157.566 70.5339C172.213 55.8875 172.213 32.1394 157.567 17.4935Z" fill="#424242"/>
        <path d="M153.303 16.6333C158.357 22.6979 161.414 30.4859 161.461 38.995C161.572 58.4766 145.87 74.3603 126.387 74.4709C117.878 74.5198 110.056 71.5499 103.933 66.5675C110.449 74.3886 120.279 79.3441 131.252 79.2815C150.734 79.1705 166.439 63.2873 166.328 43.805C166.265 32.8327 161.199 23.0579 153.303 16.6333Z" fill="#E9EDF7"/>
        <path d="M126.222 307.722C125.513 303.464 114.065 261.072 115.644 244.007H129.598C130.834 272.981 130.573 284.91 131.123 307.591C131.085 309.169 126.91 310.065 126.222 307.722Z" fill="#F7D3C9"/>
        <path d="M128.897 314.572C128.162 314.572 127.249 315.386 127.133 316.25H125.794C125.794 316.25 124.481 314.029 125.173 311.176C125.61 309.377 126.072 309.809 126.539 310.277C127.604 311.141 131.949 311.427 132.29 309.967C133.411 310.136 144.958 313.457 144.958 314.525C144.958 316.255 143.601 316.25 142.677 316.25C131.755 316.25 133.202 315.579 128.897 314.572Z" fill="#362E93"/>
        <path d="M131.108 308.136C130.733 306.49 125.973 305.255 126.22 308.136C126.277 308.798 126.196 309.439 125.97 309.97H125.973C126.93 311.341 136.982 313.91 138.622 311.776C137.477 311.162 131.108 309.881 131.108 308.136Z" fill="#F7D3C9"/>
        <path d="M92.0431 307.721C91.8093 303.41 88.3339 260.792 91.7908 244.006L105.572 245.119C102.518 274.026 100.064 286.208 96.9281 308.133C96.7157 309.697 92.4669 310.125 92.0431 307.721Z" fill="#F7D3C9"/>
        <path d="M94.7164 314.572C93.9813 314.572 93.0687 315.386 92.9524 316.25H91.6137C91.6137 316.25 90.3003 314.029 90.993 311.176C91.4291 309.377 91.8913 309.809 92.3585 310.277C93.4237 311.141 97.7685 311.427 98.1096 309.967C99.2308 310.136 110.777 313.457 110.777 314.525C110.777 316.255 109.421 316.25 108.496 316.25C97.5742 316.25 99.0216 315.579 94.7164 314.572Z" fill="#362E93"/>
        <path d="M96.9281 308.136C96.5538 306.49 91.7938 305.255 92.041 308.136C92.0972 308.798 92.0164 309.439 91.791 309.97H91.7938C92.7506 311.341 102.803 313.91 104.442 311.776C103.298 311.162 96.9281 309.881 96.9281 308.136Z" fill="#F7D3C9"/>
        <path d="M88.4601 130.094C86.4932 136.318 78.6791 171.571 79.6968 173.679C83.2495 180.934 96.9291 197.783 96.9291 197.783C96.9291 197.783 99.0312 206.921 102.927 208.064C106.822 209.207 107.599 207.981 107.988 207.436C108.911 206.141 103.331 200.067 104.6 198.861C105.693 198.271 106.684 197.774 107.112 197.56C104.388 196.939 104.561 195.285 102.604 194.369C99.301 192.823 89.4901 176.532 88.3814 173.032C89.8098 165.001 95.6429 149.623 98.1316 143.45C100.62 137.277 88.4601 130.094 88.4601 130.094Z" fill="#F7D3C9"/>
        <path d="M122.024 120.481C129.062 118.065 142.822 114.225 143.358 112.585C143.878 110.995 133.103 100.771 130.239 98.7504C128.022 97.1869 133.539 92.6837 135.114 94.0586C139.874 98.2157 154.63 109.328 153.994 112.636C152.323 121.34 129.272 130.781 125.501 133.377C122.041 135.758 121.995 134.629 119.869 130.679C117.742 126.728 118.715 121.617 122.024 120.481Z" fill="#F7D3C9"/>
        <path class="primary-30" d="M121.709 175.156C121.63 168.344 129.662 122.784 122.026 120.484C114.338 118.17 94.7602 117.634 90.0225 126.037C85.2845 134.44 90.0635 142.443 91.1741 149.901C92.2855 157.359 96.0778 167.972 95.5213 175.669C98.6846 175.633 121.709 175.156 121.709 175.156Z" fill="var(--primary-30)"/>
        <path class="primary-30" d="M121.709 175.155C125.589 181.873 147.989 205.448 147.501 250.333C121.566 259.703 97.0425 259.692 75.4873 244.943C74.8613 230.208 78.7758 195.318 95.521 175.669C101.952 175.554 121.709 175.155 121.709 175.155Z" fill="var(--primary-30)"/>
        <path class="primary-20" d="M129.691 255.267C135.539 254.17 141.482 252.507 147.502 250.333C147.991 205.447 125.591 181.872 121.71 175.155C121.657 170.545 125.316 148.195 125.323 133.511C122.217 159.403 115.531 167.58 115.649 175.412C115.812 186.121 133.884 205.699 134.018 234.211C134.063 243.996 131.297 253.266 129.691 255.267Z" fill="var(--primary-20)"/>
        <path d="M105.423 89.6774C98.2472 89.7598 89.4056 97.9175 92.3672 113.557C95.3283 129.197 89.7601 143.854 79.7704 144.227C86.2365 155.025 93.3482 161.743 104.374 157.473C111.012 154.902 117.168 146.362 118.777 133.324C120.031 123.164 120.251 116.172 119.594 105.044C118.867 92.747 111.575 89.6075 105.423 89.6774Z" fill="#424242"/>
        <path d="M130.242 98.7502C128.378 97.9142 126.677 95.9135 126.918 92.6151C127.135 89.6477 126.304 87.7359 127.955 88.146C129.961 88.644 133.696 86.9978 134.213 86.4801C136.457 86.4801 136.004 92.2069 135.117 94.0584C134.368 95.6187 130.242 98.7502 130.242 98.7502Z" fill="#F7D3C9"/>
        <path d="M321.004 318.046C321.065 313.69 290.66 309.728 253.095 309.196C215.528 308.665 185.024 311.765 184.962 316.121C184.901 320.478 215.304 324.44 252.872 324.971C290.437 325.503 320.942 322.402 321.004 318.046Z" fill="#EEEEEE"/>
        <path class="primary-30" d="M184.961 307.037V316.121C184.961 319.543 208.583 322.316 237.722 322.316C266.861 322.316 290.482 319.543 290.482 316.121V307.037H184.961Z" fill="var(--primary-30)"/>
        <path class="primary-20" d="M184.961 307.041C184.961 303.619 208.583 300.845 237.722 300.845C266.861 300.845 290.482 303.619 290.482 307.041C290.482 310.462 266.861 313.236 237.722 313.236C208.583 313.236 184.961 310.462 184.961 307.041Z" fill="var(--primary-20)"/>
        <path class="primary-30" d="M184.961 127.416V118.332C184.961 114.91 208.583 112.136 237.722 112.136C266.861 112.136 290.482 114.91 290.482 118.332V127.416H184.961Z" fill="var(--primary-30)"/>
        <path class="primary-20" d="M184.961 127.415C184.961 130.836 208.583 133.61 237.722 133.61C266.861 133.61 290.482 130.836 290.482 127.415C290.482 123.993 266.861 121.219 237.722 121.219C208.583 121.219 184.961 123.993 184.961 127.415Z" fill="var(--primary-20)"/>
        <path d="M245.436 223.967C243.757 223.365 242.646 221.768 242.646 219.984V217.225V214.465C242.646 212.682 243.757 211.084 245.436 210.482C260.936 204.931 286.904 183.931 286.904 127.413C286.904 124.594 264.885 122.309 237.722 122.309C210.56 122.309 188.54 124.594 188.54 127.413C188.54 183.931 214.508 204.931 230.008 210.482C231.687 211.084 232.798 212.682 232.798 214.465V217.225V219.984C232.798 221.768 231.687 223.365 230.008 223.967C214.508 229.519 188.54 250.519 188.54 307.037C188.54 309.855 210.56 312.14 237.722 312.14C264.885 312.14 286.904 309.855 286.904 307.037C286.904 250.519 260.936 229.519 245.436 223.967Z" fill="#DDE2F8"/>
        <path class="primary-40" d="M237.722 122.311C210.56 122.311 188.54 124.596 188.54 127.415C188.54 128.173 188.547 128.921 188.556 129.666C196.229 131.975 215.348 133.61 237.722 133.61C260.096 133.61 279.216 131.975 286.888 129.666C286.897 128.921 286.904 128.173 286.904 127.415C286.904 124.596 264.885 122.311 237.722 122.311Z" fill="var(--primary-40)"/>
        <path class="primary-40" d="M237.722 312.15C210.56 312.15 188.54 309.865 188.54 307.047C188.54 306.289 188.547 305.54 188.556 304.795C196.229 302.487 215.348 300.851 237.722 300.851C260.096 300.851 279.216 302.487 286.888 304.795C286.897 305.54 286.904 306.289 286.904 307.047C286.904 309.865 264.885 312.15 237.722 312.15Z" fill="var(--primary-40)"/>
        <path d="M244.64 268.415C242.038 267.484 239.113 265.503 239.113 262.728V214.465C239.113 211.69 242.038 209.198 244.64 208.266C248.886 206.745 256.121 203.211 263.357 195.378C263.768 194.933 263.569 194.215 262.986 194.05C247.458 189.677 221.351 192.246 212.556 194.108C211.946 194.237 211.719 194.987 212.143 195.444C219.359 203.231 226.564 206.75 230.799 208.266C233.4 209.198 236.325 211.69 236.325 214.465V262.728C236.325 265.503 233.4 267.484 230.799 268.415C225.234 270.408 191.012 282.04 190.893 306.126C194.497 307.741 207.115 311.115 237.719 311.115C271.154 311.115 280.941 307.741 284.546 306.126C284.426 282.04 250.204 270.408 244.64 268.415Z" fill="#ED9F00"/>
        <path d="M244.644 268.414C242.042 267.483 239.117 265.502 239.117 262.726V214.464C239.117 211.689 242.042 209.197 244.644 208.265C248.891 206.744 256.125 203.209 263.361 195.377C263.772 194.932 263.573 194.213 262.99 194.049C258.683 192.836 251.448 191.804 244.682 191.698C241.657 196.262 237.723 202.812 237.723 213.255V266.257C237.723 273.611 250.075 286.849 252.187 310.869C272.702 310.261 281.804 307.504 284.55 306.125C284.43 282.038 250.208 270.407 244.644 268.414Z" fill="#E19100"/>
        <path d="M239.002 198.881C239.002 198.316 239.46 197.858 240.026 197.858C240.591 197.858 241.049 198.316 241.049 198.881C241.049 199.446 240.591 199.904 240.026 199.904C239.46 199.904 239.002 199.446 239.002 198.881Z" fill="#E19100"/>
        <path d="M242.573 285.585C242.573 284.557 243.406 283.725 244.433 283.725C245.46 283.725 246.293 284.557 246.293 285.585C246.293 286.612 245.46 287.445 244.433 287.445C243.406 287.445 242.573 286.612 242.573 285.585Z" fill="#E19100"/>
        <path d="M237.736 196.718C237.736 196.507 237.907 196.335 238.118 196.335C238.33 196.335 238.501 196.507 238.501 196.718C238.501 196.929 238.33 197.101 238.118 197.101C237.907 197.101 237.736 196.929 237.736 196.718Z" fill="#E19100"/>
        <path d="M239.615 200.137C239.615 199.925 239.787 199.754 239.998 199.754C240.21 199.754 240.381 199.925 240.381 200.137C240.381 200.348 240.21 200.519 239.998 200.519C239.787 200.519 239.615 200.348 239.615 200.137Z" fill="#E19100"/>
        <path d="M237.468 205.27C237.468 204.91 237.76 204.617 238.121 204.617C238.481 204.617 238.774 204.91 238.774 205.27C238.774 205.631 238.481 205.923 238.121 205.923C237.76 205.923 237.468 205.631 237.468 205.27Z" fill="#E19100"/>
        <path d="M243.785 290.358C243.785 289.998 244.077 289.705 244.438 289.705C244.799 289.705 245.091 289.998 245.091 290.358C245.091 290.719 244.799 291.012 244.438 291.012C244.077 291.012 243.785 290.719 243.785 290.358Z" fill="#E19100"/>
        <path d="M254.327 298.907C254.327 298.546 254.619 298.254 254.98 298.254C255.341 298.254 255.633 298.546 255.633 298.907C255.633 299.267 255.341 299.56 254.98 299.56C254.619 299.56 254.327 299.267 254.327 298.907Z" fill="#ED9F00"/>
        <path d="M248.85 297.604C248.85 297.243 249.142 296.95 249.503 296.95C249.864 296.95 250.156 297.243 250.156 297.604C250.156 297.964 249.864 298.257 249.503 298.257C249.142 298.257 248.85 297.964 248.85 297.604Z" fill="#E19100"/>
        <path d="M243.399 302.651C243.399 302.364 243.631 302.132 243.918 302.132C244.204 302.132 244.437 302.364 244.437 302.651C244.437 302.937 244.204 303.169 243.918 303.169C243.631 303.169 243.399 302.937 243.399 302.651Z" fill="#E19100"/>
        <path d="M258.728 295.7C258.728 295.413 258.96 295.181 259.247 295.181C259.533 295.181 259.765 295.413 259.765 295.7C259.765 295.986 259.533 296.219 259.247 296.219C258.96 296.219 258.728 295.986 258.728 295.7Z" fill="#ED9F00"/>
        <path d="M247.628 200.521C247.628 200.277 247.826 200.079 248.07 200.079C248.315 200.079 248.513 200.277 248.513 200.521C248.513 200.766 248.315 200.964 248.07 200.964C247.826 200.964 247.628 200.766 247.628 200.521Z" fill="#ED9F00"/>
        <path d="M237.784 208.142C237.784 207.898 237.982 207.699 238.227 207.699C238.472 207.699 238.67 207.898 238.67 208.142C238.67 208.387 238.472 208.585 238.227 208.585C237.982 208.585 237.784 208.387 237.784 208.142Z" fill="#ED9F00"/>
        <path d="M237.204 276.613C237.204 276.327 237.436 276.095 237.722 276.095C238.009 276.095 238.241 276.327 238.241 276.613C238.241 276.9 238.009 277.132 237.722 277.132C237.436 277.132 237.204 276.9 237.204 276.613Z" fill="#E19100"/>
        <path d="M229.236 271.748C229.236 271.461 229.468 271.229 229.755 271.229C230.041 271.229 230.273 271.461 230.273 271.748C230.273 272.034 230.041 272.266 229.755 272.266C229.468 272.266 229.236 272.034 229.236 271.748Z" fill="#E19100"/>
        <path d="M243.489 283.725C243.489 283.203 243.912 282.78 244.434 282.78C244.955 282.78 245.378 283.203 245.378 283.725C245.378 284.247 244.955 284.67 244.434 284.67C243.912 284.67 243.489 284.247 243.489 283.725Z" fill="#E19100"/>
        <path d="M247.914 292.864C247.914 292.342 248.337 291.919 248.859 291.919C249.381 291.919 249.804 292.342 249.804 292.864C249.804 293.386 249.381 293.809 248.859 293.809C248.337 293.809 247.914 293.386 247.914 292.864Z" fill="#ED9F00"/>
        <path d="M242.545 194.792C242.545 194.27 242.968 193.847 243.49 193.847C244.011 193.847 244.434 194.27 244.434 194.792C244.434 195.314 244.011 195.737 243.49 195.737C242.968 195.737 242.545 195.314 242.545 194.792Z" fill="#ED9F00"/>
        <path d="M244.205 200.97C244.205 200.576 244.525 200.256 244.92 200.256C245.314 200.256 245.634 200.576 245.634 200.97C245.634 201.365 245.314 201.685 244.92 201.685C244.525 201.685 244.205 201.365 244.205 200.97Z" fill="#ED9F00"/>
        <path d="M238.28 272.69C238.28 272.168 238.703 271.745 239.224 271.745C239.746 271.745 240.169 272.168 240.169 272.69C240.169 273.212 239.746 273.635 239.224 273.635C238.703 273.635 238.28 273.212 238.28 272.69Z" fill="#E19100"/>
        <path d="M248.85 305.347C248.85 304.532 249.511 303.871 250.326 303.871C251.141 303.871 251.802 304.532 251.802 305.347C251.802 306.162 251.141 306.823 250.326 306.823C249.511 306.823 248.85 306.162 248.85 305.347Z" fill="#E19100"/>
        <path d="M234.766 198.551C234.766 198.371 234.912 198.224 235.092 198.224C235.272 198.224 235.418 198.371 235.418 198.551C235.418 198.731 235.272 198.877 235.092 198.877C234.912 198.877 234.766 198.731 234.766 198.551Z" fill="#E19100"/>
        <path d="M238.572 288.483C238.572 288.302 238.718 288.156 238.898 288.156C239.078 288.156 239.224 288.302 239.224 288.483C239.224 288.663 239.078 288.809 238.898 288.809C238.718 288.809 238.572 288.663 238.572 288.483Z" fill="#E19100"/>
        <path d="M258.399 300.876C258.399 300.695 258.545 300.55 258.725 300.55C258.905 300.55 259.052 300.695 259.052 300.876C259.052 301.056 258.905 301.202 258.725 301.202C258.545 301.202 258.399 301.056 258.399 300.876Z" fill="#ED9F00"/>
        <path d="M242.307 278.893C242.307 278.447 242.669 278.085 243.116 278.085C243.562 278.085 243.924 278.447 243.924 278.893C243.924 279.34 243.562 279.702 243.116 279.702C242.669 279.702 242.307 279.34 242.307 278.893Z" fill="#ED9F00"/>
        <path d="M238.229 202.379C238.229 201.516 238.928 200.816 239.792 200.816C240.655 200.816 241.355 201.516 241.355 202.379C241.355 203.242 240.655 203.942 239.792 203.942C238.928 203.942 238.229 203.242 238.229 202.379Z" fill="#ED9F00"/>
        <path d="M247.504 279.702C247.504 279.479 247.685 279.298 247.908 279.298C248.132 279.298 248.313 279.479 248.313 279.702C248.313 279.925 248.132 280.106 247.908 280.106C247.685 280.106 247.504 279.925 247.504 279.702Z" fill="#ED9F00"/>
        <path d="M255.228 284.422C255.228 284.199 255.409 284.017 255.632 284.017C255.856 284.017 256.037 284.199 256.037 284.422C256.037 284.645 255.856 284.826 255.632 284.826C255.409 284.826 255.228 284.645 255.228 284.422Z" fill="#ED9F00"/>
        <path d="M245.379 271.752C245.379 271.529 245.56 271.348 245.783 271.348C246.006 271.348 246.187 271.529 246.187 271.752C246.187 271.976 246.006 272.157 245.783 272.157C245.56 272.157 245.379 271.976 245.379 271.752Z" fill="#ED9F00"/>
        <path d="M233.446 194.998C233.446 194.882 233.54 194.788 233.656 194.788C233.771 194.788 233.865 194.882 233.865 194.998C233.865 195.113 233.771 195.207 233.656 195.207C233.54 195.207 233.446 195.113 233.446 194.998Z" fill="#E19100"/>
        <path d="M230.454 203.546C230.454 203.43 230.547 203.337 230.663 203.337C230.779 203.337 230.872 203.43 230.872 203.546C230.872 203.662 230.779 203.755 230.663 203.755C230.547 203.755 230.454 203.662 230.454 203.546Z" fill="#E19100"/>
        <path d="M242.639 214.439C242.639 212.655 243.749 211.057 245.428 210.456C260.928 204.904 286.896 183.904 286.896 127.386C286.896 125.512 277.158 123.875 262.653 122.988C262.162 140.83 264.141 179.945 249.772 197.785C243.122 206.041 240.586 212.265 240.586 214.439C240.586 216.613 240.554 217.986 240.554 221.712C240.554 225.438 247.614 231.322 251.733 239.363C255.506 246.729 262.714 265.411 262.716 311.404C277.187 310.516 286.896 308.881 286.896 307.01C286.896 250.492 260.928 229.492 245.428 223.94C243.749 223.339 242.639 221.741 242.639 219.957V217.198V214.439Z" fill="url(#paint0_linear_2_7227)" fill-opacity="0.8"/>
        <path d="M231.696 209.37C234.247 210.443 234.67 212.294 234.67 214.483V217.243V220.002C234.67 221.819 233.339 223.959 231.714 224.771C214.534 233.353 189.804 252.658 189.697 308.169C193.974 310.06 205.02 311.043 215.07 311.584C215.183 266.354 222.307 246.716 226.05 239.408C230.169 231.367 237.229 226.292 237.229 221.757C237.229 218.03 237.198 216.658 237.198 214.484C237.198 209.015 234.661 206.086 228.012 197.83C215.056 181.744 215.453 149.685 215.285 129.678C215.285 124.904 199.716 126.772 193.808 127.976C193.101 128.12 192.601 128.757 192.621 129.478C194.247 186.656 212.961 201.491 231.696 209.37Z" fill="url(#paint1_linear_2_7227)" fill-opacity="0.1"/>
        <defs>
        <linearGradient id="paint0_linear_2_7227" x1="240.554" y1="217.196" x2="286.896" y2="217.196" gradientUnits="userSpaceOnUse">
        <stop stop-color="white"/>
        <stop offset="0.562411" stop-color="#E9EDF7"/>
        <stop offset="1" stop-color="#E9EDF7"/>
        </linearGradient>
        <linearGradient id="paint1_linear_2_7227" x1="189.697" y1="219.085" x2="237.229" y2="219.085" gradientUnits="userSpaceOnUse">
        <stop stop-color="#A3A9D0"/>
        <stop offset="0.0431538" stop-color="#A3A9D0"/>
        <stop offset="1" stop-color="#231F20"/>
        </linearGradient>
        </defs>
        </svg>
