<svg width="100%" height="100%" viewBox="0 0 350 330" fill="none" xmlns="http://www.w3.org/2000/svg">
        <rect width="350" height="330" fill="white"/>
        <path d="M98.2979 316.306C98.2979 312.386 124.517 309.21 156.86 309.21C189.203 309.21 215.422 312.386 215.422 316.306C215.422 320.225 189.203 323.401 156.86 323.401C124.517 323.401 98.2979 320.225 98.2979 316.306Z" fill="#EEEEEE"/>
        <path class="secondary-40" d="M282.45 54.2502C281.373 54.2502 280.325 54.3682 279.313 54.586C279.735 52.8581 279.96 51.0539 279.96 49.1975C279.96 36.5736 269.629 26.34 256.885 26.34C255.61 26.34 254.36 26.4441 253.142 26.6413C249.515 15.5075 238.97 7.45238 226.525 7.45238C213.208 7.45238 202.067 16.6736 199.249 29.021C196.512 27.7535 193.459 27.0441 190.238 27.0441C178.473 27.0441 168.936 36.4923 168.936 48.1469C168.936 50.4417 169.308 52.6493 169.992 54.7176C163.67 56.3443 159.002 62.0351 159.002 68.8069H297.145C297.145 60.7676 290.566 54.2502 282.45 54.2502Z" fill="var(--secondary-40)"/>
        <path class="secondary-20" d="M271.89 217.165C272.561 215.782 272.949 214.237 272.949 212.6C272.949 206.771 268.181 202.047 262.297 202.047C259.977 202.047 257.83 202.781 256.082 204.032L256.072 204.033C254.352 199.532 249.975 196.326 244.827 196.326C239.031 196.326 234.191 200.388 233.052 205.799C232.006 205.382 230.867 205.152 229.67 205.152C224.655 205.152 220.594 209.179 220.594 214.145C220.594 215.206 220.789 216.219 221.13 217.165H271.89Z" fill="var(--secondary-20)"/>
        <path d="M182.262 85.7511C182.014 83.281 179.645 80.6064 180.574 79.0707C181.503 77.5349 184.136 74.078 184.136 74.078V86.1152L182.262 85.7511Z" fill="#F7D3C9"/>
        <path class="primary-20" d="M144.119 129.34C152.938 126.57 170.06 115.267 173.78 111.14C177.717 106.772 181.117 85.496 181.117 85.496L186.673 86.3104C186.58 95.1237 183.844 114.587 179.764 118.419C175.198 122.707 155.739 140.646 149.01 142.885C142.281 145.125 140.755 140.289 140.128 138.262C139.5 136.234 140.916 130.346 144.119 129.34Z" fill="var(--primary-20)"/>
        <path d="M211.278 58.5949L205.588 51.9181C204.762 50.949 203.52 50.3967 202.167 50.3967H192.026C190.124 50.3967 188.447 51.8928 188.28 53.7384L184.136 99.6968H251.938L255.343 61.9364C255.509 60.091 254.102 58.5949 252.2 58.5949H211.278Z" fill="#DC8B00"/>
        <path d="M207.571 57.7309L201.279 50.9137C200.366 49.9242 199.075 49.3605 197.721 49.3605H187.58C185.678 49.3605 184.136 50.888 184.136 52.7722V99.6967H251.938V61.1426C251.938 59.2584 250.396 57.7309 248.494 57.7309H207.571Z" fill="#FCBA06"/>
        <path d="M226.807 80.1716H210.823V75.0469H226.807V80.1716Z" fill="white"/>
        <path d="M218.182 76.9828H219.447V78.2354H218.182V76.9828Z" fill="#423EAF"/>
        <path d="M221.039 76.9828H222.304V78.2354H221.039V76.9828Z" fill="#423EAF"/>
        <path d="M216.59 76.9828H215.325V78.2354H216.59V76.9828Z" fill="#423EAF"/>
        <path d="M175.428 306.069V304.055H180.983C181.055 305.932 181.406 306.937 181.62 307.716C180.176 308.264 178.062 306.847 175.428 306.069Z" fill="#F8D8D0"/>
        <path d="M175.428 306.069C178.062 306.846 180.176 308.264 181.62 307.716C182.384 308.264 193.647 312.277 194.792 313.055C195.966 313.851 195.794 315.084 194.553 315.084C192.737 315.084 177.782 314.432 177.782 314.432C177.479 314.758 177.233 315.084 177.233 315.084H173.815C172.796 313.334 173.072 308.081 175.428 306.069Z" fill="#424242"/>
        <path d="M120.421 306.074C120.78 305.018 121.059 304.059 121.059 304.059L126.732 304.111C126.474 305.513 126.4 306.941 126.611 307.72C125.168 308.27 123.055 306.851 120.421 306.074Z" fill="#F8D8D0"/>
        <path d="M120.421 306.074C123.055 306.851 125.168 308.27 126.611 307.72C127.375 308.27 138.639 312.282 139.785 313.059C140.957 313.855 140.786 315.09 139.545 315.09C137.728 315.09 122.773 314.437 122.773 314.437C122.47 314.763 122.224 315.09 122.224 315.09H118.807C117.788 313.339 118.064 308.085 120.421 306.074Z" fill="#424242"/>
        <path d="M131.361 192C127.325 201.327 128.58 209.321 129.208 216.116C127.827 224.243 121.058 304.059 121.058 304.059C123.076 304.059 126.732 304.111 126.732 304.111C126.732 304.111 139.399 254.451 141.817 246.448C144.41 237.863 155.252 204.486 154.714 191.001C146.849 191.72 131.361 192 131.361 192Z" fill="#F8D8D0"/>
        <path d="M167.404 190.603C170.902 198.662 190.527 243.623 190.957 248.455C191.39 253.287 180.982 304.055 180.982 304.055H175.428C173.09 282.946 176.364 253.19 178.404 248.224C170.372 238.842 148.046 220.489 144.54 215.849C139.041 208.573 138.199 200.067 139.277 192.63C144.658 191.322 167.404 190.603 167.404 190.603Z" fill="#F8D8D0"/>
        <path d="M159.036 126.874C157.175 124.92 154.984 120.609 155.599 119.066C156.213 117.524 160.779 117.554 161.367 115.31C162.158 112.283 161.926 106.795 160.682 102.491C158.864 96.1993 155.887 92.3674 148.88 94.4863C143.317 96.1673 140.242 101.232 141.334 107.069C142.554 113.581 147.435 119.358 147.524 121.696C147.613 124.035 146.101 125.175 146.101 125.175L159.036 126.874Z" fill="#F8D8D0"/>
        <path class="primary-30" d="M167.463 148.987C165.08 154.887 161.146 158.056 161.07 168.647C160.971 182.503 172.54 202.46 191.228 230.262C161.434 245.872 128.944 244.877 117.221 237.909C130.843 212.913 126.489 206.677 130.715 191.362C133.038 182.946 137.079 178.517 137.453 169.848C137.885 159.842 134.784 138.296 141.032 128.982C145.624 122.137 154.619 122.858 159.857 127.441C165.316 132.217 167.463 148.987 167.463 148.987Z" fill="var(--primary-30)"/>
        <path class="primary-40" d="M117.221 237.909C130.843 212.913 126.49 206.676 130.715 191.361C133.038 182.946 137.079 178.517 137.454 169.848C137.881 159.971 134.87 138.856 140.802 129.356C138.802 132.959 145.859 129.079 140.333 148.158C137.905 156.536 139.551 161.54 142.509 174.205C145.002 184.872 148.505 187.654 137.653 203.9C130.117 215.181 130.788 232.098 138.645 242.688C129.323 242.38 121.731 240.59 117.221 237.909Z" fill="var(--primary-40)"/>
        <path class="primary-30" d="M200.211 88.6461C200.211 88.6461 192.621 115.685 190.698 118.903C189.168 121.463 167.739 128.325 158.788 126.597C155.958 126.051 157.241 145.656 166.49 143.401C166.49 143.401 196.063 130.554 198.454 127.434C200.845 124.316 206.324 90.277 206.324 90.277L200.211 88.6461Z" fill="var(--primary-30)"/>
        <path class="primary-20" d="M159.218 169.75C159.931 174.078 162.263 183.508 166.67 189.217C166.671 189.215 166.671 189.213 166.672 189.212C163.009 181.221 161.028 174.406 161.07 168.647C161.146 158.056 165.081 154.887 167.463 148.987C167.463 148.987 166.967 145.891 166.49 143.401C163.734 142.672 161.126 144.887 161.536 148.814C162.338 156.499 158.504 165.422 159.218 169.75Z" fill="var(--primary-20)"/>
        <path d="M155.516 105.757C151.775 107.726 149.418 110.108 149.422 114.374C149.425 119.259 154.281 121.627 152.254 125.444C149.363 130.886 140.691 132.956 138.889 142.546C137.086 152.135 148.381 163.293 131.948 167.098C134.759 169.189 138.127 170.179 142.81 167.212C154.483 159.82 137.795 149.623 149.972 137.157C160.996 125.873 157.007 121.049 154.636 118.219C152.517 115.691 152.134 110.399 155.057 108.9C156.932 107.938 158.061 106.986 158.775 105.661C159.66 104.023 159.913 101.392 158.021 96.7018C158.783 98.8831 158.99 103.929 155.516 105.757Z" fill="#333232"/>
        <path d="M143.205 97.6121C137.557 103.547 140.11 111.262 142.582 114.499C144.349 116.815 144.029 120.567 135.914 126.897C126.915 133.918 107.357 135.406 100.81 142.309C103.5 154.644 113.413 162.179 120.527 159.815C124.787 158.398 127.751 163.978 131.948 167.099C148.381 163.293 137.086 152.135 138.889 142.546C140.691 132.956 149.363 130.886 152.254 125.444C154.281 121.627 149.426 119.26 149.422 114.374C149.418 110.108 151.775 107.726 155.516 105.757C158.99 103.929 158.783 98.8832 158.022 96.7019C157.831 96.2284 157.625 95.7406 157.389 95.2236C154.719 92.5558 148.854 91.6781 143.205 97.6121Z" fill="#424242"/>
        <path d="M205.328 90.0115C205.524 89.3605 207.499 87.7043 208.689 85.3876C210.474 81.9119 211.449 77.1025 208.622 76.2711C205.795 75.4394 203.984 83.5574 202.933 83.4233C202.036 83.3089 201.063 80.2489 200.417 80.1738C199.771 80.099 201.225 83.8522 201.157 85.7213C201.117 86.8222 201.736 87.8418 201.325 88.9435C201.706 89.0316 205.328 90.0115 205.328 90.0115Z" fill="#F7D3C9"/>
        <path d="M183.591 82.4023C184.555 81.291 188.281 78.4796 187.444 77.5003C186.608 76.5211 182.867 80.5054 182.867 80.5054L183.591 82.4023Z" fill="#F7D3C9"/>
        <path class="secondary-30" d="M129.679 174.403C130.501 168.24 124.885 163.099 118.929 163.099C118.182 163.099 117.452 163.175 116.748 163.316H116.746C116.752 163.147 116.764 162.983 116.764 162.814C116.764 155.55 110.82 149.664 103.488 149.664C102.051 149.664 100.665 149.89 99.3689 150.308C95.94 145.231 89.5122 142.317 82.5773 144.115C75.956 145.832 71.4416 151.913 71.4416 158.693V158.696C69.76 158.021 67.9164 157.669 65.9794 157.723C60.7189 157.87 56.1034 161.215 53.9737 165.982C52.6266 168.998 52.626 171.841 53.2879 174.403H129.679Z" fill="var(--secondary-30)"/>
        </svg>