<svg width="350" height="330" viewBox="0 0 350 330" fill="none" xmlns="http://www.w3.org/2000/svg">
        <rect width="350" height="330" fill="white"/>
        <path d="M70 320.434C70 316.256 98.5832 312.869 133.841 312.869C169.099 312.869 197.681 316.256 197.681 320.434C197.681 324.613 169.099 328 133.841 328C98.5832 328 70 324.613 70 320.434Z" fill="#EEEEEE"/>
        <path d="M139.929 3.33676C132.144 3.33676 125.775 9.70605 125.775 17.4903V271.335C125.775 279.12 132.144 285.489 139.929 285.489H264.847C272.632 285.489 279.001 279.12 279.001 271.335V17.4903C279.001 9.70605 272.632 3.33676 264.847 3.33676H139.929Z" fill="#424242"/>
        <path d="M132.854 260.953H271.926V18.9514H132.854V260.953Z" fill="white"/>
        <path class="primary-10" d="M216.244 13.5579H188.536C187.861 13.5579 187.315 13.011 187.315 12.3367C187.315 11.6624 187.861 11.1156 188.536 11.1156H216.244C216.918 11.1156 217.465 11.6624 217.465 12.3367C217.465 13.011 216.918 13.5579 216.244 13.5579Z" fill="var(--primary-10)"/>
        <path d="M194.666 272.903C194.666 268.638 198.123 265.18 202.389 265.18C206.654 265.18 210.112 268.638 210.112 272.903C210.112 277.168 206.654 280.626 202.389 280.626C198.123 280.626 194.666 277.168 194.666 272.903Z" stroke="#858585" stroke-width="12" stroke-linecap="round" stroke-linejoin="round"/>
        <path class="primary-60" d="M159.504 93.2044H157.062V83.3784C157.062 82.7039 157.609 82.1572 158.283 82.1572H167.927V84.5996H159.504V93.2044Z" fill="var(--primary-60)"/>
        <path class="primary-60" d="M247.719 93.2046H245.277V84.5997H236.854V82.1574H246.498C247.172 82.1574 247.719 82.7041 247.719 83.3786V93.2046Z" fill="var(--primary-60)"/>
        <path class="primary-60" d="M167.927 192.216H158.283C157.609 192.216 157.062 191.67 157.062 190.995V181.169H159.504V189.774H167.927V192.216Z" fill="var(--primary-60)"/>
        <path class="primary-60" d="M246.498 192.216H236.854V189.774H245.277V181.169H247.719V190.995C247.719 191.67 247.172 192.216 246.498 192.216Z" fill="var(--primary-60)"/>
        <path class="primary-10" d="M218.089 115.488C226.837 125.674 214.039 128.896 220.185 134.509C224.466 138.419 224.065 142.102 221.113 145.054C218.161 148.006 221.291 154.689 221.291 154.689L208.596 149.405L209.512 131.163L212.25 115.669L218.089 115.488Z" fill="var(--primary-10)"/>
        <path d="M211.289 145.104V145.105L211.287 145.103V132.945L193.553 132.945V145.104C186.921 148.946 176.144 152.763 172.267 173.253C178.799 173.254 202.421 173.253 202.421 173.253C202.421 173.253 225.725 173.254 232.257 173.253C228.621 152.559 217.921 148.946 211.289 145.104Z" fill="#F3B6A3"/>
        <path d="M193.553 142.028C196.098 143.768 199.141 144.79 202.422 144.79C205.701 144.79 208.741 143.769 211.288 142.029V132.946L193.553 132.946V142.028Z" fill="#E8C2B8"/>
        <path d="M203.901 104.841C203.653 104.841 203.406 104.849 203.161 104.861C202.915 104.849 202.669 104.841 202.421 104.841C193.505 104.842 187.888 112.323 187.888 121.55C187.888 121.55 188.279 124.583 189.109 127.345C191.997 136.955 199.387 142.12 202.42 142.12C202.668 142.12 202.915 142.113 203.161 142.102C203.406 142.113 203.653 142.12 203.902 142.12C206.934 142.12 214.622 134.506 215.618 124.521C216.448 116.201 212.816 104.842 203.901 104.841Z" fill="#F3B6A3"/>
        <path d="M188.875 126.513C190.142 128.572 190.408 122.934 192.263 119.14C194.781 113.988 196.205 116.397 200.339 116.396C204.472 116.396 204.737 113.729 208.337 113.729C211.936 113.73 213.097 119.193 217.603 115.869C221.936 112.671 223.864 105.786 218.167 102.464C214.818 100.512 212.209 100.427 205.089 103.061C202.298 104.094 199.803 101.129 197.085 102.623C193.762 104.45 194.605 106.608 191.543 107.323C186.051 108.606 183.727 118.148 188.875 126.513Z" fill="#424242"/>
        <path class="primary-30" d="M221.54 151.276C220.514 150.578 219.689 149.699 218.685 149.271C216.949 152.697 210.728 162.38 202.422 162.38C194.115 162.38 187.868 152.538 186.132 149.113C185.128 149.541 184.145 150.463 183.119 151.131C184.957 155.953 184.449 166.908 184.361 173.254C193.145 173.254 202.422 173.253 202.422 173.253C202.422 173.253 211.698 173.254 220.482 173.254C220.394 166.908 219.701 156.098 221.54 151.276Z" fill="var(--primary-30)"/>
        <path class="primary-10" d="M192.263 119.139C191.536 130.13 196.722 127.486 197.491 137.864C198.038 145.229 194.021 147.847 196.945 151.844C199.454 155.274 204.838 161.564 200.617 165.786C194.647 171.755 177.055 165.237 180.834 152.618C182.738 146.26 185.11 144.338 185.954 139.575C186.452 136.765 178.216 136.379 181.516 131.401C184.816 126.423 186.012 120.022 186.012 117.042C186.012 113.478 192.263 119.139 192.263 119.139Z" fill="var(--primary-10)"/>
        <path class="secondary-40" d="M189.523 56.9493C189.523 49.8424 195.284 44.0813 202.391 44.0813C209.498 44.0813 215.259 49.8424 215.259 56.9493C215.259 64.056 209.498 69.8173 202.391 69.8173C195.284 69.8173 189.523 64.056 189.523 56.9493Z" fill="var(--secondary-40)"/>
        <path class="secondary-20" d="M202.391 63.1677C202.156 63.1677 201.922 63.0783 201.743 62.8994L196.036 57.1924C195.678 56.8348 195.678 56.2548 196.036 55.8972C196.394 55.5396 196.974 55.5396 197.331 55.8972L202.391 60.9567L216.036 47.3116C216.394 46.9538 216.973 46.9538 217.331 47.3116C217.689 47.6692 217.689 48.2493 217.331 48.6067L203.038 62.8994C202.859 63.0783 202.625 63.1677 202.391 63.1677Z" fill="var(--secondary-20)"/>
        <path class="primary-30" d="M231.089 222.158H173.508C172.539 222.158 171.754 222.943 171.754 223.912C171.754 224.88 172.539 225.666 173.508 225.666H231.089C232.058 225.666 232.844 224.88 232.844 223.912C232.844 222.943 232.058 222.158 231.089 222.158Z" fill="var(--primary-30)"/>
        <path class="primary-30" d="M202.061 230.756H173.508C172.539 230.756 171.754 231.541 171.754 232.51C171.754 233.479 172.539 234.264 173.508 234.264H202.061C203.03 234.264 203.815 233.479 203.815 232.51C203.815 231.541 203.03 230.756 202.061 230.756Z" fill="var(--primary-30)"/>
        <path class="primary-30" d="M231.089 230.756H210.997C210.028 230.756 209.243 231.541 209.243 232.51C209.243 233.479 210.028 234.264 210.997 234.264H231.089C232.058 234.264 232.843 233.479 232.843 232.51C232.843 231.541 232.058 230.756 231.089 230.756Z" fill="var(--primary-30)"/>
        <path class="primary-30" d="M231.089 239.354H173.508C172.539 239.354 171.754 240.139 171.754 241.109C171.754 242.078 172.539 242.863 173.508 242.863H231.089C232.058 242.863 232.844 242.078 232.844 241.109C232.844 240.139 232.058 239.354 231.089 239.354Z" fill="var(--primary-30)"/>
        <path class="secondary-30" d="M217.719 212.271C217.382 212.271 217.109 211.997 217.109 211.66V205.03C217.109 204.692 217.382 204.419 217.719 204.419C218.057 204.419 218.33 204.692 218.33 205.03V211.66C218.33 211.997 218.057 212.271 217.719 212.271Z" fill="var(--secondary-30)"/>
        <path class="secondary-30" d="M214.849 210.61C214.638 210.61 214.433 210.501 214.319 210.305C214.151 210.013 214.251 209.639 214.543 209.471L220.285 206.155C220.576 205.987 220.95 206.086 221.12 206.379C221.288 206.671 221.188 207.044 220.896 207.213L215.154 210.529C215.058 210.584 214.953 210.61 214.849 210.61Z" fill="var(--secondary-30)"/>
        <path class="secondary-30" d="M220.59 210.61C220.486 210.61 220.381 210.584 220.285 210.529L214.543 207.213C214.251 207.044 214.151 206.671 214.32 206.379C214.488 206.086 214.862 205.987 215.154 206.155L220.896 209.471C221.188 209.639 221.288 210.013 221.12 210.305C221.006 210.501 220.801 210.61 220.59 210.61Z" fill="var(--secondary-30)"/>
        <path class="secondary-30" d="M207.439 212.271C207.101 212.271 206.828 211.997 206.828 211.66V205.03C206.828 204.692 207.101 204.419 207.439 204.419C207.776 204.419 208.049 204.692 208.049 205.03V211.66C208.049 211.997 207.776 212.271 207.439 212.271Z" fill="var(--secondary-30)"/>
        <path class="secondary-30" d="M204.568 210.61C204.357 210.61 204.152 210.501 204.039 210.305C203.87 210.013 203.97 209.639 204.262 209.471L210.004 206.155C210.295 205.987 210.67 206.086 210.838 206.379C211.007 206.671 210.907 207.044 210.615 207.213L204.873 210.529C204.777 210.584 204.672 210.61 204.568 210.61Z" fill="var(--secondary-30)"/>
        <path class="secondary-30" d="M210.309 210.61C210.205 210.61 210.1 210.584 210.004 210.529L204.262 207.213C203.97 207.044 203.87 206.671 204.039 206.379C204.208 206.086 204.581 205.987 204.873 206.155L210.615 209.471C210.907 209.639 211.007 210.013 210.838 210.305C210.725 210.501 210.52 210.61 210.309 210.61Z" fill="var(--secondary-30)"/>
        <path class="secondary-30" d="M197.159 212.271C196.821 212.271 196.548 211.997 196.548 211.66V205.03C196.548 204.692 196.821 204.419 197.159 204.419C197.496 204.419 197.769 204.692 197.769 205.03V211.66C197.769 211.997 197.496 212.271 197.159 212.271Z" fill="var(--secondary-30)"/>
        <path class="secondary-30" d="M194.288 210.61C194.077 210.61 193.872 210.501 193.759 210.305C193.59 210.013 193.69 209.639 193.983 209.471L199.725 206.155C200.015 205.987 200.39 206.086 200.559 206.379C200.728 206.671 200.628 207.044 200.335 207.213L194.593 210.529C194.497 210.584 194.392 210.61 194.288 210.61Z" fill="var(--secondary-30)"/>
        <path class="secondary-30" d="M200.029 210.61C199.926 210.61 199.821 210.584 199.725 210.529L193.983 207.213C193.69 207.044 193.59 206.671 193.759 206.379C193.928 206.086 194.301 205.987 194.593 206.155L200.335 209.471C200.627 209.639 200.728 210.013 200.559 210.305C200.446 210.501 200.241 210.61 200.029 210.61Z" fill="var(--secondary-30)"/>
        <path class="secondary-30" d="M186.878 212.271C186.54 212.271 186.267 211.997 186.267 211.66V205.03C186.267 204.692 186.54 204.419 186.878 204.419C187.215 204.419 187.488 204.692 187.488 205.03V211.66C187.488 211.997 187.215 212.271 186.878 212.271Z" fill="var(--secondary-30)"/>
        <path class="secondary-30" d="M184.008 210.61C183.797 210.61 183.592 210.501 183.479 210.305C183.31 210.013 183.41 209.639 183.702 209.471L189.444 206.155C189.735 205.987 190.11 206.086 190.278 206.379C190.447 206.671 190.347 207.044 190.055 207.213L184.313 210.529C184.217 210.584 184.112 210.61 184.008 210.61Z" fill="var(--secondary-30)"/>
        <path class="secondary-30" d="M189.749 210.61C189.645 210.61 189.54 210.584 189.444 210.529L183.702 207.213C183.41 207.044 183.31 206.671 183.479 206.379C183.648 206.086 184.019 205.987 184.313 206.155L190.055 209.471C190.347 209.639 190.447 210.013 190.278 210.305C190.165 210.501 189.96 210.61 189.749 210.61Z" fill="var(--secondary-30)"/>
        <path d="M108.472 103.382C105.382 106.856 98.3976 135.468 99.3509 144.857C100.16 152.826 111.21 175.052 111.21 175.052C112.353 173.528 113.878 169.096 113.878 169.096C112.353 168 106.212 148.362 106.212 142.582C106.212 136.802 115.127 122.245 115.127 122.245L108.472 103.382Z" fill="#F7D3C9"/>
        <path class="primary-10" d="M118.524 319.112C117.637 319.112 116.534 320.097 116.392 321.139H114.776C114.776 321.139 113.19 318.455 114.026 315.009C114.554 312.836 115.112 313.358 115.676 313.922C116.963 314.968 122.211 315.312 122.623 313.549C123.977 313.751 137.925 317.765 137.925 319.054C137.925 321.145 136.286 321.139 135.17 321.139C121.976 321.139 123.723 320.328 118.524 319.112Z" fill="var(--primary-10)"/>
        <path d="M121.195 311.333C120.743 309.345 114.995 307.852 115.292 311.333C115.359 312.132 115.263 312.906 114.991 313.549H114.995C116.149 315.204 128.292 318.306 130.272 315.73C128.89 314.989 121.195 313.442 121.195 311.333Z" fill="#F7D3C9"/>
        <path class="primary-10" d="M141.608 160.28C140.634 178.923 133.032 204.662 131.602 228.39C130.173 252.119 121.367 311.333 121.367 311.333C118.734 311.333 115.197 311.201 115.197 311.201C113.767 304.626 105.594 253.176 113.783 235.228C110.623 222.883 102.157 180.84 112.734 160.28H141.608Z" fill="var(--primary-10)"/>
        <path d="M139.423 69.5974C139.9 73.2863 142.475 84.1886 140.311 88.1247C138.536 91.3549 134.886 91.9031 129.009 89.904C123.128 87.9073 122.889 77.2283 122.117 74.1473C120.898 69.2638 138.424 61.8308 139.423 69.5974Z" fill="#F7D3C9"/>
        <path class="primary-60" d="M134.286 89.7046C134.613 91.5807 135.712 95.2777 135.712 95.2777C134.901 96.3737 129.622 98.1479 123.835 94.8649C124.253 91.4191 123.974 83.4312 123.974 83.4312L134.286 89.7046Z" fill="var(--primary-60)"/>
        <path class="primary-30" d="M150.471 160.281C146.264 137.085 149.821 131.004 150.471 126.541C151.996 116.079 150.993 103.79 145.671 99.4827C135.634 91.3587 118.631 90.4229 108.161 103.766C104.843 107.994 112.617 121.164 113.664 137.169C114.62 151.795 114.07 155.921 112.735 160.281H150.471Z" fill="var(--primary-30)"/>
        <path class="primary-10" d="M145.793 319.112C144.904 319.112 143.802 320.097 143.661 321.139H142.045C142.045 321.139 140.459 318.455 141.295 315.009C141.823 312.836 142.38 313.358 142.945 313.922C144.231 314.968 149.479 315.312 149.892 313.549C151.246 313.751 165.193 317.765 165.193 319.054C165.193 321.145 163.554 321.139 162.438 321.139C149.245 321.139 150.993 320.328 145.793 319.112Z" fill="var(--primary-10)"/>
        <path d="M148.465 311.333C148.013 309.345 142.263 307.852 142.561 311.333C142.629 312.132 142.533 312.906 142.26 313.549H142.263C143.419 315.204 155.562 318.306 157.542 315.73C156.16 314.989 148.465 313.442 148.465 311.333Z" fill="#F7D3C9"/>
        <path class="primary-10" d="M150.471 160.28C153.995 171.119 157.375 204.662 155.946 228.39C154.516 252.119 148.636 311.333 148.636 311.333C146.003 311.333 142.466 311.201 142.466 311.201C141.037 304.626 131.793 250.403 137.211 235.228C132.922 226.652 113.283 185.437 121.597 160.28H150.471Z" fill="var(--primary-10)"/>
        <path d="M145.67 99.483C150.425 103.07 164.473 124.978 165.596 139.481C167.138 159.368 155.303 173.81 155.303 173.81C153.874 171.523 153.626 166.665 153.626 166.665C156.199 162.759 159.002 154.275 157.707 142.956C157.259 139.033 152.489 127.61 147.621 125.038C140.527 113.175 145.67 99.483 145.67 99.483Z" fill="#F7D3C9"/>
        <path d="M155.303 173.809C149.457 177.595 149.796 161.479 150.941 160.91C152.084 160.341 152.24 165.808 152.783 165.627C153.327 165.445 154.271 164.821 154.748 166.113C155.223 167.404 155.303 173.809 155.303 173.809Z" fill="#F7D3C9"/>
        <path d="M139.767 72.6664C143.562 71.374 145.457 59.8762 135.702 62.8031C125.946 65.7295 116.678 69.3061 119.28 75.8103C121.881 82.3135 116.463 83.2374 115.594 89.7125C114.849 95.2697 118.255 98.0694 113.02 101.866C109.091 104.716 112.42 109.253 110.933 111.438C107.474 116.515 107.549 123.372 116.19 126.215C128.548 130.28 142.643 129.421 137.599 121.553C133.534 115.213 134.319 115.157 137.003 111.662C139.685 108.166 131.04 103.479 134.495 100.024C136.436 98.0808 131.931 92.0669 132.72 88.4925C133.337 85.7037 137.22 86.434 137.22 81.6649C137.22 75.9331 135.577 74.0936 139.767 72.6664Z" fill="#424242"/>
        </svg>