   <svg width="100%" height="100%" viewBox="0 0 350 330" fill="none" xmlns="http://www.w3.org/2000/svg">
        <rect width="350" height="330" fill="white"/>
        <path d="M106.021 316.608C106.021 313.571 137.314 311.108 175.913 311.108C214.513 311.108 245.804 313.571 245.804 316.608C245.804 319.647 214.513 322.109 175.913 322.109C137.314 322.109 106.021 319.647 106.021 316.608Z" fill="#EEEEEE"/>
        <path class="secondary-dark_1" d="M195.602 75.3946C194.177 74.44 182.967 71.9277 174.455 72.4601C167.056 72.923 157.517 76.5022 155.479 79.2157C155.604 80.0908 155.268 80.6511 155.955 80.6333C156.213 81.2134 156.479 81.7226 156.479 81.7226C159.337 79.0335 170.009 75.569 174.609 75.4317C184.714 75.1299 195.807 77.9071 197.072 78.8031C196.283 77.527 195.602 75.3946 195.602 75.3946Z" fill="var(--secondary-20)"/>
        <path d="M174.293 92.56C177.707 89.4227 172.832 80.8545 171.666 77.9392C170.103 74.0324 166.813 53.4551 166.813 53.4551C158.43 61.3758 152.269 81.0311 160.105 89.614C158.158 91.1178 156.788 93.3672 156.464 96.0019C155.82 101.236 159.54 106.001 164.775 106.645C170.009 107.29 174.774 103.569 175.418 98.3351C175.674 96.2582 175.234 94.2607 174.293 92.56Z" fill="#424242"/>
        <path d="M141.569 314.454C142.509 314.454 143.677 315.497 143.827 316.602H145.54C145.54 316.602 147.221 313.76 146.335 310.107C145.776 307.805 145.185 308.357 144.586 308.957C143.224 310.064 137.663 310.428 137.227 308.56C135.791 308.776 121.013 313.027 121.013 314.393C121.013 316.608 122.749 316.602 123.932 316.602C137.91 316.602 136.06 315.743 141.569 314.454Z" fill="#424242"/>
        <path d="M138.739 306.213C139.218 304.106 145.309 302.526 144.995 306.213C144.923 307.061 145.025 307.881 145.313 308.561H145.309C144.085 310.314 131.22 313.603 129.121 310.871C130.587 310.088 138.739 308.448 138.739 306.213Z" fill="#F7D3C9"/>
        <path d="M206.113 314.454C205.173 314.454 204.004 315.497 203.855 316.602H202.142C202.142 316.602 200.461 313.76 201.347 310.107C201.906 307.805 202.496 308.357 203.095 308.957C204.458 310.064 210.019 310.428 210.455 308.56C211.891 308.776 226.669 313.027 226.669 314.393C226.669 316.608 224.932 316.602 223.75 316.602C209.771 316.602 211.622 315.743 206.113 314.454Z" fill="#424242"/>
        <path d="M208.944 306.213C208.465 304.106 202.374 302.526 202.688 306.213C202.76 307.061 202.658 307.881 202.37 308.561H202.374C203.598 310.314 216.463 313.603 218.563 310.871C217.096 310.088 208.944 308.448 208.944 306.213Z" fill="#F7D3C9"/>
        <path class="primary-dark_2" d="M152.231 151.266C138.216 175.681 138.519 268.39 138.519 306.084H145.208C148.965 296.74 181.325 169.044 183.865 151.266H152.231Z" fill="var(--primary-10)"/>
        <path class="primary-dark_2" d="M193.144 151.264C209.324 176.789 209.212 268.241 209.212 305.935H202.524C198.767 296.59 165.562 169.042 163.023 151.264H193.144Z" fill="var(--primary-10)"/>
        <path class="primary-base" d="M160.054 85.5709C155.609 84.4277 136.846 72.2048 140.243 25.3769H134.655C129.829 43.4095 126.742 73.5641 151.458 104.981C156.492 97.4091 160.054 85.5709 160.054 85.5709Z" fill="var(--primary-30)"/>
        <path d="M134.338 25.5706C133.804 24.6825 132.313 23.8563 132.362 21.253C132.411 18.6497 141.208 15.1573 141.791 16.7846C142.276 18.1355 141.861 18.7585 141.861 18.7585C142.482 18.5226 144.415 18.0864 142.498 22.0147C141.101 24.8799 140.243 25.3802 140.243 25.3802C140.243 25.3802 135.702 26.0149 134.338 25.5706Z" fill="#F7D3C9"/>
        <path class="primary-base" d="M193.144 151.266H152.23C154.933 123.971 144.929 117.753 149.216 107.884C153.892 97.1165 155.693 93.8018 160.054 85.5734C167.419 86.8432 183.921 77.592 197.212 98.0606C197.784 110.823 188.924 126.058 193.144 151.266Z" fill="var(--primary-30)"/>
        <path d="M176.955 86.8812L176.963 86.8838C176.325 82.093 177.973 78.0457 179.565 75.4334C179.565 75.4334 184.032 69.1517 183.918 62.7506C183.774 54.5808 170.841 52.5364 167.131 54.4155C162.355 57.2242 161.613 61.4805 160.573 67.1212C160.573 67.1212 158.281 72.3696 158.236 72.7217C158.169 73.2359 159.777 73.1932 159.848 73.4451C159.919 73.697 159.377 76.8788 160.332 78.2465C161.288 79.6142 164.454 79.298 165.396 79.918C166.861 80.8815 168.542 82.4557 166.091 86.17C162.797 92.9837 170.115 92.3902 176.955 86.8812Z" fill="#F7D3C9"/>
        <path class="primary-dark_1" d="M194.246 92.0099C201.446 97.8618 226.852 117.43 220.909 124.284C214.154 132.075 193.993 111.483 192.022 109.517C182.499 100.013 181.419 97.0161 183.865 92.167C186.311 87.3176 191.737 89.9709 194.246 92.0099Z" fill="var(--primary-20)"/>
        <path class="primary-light_1" d="M215.13 126.115C209.648 126.115 194.658 125.594 177.188 112.287C177.977 109.687 180.274 105.336 180.274 105.336C190.329 106.673 211.636 112.447 216.269 114.123C220.903 115.798 222.555 120.067 222.287 121.912C221.985 123.989 220.852 126.115 215.13 126.115Z" fill="var(--primary-40)"/>
        <path d="M178.374 98.8031C179.413 98.1713 180.21 99.7435 179.661 100.22C179.112 100.695 179.084 104.416 179.084 104.416C179.084 104.416 177.251 102.917 177.296 102.732C177.342 102.546 178.374 98.8031 178.374 98.8031Z" fill="#F0CCC0"/>
        <path class="secondary-base" d="M161.544 81.9231C161.118 81.9231 160.74 81.8953 160.418 81.845C160.418 81.8452 160.418 81.8454 160.418 81.8454L160.417 81.845C156.995 81.7193 155.479 79.2126 155.479 79.2126V81.4582C155.644 81.7492 156.665 83.9302 161.291 83.9533C162.095 83.9573 161.108 86.576 160.929 87.2056H162.462C163.375 84.6649 163.786 81.9231 161.544 81.9231Z" fill="var(--secondary-30)"/>
        <path d="M173.236 89.0671L174.881 90.4791C176.683 92.0606 177.998 94.2373 178.556 96.8646C180.073 104.01 175.404 111.786 168.13 114.228C163.526 115.774 158.982 114.815 155.88 112.093L154.235 110.681C157.337 113.403 161.881 114.362 166.485 112.816C173.759 110.374 178.428 102.599 176.911 95.4528C176.354 92.8255 175.038 90.6486 173.236 89.0671Z" fill="#E19100"/>
        <path d="M160.989 86.933C153.712 89.3765 149.043 97.1523 150.561 104.301C152.078 111.447 159.207 115.262 166.485 112.818C173.759 110.376 178.428 102.6 176.911 95.4546C175.393 88.3054 168.264 84.4908 160.989 86.933Z" fill="#FFD03E"/>
        <path d="M156.949 92.5992C158.355 91.2203 160.071 90.1295 162.003 89.4809C166.004 88.1376 169.945 89.0326 172.582 91.4726C169.969 88.5827 165.719 87.4333 161.404 88.8821C159.472 89.5308 157.757 90.6217 156.35 92.0006C153.256 95.0341 151.659 99.4608 152.545 103.636C152.999 105.775 154.054 107.553 155.489 108.88C154.36 107.632 153.532 106.065 153.144 104.235C152.258 100.059 153.855 95.6327 156.949 92.5992Z" fill="#E19100"/>
        <path d="M166.073 110.869C172.252 108.795 176.218 102.19 174.929 96.1195C174.54 94.2875 173.712 92.7194 172.583 91.4712C169.946 89.0314 166.005 88.1361 162.003 89.4795C160.071 90.128 158.356 91.2191 156.95 92.5978C153.856 95.6313 152.258 100.058 153.145 104.233C153.533 106.064 154.361 107.631 155.49 108.879C158.127 111.318 162.069 112.214 166.073 110.869Z" fill="#FCBA06"/>
        <path d="M164.289 95.6245L161.954 95.2196L161.355 94.6208L163.691 95.0258L164.289 95.6245Z" fill="#ED9F00"/>
        <path d="M168.129 96.2886L165.919 95.9056L165.32 95.307L167.53 95.69L168.129 96.2886Z" fill="#ED9F00"/>
        <path d="M163.769 108.766L157.594 107.696L156.995 107.097L163.17 108.168L163.769 108.766Z" fill="#ED9F00"/>
        <path d="M168.693 94.668L168.127 96.2886L167.528 95.6898L168.094 94.0694L168.693 94.668Z" fill="#DC8B00"/>
        <path d="M164.335 107.146L163.769 108.766L163.17 108.168L163.736 106.547L164.335 107.146Z" fill="#DC8B00"/>
        <path d="M165.917 95.9088L162.128 106.766L161.529 106.167L165.318 95.3102L165.917 95.9088Z" fill="#DC8B00"/>
        <path d="M167.53 95.693L168.096 94.0725L161.921 93.002L161.355 94.6225L163.69 95.0275L159.899 105.884L157.563 105.479L156.997 107.1L163.172 108.17L163.738 106.55L161.53 106.167L165.32 95.3099L167.53 95.693Z" fill="#FFD03E"/>
        <path d="M179.888 106.086C178.913 104.3 179.652 99.8433 176.332 99.3359C173.014 98.8285 167.799 98.0367 167.2 98.5609C166.601 99.085 164.931 100.396 166.394 101.992C169.854 102.391 170.894 102.508 171.179 103.321C170.581 104.565 167.882 108.19 172.016 109.287C171.861 111.78 177.423 111.585 177.423 111.585L179.888 106.086Z" fill="#F0CCC0"/>
        <path d="M167.528 95.6904L167.641 95.369L167.187 95.6311L167.528 95.6904ZM150.766 105.112C151.053 106.131 151.457 107.076 151.964 107.935L153.833 106.855C153.31 106.01 152.906 105.064 152.644 104.027L150.766 105.112ZM175.043 91.095L173.161 92.1818C173.755 92.9785 174.239 93.8787 174.582 94.8758L176.439 93.8041C176.083 92.818 175.612 91.912 175.043 91.095ZM161.354 94.6199L162.859 94.881L165.148 93.5591L161.92 92.9994L161.354 94.6199ZM174.68 83.4056C154.442 89.1292 150.009 95.6451 150.291 102.137L152.313 100.97C152.406 97.6503 153.909 94.3903 156.35 91.9974C157.756 90.6185 159.472 89.5276 161.404 88.8791C164.972 87.681 168.492 88.2633 171.083 90.133L173.113 88.9605C170.015 86.3199 165.531 85.4061 160.99 86.9305M161.003 102.716L163.169 101.465L164.706 97.0635L162.541 98.3136L161.003 102.716Z" fill="#FFE36E"/>
        <path d="M205.533 100.735C214.628 100.034 209.212 87.8515 201.477 87.1814C208.127 83.6984 187.917 80.4909 187.28 70.2822C186.633 59.9063 184.159 54.3482 177.704 52.515C171.203 50.6684 165.901 52.7377 164.589 56.2153C162.863 65.991 165.868 68.7103 169.792 69.4079C173.319 70.0345 174.744 72.8496 173.647 75.543C172.684 77.9075 168.348 88.413 187.418 100.034C210.498 111.587 209.749 104.081 205.533 100.735Z" fill="#424242"/>
        <path class="secondary-base" d="M174.881 90.4794C177.191 88.7897 182.779 87.5928 186.511 87.0563C193.031 86.1189 196.088 77.3947 195.602 75.3933C196.293 76.8412 197.048 78.4599 197.071 78.8018C197.239 81.2239 194.477 89.0673 188.041 89.725C181.028 90.4418 177.345 93.4484 177.345 93.4484L174.881 90.4794Z" fill="var(--secondary-30)"/>
        <path class="secondary-base" d="M257.223 176.674C257.589 175.941 259.971 173.621 259.971 173.621C261.253 174.598 263.451 179.36 259.36 183.207C259.971 181.07 258.658 178.109 257.223 176.674Z" fill="var(--secondary-30)"/>
        <path class="secondary-base" d="M88.6828 46.5326C88.5971 45.718 89.3553 42.4811 89.3553 42.4811C90.9617 42.6143 95.3773 45.4447 94 50.8883C93.3642 48.7587 90.6643 46.9696 88.6828 46.5326Z" fill="var(--secondary-30)"/>
        <path d="M108.552 94.6131C107.071 93.534 103.173 91.7744 104.628 87.8916C103.713 87.9349 101.17 87.5834 101.17 87.5834C99.8699 89.9011 98.9499 94.9584 104.955 98.6652C106.361 97.1739 108.552 94.6131 108.552 94.6131Z" fill="#ED9F00"/>
        <path class="secondary-base" d="M260.533 72.3673C260.808 70.673 260.854 66.0024 265.525 65.682C265.387 65.1782 264.303 64.0941 264.303 64.0941C261.495 64.2166 257.694 65.682 257.74 71.3599C258.885 71.9094 260.533 72.3673 260.533 72.3673Z" fill="var(--secondary-30)"/>
        <path class="secondary-base" d="M71.3847 141.919C70.7436 142.56 69.0495 145.17 64.1956 146.269C64.7908 147.643 66.943 151.123 66.943 151.123C68.3167 150.528 72.7125 145.628 73.3537 143.934C72.7125 143.166 71.3847 141.919 71.3847 141.919Z" fill="var(--secondary-30)"/>
        <path d="M290.159 126.064C289.265 125.913 286.156 126.045 282.447 122.727C281.673 124.008 280.084 127.779 280.084 127.779C281.366 128.553 287.906 129.296 289.658 128.837C289.913 127.869 290.159 126.064 290.159 126.064Z" fill="#FCBA06"/>
        <path class="secondary-base" d="M167.398 13.026C168.13 12.2476 170.797 9.51071 171.519 5.65365C173.259 5.97422 174.679 7.02736 174.129 8.81327C173.611 10.4976 172.389 13.3466 172.389 13.3466C171.221 13.232 169.962 13.6213 167.398 13.026Z" fill="var(--secondary-30)"/>
        <path d="M274.329 268.787L276.509 268.543C276.563 269.581 276.441 271.901 280.318 273.336C279.128 274.343 276.183 275.625 276.183 275.625C275.037 274.343 274.329 271.351 274.329 268.787Z" fill="#FCBA06"/>
        <path class="secondary-base" d="M232.817 128.741L231.758 127.682C231.992 127.448 232.262 127.191 232.548 126.919C232.963 126.524 233.415 126.095 233.799 125.692C233.744 125.662 233.691 125.634 233.642 125.608C232.709 125.109 231.431 124.426 231.765 123.264C231.953 122.612 232.589 122.048 233.468 121.322C233.47 121.32 233.474 121.317 233.477 121.315C232.861 120.699 231.931 119.769 231.759 119.599C231.615 119.455 231.535 119.259 231.539 119.056C231.542 118.853 231.627 118.66 231.776 118.521C232.282 118.048 232.789 117.529 233.28 117.028C233.356 116.95 233.433 116.872 233.51 116.793C233.489 116.774 233.469 116.755 233.449 116.736C233.028 116.336 232.592 115.921 232.201 115.464C231.308 114.42 231.945 113.722 232.41 113.213L232.463 113.155C232.68 112.917 232.932 112.722 233.154 112.55C233.274 112.457 233.441 112.328 233.536 112.234C233.519 112.213 233.496 112.19 233.468 112.162C233.076 111.785 232.691 111.395 232.319 111.018C232.132 110.829 231.946 110.641 231.758 110.453C231.466 110.161 231.466 109.687 231.758 109.395L234.044 107.108L235.103 108.167L233.344 109.926C233.357 109.939 233.37 109.953 233.384 109.966C233.75 110.337 234.128 110.72 234.506 111.084C234.91 111.472 235.103 111.886 235.08 112.312C235.044 112.98 234.526 113.381 234.07 113.734C233.888 113.875 233.699 114.021 233.57 114.163L233.515 114.223C233.446 114.299 233.367 114.385 233.308 114.455C233.318 114.466 233.328 114.478 233.339 114.492C233.679 114.889 234.068 115.259 234.481 115.651C234.691 115.851 234.9 116.05 235.103 116.252C235.243 116.392 235.322 116.583 235.322 116.782C235.322 116.98 235.243 117.171 235.103 117.311C234.851 117.562 234.601 117.818 234.35 118.075C234.026 118.407 233.694 118.746 233.357 119.078C233.563 119.284 233.804 119.525 234.04 119.76C235.322 121.043 235.322 121.043 235.32 121.36C235.319 121.557 235.24 121.746 235.101 121.885C234.923 122.062 234.679 122.264 234.421 122.477C234.088 122.751 233.431 123.294 233.245 123.593C233.44 123.802 234.043 124.124 234.348 124.287C234.812 124.536 235.213 124.75 235.472 125.018C235.733 125.287 235.753 125.708 235.52 126.002C235.02 126.635 234.255 127.362 233.58 128.004C233.301 128.269 233.038 128.52 232.817 128.741Z" fill="var(--secondary-30)"/>
        <path class="secondary-base" d="M107.935 222.8L106.877 221.741C107.08 221.538 107.298 221.339 107.508 221.146C107.904 220.784 108.314 220.409 108.603 220.026C108.623 219.999 108.637 219.978 108.646 219.962C108.563 219.848 108.308 219.652 108.15 219.53C107.839 219.291 107.487 219.02 107.247 218.658C106.481 217.499 107.441 216.58 107.902 216.139C107.963 216.081 108.023 216.023 108.081 215.966C108.142 215.905 108.221 215.834 108.31 215.756C108.402 215.676 108.57 215.528 108.664 215.419C108.621 215.377 108.567 215.328 108.525 215.29C108.455 215.227 108.384 215.163 108.317 215.096C108.228 215.007 108.117 214.909 108 214.806C107.717 214.556 107.397 214.273 107.173 213.93C106.788 213.34 106.664 212.811 106.792 212.314C106.988 211.558 107.684 211.189 108.298 210.865C108.623 210.693 108.959 210.515 109.163 210.312L110.222 211.37C109.859 211.733 109.402 211.975 108.998 212.188C108.749 212.32 108.286 212.565 108.242 212.689C108.242 212.69 108.23 212.81 108.427 213.112C108.54 213.286 108.769 213.488 108.991 213.684C109.12 213.798 109.254 213.916 109.376 214.038C109.424 214.086 109.475 214.131 109.525 214.176C109.798 214.421 110.253 214.831 110.202 215.513C110.156 216.129 109.639 216.582 109.297 216.882C109.236 216.935 109.181 216.983 109.14 217.024C109.074 217.089 109.006 217.155 108.937 217.221C108.779 217.372 108.484 217.654 108.461 217.771C108.463 217.771 108.47 217.793 108.496 217.832C108.598 217.986 108.834 218.168 109.063 218.344C109.571 218.735 110.761 219.651 109.798 220.927C109.426 221.421 108.965 221.842 108.519 222.25C108.312 222.441 108.116 222.62 107.935 222.8Z" fill="var(--secondary-30)"/>
        <path d="M232.489 25.2495L226.853 23.0107C226.412 22.8353 225.912 22.9081 225.539 23.2024L220.782 26.9632C220.409 27.2578 220.222 27.7283 220.291 28.1972L221.17 34.1983C221.239 34.6675 221.552 35.0642 221.993 35.239L227.629 37.479C228.069 37.6539 228.57 37.581 228.942 37.287L233.7 33.5256C234.072 33.2319 234.259 32.7617 234.19 32.2922L233.312 26.2909C233.244 25.8216 232.929 25.4252 232.489 25.2495Z" fill="#FFD03E"/>
        <path class="secondary-dark_1" d="M305.778 195.777L312.326 205.061C313.035 206.067 314.566 205.928 315.082 204.81L319.85 194.498C320.366 193.381 319.48 192.123 318.254 192.235L306.938 193.264C305.713 193.375 305.069 194.771 305.778 195.777Z" fill="var(--secondary-20)"/>
        <path d="M31.0989 235.455L34.6486 244.29C35.0324 245.247 36.3093 245.429 36.9453 244.617L42.8216 237.125C43.4584 236.313 42.9777 235.118 41.9569 234.972L32.5305 233.63C31.5087 233.484 30.7137 234.499 31.0989 235.455Z" fill="#FCBA06"/>
        </svg>
