<svg width="350" height="330" viewBox="0 0 350 330" fill="none" xmlns="http://www.w3.org/2000/svg">
        <rect width="350" height="330" fill="white"/>
        <path d="M341.33 264.968C341.33 255.4 265.871 247.64 172.789 247.64C79.7084 247.64 4.25098 255.4 4.25098 264.968C4.25098 274.541 79.7084 282.298 172.789 282.298C265.871 282.298 341.33 274.541 341.33 264.968Z" fill="#EEEEEE"/>
        <path d="M246.329 303.597C246.329 300.103 225.256 297.269 199.262 297.269C173.268 297.269 152.196 300.103 152.196 303.597C152.196 307.093 173.268 309.926 199.262 309.926C225.256 309.926 246.329 307.093 246.329 303.597Z" fill="#EEEEEE"/>
        <path class="primary-30" d="M21.1097 42.3677L172.79 52.5985V257.901H21.1097V42.3677Z" fill="var(--primary-30)"/>
        <path class="primary-20" d="M324.472 42.3677L172.791 52.5985V257.901H324.472V42.3677Z" fill="var(--primary-20)"/>
        <path class="primary-80" d="M172.788 250.454C149.477 256.814 54.8015 262.336 27.1555 262.336V34.1844C55.4925 34.1844 147.906 42.186 172.788 49.4506V250.454Z" fill="var(--primary-80)"/>
        <path class="primary-80" d="M172.789 250.454C196.1 256.814 290.775 262.336 318.421 262.336V34.1844C290.085 34.1844 197.671 42.186 172.789 49.4506V250.454Z" fill="var(--primary-80)"/>
        <path d="M172.789 257.905C150.933 264.725 62.1634 268.818 36.2416 268.818V26.0016C62.8115 26.0016 149.46 41.6627 172.789 49.4525V257.905Z" fill="#F8F8F8"/>
        <path d="M172.789 257.905C194.645 264.725 283.416 268.818 309.337 268.818V26.0016C282.767 26.0016 196.119 41.6627 172.789 49.4525V257.905Z" fill="#EEEEEE"/>
        <path class="primary-20" d="M29.428 40.7545L14.5951 59.0943L29.428 80.1375C31.9699 80.1375 32.7644 80.1729 36.2423 80.2389V40.9424C32.7644 40.8199 31.9699 40.7545 29.428 40.7545Z" fill="var(--primary-20)"/>
        <path class="primary-30" d="M316.153 158.086C313.611 158.086 312.817 158.05 309.339 157.984V197.281C312.817 197.403 313.611 197.468 316.153 197.468L330.986 179.129L316.153 158.086Z" fill="var(--primary-30)"/>
        <path class="primary-30" d="M318.421 217.903V251.258L330.984 235.725L318.421 217.903Z" fill="var(--primary-30)"/>
        <path d="M71.3976 178.32C73.1834 176.942 74.3827 174.846 74.5451 172.5C74.5469 172.5 74.5477 172.5 74.5495 172.5C74.5501 172.462 74.5501 172.443 74.5503 172.404C74.5611 172.235 74.5616 170.285 74.5606 170.114C74.5309 165.838 71.0682 162.356 66.8249 162.411C62.5837 162.465 59.1539 166.051 59.1633 170.423C59.1649 171.401 59.1659 171.89 59.1678 172.866C59.1804 172.866 59.1867 172.866 59.1996 172.865C59.3853 175.264 60.6185 177.346 62.4332 178.619C55.8435 179.72 50.2898 185.053 51.6244 192.126C54.7382 192.124 67.0033 191.756 67.0033 191.756C67.0033 191.756 79.0687 190.923 82.0406 190.596C83.2331 183.791 77.8596 178.784 71.3976 178.32Z" fill="#EBE6E2"/>
        <path d="M95.8747 175.739C112.875 175.51 130.441 175.209 144.937 174.842V172.215C130.456 172.582 112.885 172.884 95.8747 173.112V175.739Z" fill="#EBE6E2"/>
        <path d="M104.515 182.58C115.757 182.371 126.976 182.122 137.144 181.837V179.211C126.984 179.496 115.762 179.744 104.515 179.954V182.58Z" fill="#EBE6E2"/>
        <path d="M71.4548 237.677C73.1904 236.26 74.3324 234.144 74.4378 231.812C74.4396 231.813 74.4407 231.813 74.4425 231.813C74.4417 231.774 74.4415 231.755 74.4409 231.717C74.4475 231.549 74.401 229.614 74.3955 229.444C74.2628 225.198 70.6693 221.825 66.5111 221.979C62.3551 222.133 59.0844 225.756 59.1559 230.106C59.1716 231.079 59.1793 231.565 59.195 232.536C59.2076 232.536 59.2139 232.535 59.2268 232.535C59.4454 234.918 60.7088 236.966 62.5466 238.193C55.9919 239.432 50.2792 244.774 51.6401 251.887C54.8974 251.799 67.4312 251.159 67.4312 251.159C67.4312 251.159 79.2769 249.955 82.0544 249.473C83.624 239.5 74.313 237.65 71.4548 237.677Z" fill="#EBE6E2"/>
        <path d="M95.8747 233.373C112.864 232.657 130.425 231.714 144.937 230.563V227.939C130.472 229.091 112.895 230.035 95.8747 230.75V233.373Z" fill="#EBE6E2"/>
        <path d="M104.515 240.68C115.752 240.111 126.97 239.437 137.144 238.662V236.041C126.99 236.815 115.767 237.49 104.515 238.059V240.68Z" fill="#EBE6E2"/>
        <path class="secondary-30" d="M71.4028 118.203C73.1882 117.007 74.3863 115.088 74.5478 112.805C74.5494 112.806 74.5505 112.806 74.5523 112.806C74.5526 112.768 74.5528 112.75 74.5531 112.712C74.5636 112.547 74.5636 110.633 74.5623 110.464C74.5308 106.256 71.067 102.364 66.8235 102.093C62.5823 101.821 59.153 105.269 59.1629 109.616C59.1648 110.589 59.1658 111.074 59.1677 112.044C59.1805 112.044 59.1868 112.044 59.1995 112.044C59.3857 114.435 60.6195 116.546 62.4354 117.894C55.7838 118.681 50.2923 124.064 51.623 131.088C54.7368 131.09 67.0124 131.183 67.0124 131.183C67.0124 131.183 79.0759 131.398 82.0397 131.48C83.1337 124.656 77.859 119.269 71.4028 118.203Z" fill="var(--secondary-30)"/>
        <path class="secondary-40" d="M95.8747 116.104C112.873 116.91 130.406 117.856 144.937 118.752V116.121C130.388 115.225 112.861 114.28 95.8747 113.475V116.104Z" fill="var(--secondary-40)"/>
        <path class="secondary-40" d="M104.515 123.144C115.754 123.587 126.964 124.067 137.144 124.542V121.913C126.959 121.438 115.75 120.959 104.515 120.516V123.144Z" fill="var(--secondary-40)"/>
        <path d="M71.0077 60.7138C72.8003 59.6256 74.0708 57.7799 74.303 55.505C74.3049 55.5055 74.3059 55.5058 74.3078 55.5066C74.3091 55.4687 74.3099 55.4498 74.3114 55.412C74.3272 55.2478 74.3861 53.3328 74.3903 53.1644C74.488 48.9558 71.1861 44.9245 66.988 44.4553C62.792 43.9866 59.3049 47.2047 59.2718 51.5226C59.2641 52.4886 59.2605 52.971 59.2526 53.9349C59.2652 53.9357 59.2715 53.9363 59.2838 53.937C59.4436 56.3223 60.6306 58.4851 62.3546 59.9188C55.7886 60.3806 50.2711 65.5931 51.6372 72.5033C54.8719 72.6446 66.4029 73.3527 66.4029 73.3527C66.4029 73.3527 78.4262 74.453 81.9977 74.8625C83.0599 67.9332 77.3985 62.2518 71.0077 60.7138Z" fill="#EBE6E2"/>
        <path d="M95.8747 57.493V60.1321C112.883 62.3235 130.421 64.8953 144.937 67.3302V64.6733C130.373 62.2396 112.851 59.6762 95.8747 57.493Z" fill="#EBE6E2"/>
        <path d="M104.515 65.9471V68.5856C115.759 69.9757 126.971 71.4816 137.144 72.9694V70.3217C126.953 68.8354 115.746 67.3332 104.515 65.9471Z" fill="#EBE6E2"/>
        <path class="primary-20" d="M214.126 138.741C225.027 150.579 225.505 168.45 225.507 170.452C225.509 173.045 216.023 187.161 216.023 187.161L214.126 138.741Z" fill="var(--primary-20)"/>
        <path d="M183.944 295.605V293.821H179.07C179.007 295.484 178.698 296.374 178.511 297.064C179.778 297.55 181.633 296.294 183.944 295.605Z" fill="#F8D8D0"/>
        <path d="M183.945 295.604C181.633 296.294 179.778 297.549 178.512 297.063C177.842 297.549 167.959 301.104 166.953 301.793C165.923 302.498 166.074 303.59 167.163 303.59C168.756 303.59 181.879 303.013 181.879 303.013C182.145 303.302 182.361 303.59 182.361 303.59H185.36C186.254 302.04 186.012 297.387 183.945 295.604Z" fill="#424242"/>
        <path d="M232.214 295.614C231.899 294.679 231.654 293.829 231.654 293.829L226.676 293.875C226.902 295.116 226.968 296.382 226.782 297.072C228.048 297.558 229.902 296.302 232.214 295.614Z" fill="#F8D8D0"/>
        <path d="M232.212 295.61C229.901 296.299 228.047 297.555 226.78 297.069C226.11 297.555 216.226 301.11 215.22 301.798C214.192 302.503 214.342 303.596 215.432 303.596C217.025 303.596 230.148 303.018 230.148 303.018C230.414 303.307 230.63 303.596 230.63 303.596H233.628C234.523 302.045 234.281 297.392 232.212 295.61Z" fill="#424242"/>
        <path d="M222.613 194.565C226.153 202.827 225.052 209.908 224.501 215.927C225.714 223.126 231.652 293.827 231.652 293.827C229.882 293.827 226.674 293.873 226.674 293.873C226.674 293.873 215.559 249.884 213.437 242.795C211.162 235.19 201.649 205.626 202.121 193.68C209.022 194.317 222.613 194.565 222.613 194.565Z" fill="#F8D8D0"/>
        <path d="M190.986 193.325C187.917 200.464 170.696 240.291 170.319 244.571C169.94 248.851 179.072 293.821 179.072 293.821H183.945C185.997 275.123 183.124 248.765 181.333 244.366C188.382 236.055 207.972 219.799 211.049 215.688C215.873 209.243 216.614 201.708 215.667 195.121C210.946 193.962 190.986 193.325 190.986 193.325Z" fill="#F8D8D0"/>
        <path d="M198.329 136.876C199.962 135.146 201.884 131.327 201.346 129.96C200.806 128.594 196.799 128.622 196.284 126.633C195.589 123.952 195.794 119.09 196.884 115.278C198.48 109.705 201.092 106.311 207.241 108.188C212.123 109.677 214.821 114.163 213.862 119.333C212.792 125.102 208.508 130.219 208.43 132.29C208.352 134.362 209.679 135.372 209.679 135.372L198.329 136.876Z" fill="#F8D8D0"/>
        <path class="primary-30" d="M190.936 156.46C193.026 161.686 196.479 164.494 196.546 173.875C196.633 186.148 186.48 203.826 170.082 228.454C196.226 242.281 224.735 241.399 235.022 235.228C223.069 213.086 226.889 207.562 223.181 193.996C221.143 186.541 217.596 182.618 217.268 174.939C216.889 166.076 219.61 146.99 214.128 138.74C210.098 132.677 202.205 133.316 197.609 137.375C192.82 141.606 190.936 156.46 190.936 156.46Z" fill="var(--primary-30)"/>
        <path class="primary-40" d="M235.02 235.228C223.067 213.087 226.887 207.562 223.179 193.996C221.141 186.542 217.594 182.619 217.266 174.94C216.892 166.19 219.533 147.487 214.328 139.072C216.083 142.264 209.891 138.827 214.74 155.727C216.87 163.148 215.426 167.581 212.83 178.799C210.643 188.248 207.568 190.712 217.092 205.102C223.704 215.095 223.115 230.081 216.221 239.461C224.401 239.188 231.063 237.602 235.02 235.228Z" fill="var(--primary-40)"/>
        <path class="primary-20" d="M198.169 174.853C197.543 178.687 195.497 187.04 191.63 192.097C191.629 192.095 191.629 192.094 191.629 192.093C194.843 185.014 196.58 178.977 196.544 173.876C196.477 164.495 193.025 161.687 190.935 156.461C190.935 156.461 191.128 154.938 191.547 152.732C193.965 152.087 196.495 152.829 196.135 156.308C195.431 163.116 198.796 171.019 198.169 174.853Z" fill="var(--primary-20)"/>
        <path d="M198.56 118.091C199.188 119.265 200.178 120.108 201.823 120.96C204.388 122.288 204.052 126.975 202.192 129.215C200.112 131.722 196.612 135.994 206.285 145.99C216.97 157.033 202.327 166.065 212.569 172.613C216.679 175.241 219.633 174.364 222.101 172.512C207.681 169.141 217.592 159.257 216.01 150.763C214.429 142.268 206.819 140.436 204.282 135.615C202.504 132.234 206.765 130.136 206.768 125.809C206.771 122.03 204.702 119.92 201.42 118.176C198.372 116.556 198.553 112.087 199.222 110.155C197.562 114.31 197.785 116.64 198.56 118.091Z" fill="#424242"/>
        <path d="M212.221 110.954C217.177 116.211 214.937 123.045 212.768 125.912C211.218 127.964 211.499 131.287 218.62 136.895C226.516 143.114 243.677 144.431 249.422 150.546C247.062 161.472 238.363 168.147 232.121 166.053C228.383 164.798 225.782 169.74 222.099 172.505C207.679 169.133 217.59 159.25 216.009 150.756C214.428 142.261 206.818 140.428 204.281 135.607C202.503 132.226 206.763 130.129 206.767 125.802C206.77 122.022 204.701 119.913 201.419 118.168C198.371 116.549 198.552 112.08 199.22 110.148C199.388 109.728 199.568 109.296 199.776 108.838C202.118 106.475 207.265 105.697 212.221 110.954Z" fill="#424242"/>
        <path class="primary-30" d="M161.943 114.12C161.943 114.12 171.502 133.399 174.107 135.447C176.178 137.076 190.937 140.408 198.586 136.666C200.857 135.554 200.054 151.481 191.707 151.922C191.707 151.922 171.906 147.065 168.95 145.248C165.994 143.431 156.946 116.328 156.946 116.328L161.943 114.12Z" fill="var(--primary-30)"/>
        <path d="M161.483 114.325C160.979 112.994 161.164 109.429 160.35 107.508C159.537 105.586 154.951 99.5594 153.85 99.9495C152.849 100.304 156.27 104.274 156.477 105.292C155.55 105.872 152.246 108.178 153.262 110.019C154.278 111.861 154.974 113.146 156.052 113.783C156.93 114.3 157.477 116.094 157.477 116.094L161.483 114.325Z" fill="#F8D8D0"/>
        </svg>