<svg width="350" height="330" viewBox="0 0 350 330" fill="none" xmlns="http://www.w3.org/2000/svg">
        <rect width="350" height="330" fill="white"/>
        <path d="M340.374 305.589C340.374 301.494 313.238 298.175 279.765 298.175C246.292 298.175 219.157 301.494 219.157 305.589C219.157 309.684 246.292 313.002 279.765 313.002C313.238 313.002 340.374 309.684 340.374 305.589Z" fill="#EEEEEE"/>
        <path d="M279.484 149.675C304.297 114.586 299.857 77.3369 275.046 42.2478H125.013C151.039 68.2212 153.878 108.481 129.452 149.675C107.381 186.899 110.996 241.655 135.807 276.744H285.84C261.028 241.655 254.673 184.764 279.484 149.675Z" fill="#EEEEEE"/>
        <path d="M285.839 149.675C310.65 114.586 310.65 57.6955 285.839 22.6065H135.807C160.618 57.6955 160.618 114.586 135.807 149.675C110.995 184.764 110.995 241.655 135.807 276.744H285.839C261.027 241.655 261.027 184.764 285.839 149.675Z" fill="#F8F8F8"/>
        <path d="M262.228 180.69C262.451 179.875 262.684 179.063 262.924 178.255H131.492C131.251 179.063 131.018 179.875 130.795 180.69H262.228Z" fill="#EEEEEE"/>
        <path d="M139.889 158.027C139.446 158.831 139.014 159.643 138.593 160.462H270.026C270.447 159.643 270.878 158.831 271.322 158.027H139.889Z" fill="#EEEEEE"/>
        <path d="M259.934 190.799C260.082 189.985 260.238 189.174 260.402 188.365H128.969C128.805 189.174 128.649 189.985 128.502 190.799H259.934Z" fill="#EEEEEE"/>
        <path d="M134.094 170.572H265.526C265.839 169.755 266.159 168.943 266.49 168.138H135.057C134.726 168.943 134.406 169.755 134.094 170.572Z" fill="#EEEEEE"/>
        <path d="M258.053 218.709H126.621C126.655 219.521 126.698 220.332 126.748 221.143H258.181C258.13 220.332 258.088 219.521 258.053 218.709Z" fill="#EEEEEE"/>
        <path d="M145.946 148.456C145.668 148.864 145.391 149.272 145.106 149.674C144.822 150.076 144.545 150.483 144.267 150.891H275.7C275.978 150.483 276.255 150.076 276.539 149.674C276.823 149.272 277.101 148.864 277.378 148.456H145.946Z" fill="#EEEEEE"/>
        <path d="M127.357 198.481C127.262 199.291 127.177 200.103 127.098 200.916H258.531C258.609 200.103 258.695 199.291 258.79 198.481H127.357Z" fill="#EEEEEE"/>
        <path d="M126.584 208.595C126.554 209.406 126.531 210.217 126.517 211.029H257.949C257.963 210.217 257.988 209.406 258.016 208.595H126.584Z" fill="#EEEEEE"/>
        <path d="M156.535 127.682C156.234 128.499 155.923 129.31 155.603 130.117H287.035C287.356 129.31 287.666 128.499 287.968 127.682H156.535Z" fill="#EEEEEE"/>
        <path d="M163.706 87.2323C163.7 88.0443 163.685 88.8559 163.663 89.6671H295.096C295.118 88.8559 295.133 88.0443 295.139 87.2323H163.706Z" fill="#EEEEEE"/>
        <path d="M151.764 138.607C151.347 139.426 150.923 140.239 150.483 141.042H281.916C282.356 140.239 282.78 139.426 283.197 138.607H151.764Z" fill="#EEEEEE"/>
        <path d="M163.221 97.3421C163.149 98.1549 163.068 98.9661 162.98 99.7769H294.413C294.501 98.9661 294.582 98.1549 294.653 97.3421H163.221Z" fill="#EEEEEE"/>
        <path d="M163.394 77.1167C163.451 77.9275 163.503 78.7391 163.545 79.5513H294.978C294.936 78.7391 294.884 77.9275 294.827 77.1167H163.394Z" fill="#EEEEEE"/>
        <path d="M162.612 69.4396H294.045C293.936 68.6261 293.822 67.8145 293.698 67.0047H162.265C162.389 67.8145 162.504 68.6261 162.612 69.4396Z" fill="#EEEEEE"/>
        <path d="M161.936 107.314C161.797 108.128 161.651 108.94 161.496 109.749H292.929C293.084 108.94 293.23 108.128 293.369 107.314H161.936Z" fill="#EEEEEE"/>
        <path d="M159.717 117.572C159.502 118.387 159.281 119.199 159.049 120.007H290.482C290.714 119.199 290.935 118.387 291.15 117.572H159.717Z" fill="#EEEEEE"/>
        <path d="M106.028 184.193L94.8958 172.646C92.4792 169.783 88.8471 168.153 84.8869 168.153H55.2178C49.6526 168.153 44.7464 172.572 44.2596 178.022L32.1345 305.586H230.503L240.466 194.062C240.952 188.612 236.836 184.193 231.271 184.193H106.028Z" fill="#ED9F00"/>
        <path d="M70.7068 181.641L58.3453 169.792C55.1577 166.87 51.0864 165.205 47.1262 165.205H17.4571C11.8917 165.205 8.17583 169.717 9.15718 175.282L32.1332 305.586H230.502L210.424 191.717C209.443 186.153 204.136 181.641 198.571 181.641H70.7068Z" fill="#FCBA06"/>
        <path d="M250.048 110.775C251.989 106.384 243.816 100.273 241.502 97.9899C238.401 94.9305 226.759 76.7697 226.759 76.7697C222.085 87.7555 224.378 108.956 235.368 113.854C234.144 116.088 233.775 118.789 234.558 121.423C236.114 126.656 241.618 129.636 246.85 128.08C252.083 126.524 255.063 121.021 253.507 115.789C252.89 113.711 251.646 111.998 250.048 110.775Z" fill="#424242"/>
        <path d="M220.471 178.287C219.382 179.392 217.318 178.418 215.7 180.496C213.067 183.875 208.714 184.821 209.826 185.27C212.792 186.468 216.048 184.199 216.048 184.199H223.558L224.335 183.45L220.471 178.287Z" fill="#F8D8D0"/>
        <path class="primary-30" d="M261.063 109.559C260.542 105.091 254.177 101.627 250.14 103.561C246.104 105.495 241.514 109.752 241.555 119.408C241.665 144.607 236.871 158.099 220.47 178.285C220.47 178.285 223.933 182.14 225.432 184.036C261.053 152.039 262.811 124.534 261.063 109.559Z" fill="var(--primary-30)"/>
        <path class="primary-20" d="M250.141 103.56C247.116 105.01 243.781 107.764 242.316 113.118C241.927 114.876 241.763 116.946 241.555 119.967C241.562 124.813 241.381 129.225 240.968 133.337C242.354 140.147 249.825 141.679 254.03 147.974C261.9 131.854 262.106 118.481 261.064 109.558C260.543 105.09 254.178 101.626 250.141 103.56Z" fill="var(--primary-20)"/>
        <path class="primary-20" d="M224.908 184.195C223.82 182.756 220.101 177.849 219.765 177.518C220.772 176.119 222.711 173.996 223.368 173.403C224.483 174.502 230.167 180.694 230.163 180.961C229.683 181.407 226.955 183.351 225.763 184.195H224.908Z" fill="var(--primary-20)"/>
        <path d="M245.755 179.683C244.863 180.686 244.838 181.56 242.452 182.171C240.066 182.783 239.112 182.689 238.011 183.013C236.909 183.337 233.509 183.998 233.73 184.514C233.95 185.031 237.966 184.645 237.974 185.066C237.98 185.487 229.61 191.535 231.435 192.468C233.259 193.4 238.508 194.255 242.683 191.186C245.474 189.133 246.981 185.955 248.917 184.915C250.043 182.14 248.34 180.131 245.755 179.683Z" fill="#F7D3C9"/>
        <path class="primary-10" d="M267.166 166.282C264.226 178.423 259.239 200.332 258.345 223.65C257.392 248.533 260.634 275.021 260.634 292.957H266.799C268.588 288.507 278.238 253.424 279.51 228.92C291.769 203.774 296.919 170.701 296.919 153.485C292.238 153.485 267.166 166.282 267.166 166.282Z" fill="var(--primary-10)"/>
        <path d="M266.8 295.209V292.953H260.635C260.555 295.056 260.164 296.183 259.929 297.055C261.531 297.672 263.876 296.081 266.8 295.209Z" fill="#F0CCC0"/>
        <path d="M266.798 295.209C263.874 296.081 261.529 297.672 259.927 297.055C259.077 297.672 246.574 302.169 245.301 303.038C243.999 303.931 244.189 305.313 245.568 305.313C247.584 305.313 264.186 304.582 264.186 304.582C264.523 304.947 264.796 305.313 264.796 305.313H268.59C269.722 303.352 269.415 297.465 266.798 295.209Z" fill="#20196F"/>
        <path d="M312.133 295.209V292.953H305.967C305.888 295.056 305.497 296.183 305.261 297.055C306.864 297.672 309.209 296.081 312.133 295.209Z" fill="#F0CCC0"/>
        <path d="M312.133 295.209C309.209 296.081 306.864 297.672 305.261 297.055C304.412 297.672 291.909 302.169 290.636 303.038C289.335 303.931 289.525 305.313 290.904 305.313C292.918 305.313 309.522 304.582 309.522 304.582C309.857 304.947 310.13 305.313 310.13 305.313H313.925C315.056 303.352 314.75 297.465 312.133 295.209Z" fill="#20196F"/>
        <path class="primary-10" d="M270.932 165.189C273.272 181.575 302.506 284.352 305.969 292.966H312.134C312.134 272.898 310.899 237.245 309.687 206.611C308.8 184.207 315.937 171.755 299.719 149.891C299.719 149.891 275.614 165.189 270.932 165.189Z" fill="var(--primary-10)"/>
        <path class="primary-40" d="M301.771 152.774C293.926 163.367 267.168 166.276 267.168 166.276C268.615 134.195 246.664 145.773 244.935 129.794C243.524 116.751 242.315 113.915 243.827 109.172C248.102 95.7638 254.251 95.2229 265.866 99.4686C281.18 105.066 295.989 137.612 301.771 152.774Z" fill="var(--primary-40)"/>
        <path class="primary-20" d="M261.673 106.288C258.492 109.436 255.547 114.961 258.746 124.071C261.991 133.313 263.852 141.074 264.027 148.348C266.222 152.047 267.564 157.541 267.17 166.276C267.17 166.276 269.616 166.049 273.234 165.435C285.713 140.557 278.989 118.81 273.957 108.381C272.002 104.33 264.853 103.139 261.673 106.288Z" fill="var(--primary-20)"/>
        <path class="primary-30" d="M273.952 108.551C272.345 104.349 265.322 102.56 261.888 105.429C258.453 108.298 255.052 113.555 257.473 122.903C263.788 147.298 261.851 161.179 244.85 180.862C244.85 180.862 247.955 185.044 249.395 186.984C285.965 156.076 279.336 122.633 273.952 108.551Z" fill="var(--primary-30)"/>
        <path class="primary-20" d="M249.392 187.306C249.392 187.306 244.549 180.475 244.166 180.074C245.215 178.708 247.218 176.644 247.892 176.07C248.974 177.203 254.468 183.563 254.456 183.83C253.821 184.385 249.392 187.306 249.392 187.306Z" fill="var(--primary-20)"/>
        <path d="M255.055 99.287L255.063 99.2845C251.703 95.5772 250.728 91.16 250.548 87.9979C250.548 87.9979 250.661 80.0199 246.801 74.632C241.875 67.7558 229.653 73.6171 227.596 77.3992C225.179 82.6002 227.049 86.6633 229.478 92.0812C229.478 92.0812 230.611 97.9004 230.78 98.2273C231.025 98.7046 232.371 97.7227 232.578 97.8964C232.786 98.0691 234.196 101.098 235.814 101.702C237.432 102.306 239.944 100.176 241.111 100.15C242.926 100.109 245.284 100.462 245.379 105.068C244.89 112.208 252.465 108.002 255.055 99.287Z" fill="#F7D3C9"/>
        <path d="M287.549 94.295C287.625 92.6703 287.277 91.0056 286.429 89.479C284.363 85.7511 280.059 84.06 276.124 85.1309C276.058 85.1476 275.832 85.2042 275.788 85.218C275.786 85.2182 275.784 85.2195 275.784 85.2197C270.894 86.7465 259.918 86.3612 254.092 79.078C247.37 70.6737 242.064 67.3361 235.486 69.5689C228.861 71.8175 225.561 76.6976 226.487 80.4326C230.764 89.7767 234.923 90.3274 238.676 88.6149C242.051 87.0751 244.92 88.6357 245.568 91.5756C246.138 94.1569 249.703 97.5253 252.225 99.2873C251.003 103.535 253.189 112.53 259.895 114.443C264.434 115.738 269.058 114.068 271.612 110.267C271.841 110.91 272.109 111.545 272.45 112.162C275.803 118.208 283.422 120.392 289.47 117.039C295.516 113.686 297.7 106.067 294.346 100.021C292.8 97.2298 290.34 95.2745 287.549 94.295Z" fill="#424242"/>
        </svg>