<svg width="277" height="65" viewBox="0 0 277 65" fill="none" xmlns="http://www.w3.org/2000/svg">
<g clip-path="url(#clip0_214_217)">
<path d="M82.1177 23.6611H87.0959V37.2873H95.7989V41.6609H82.1177V23.6611Z" fill="#585B78"/>
<path d="M102.82 23.6611H117.274V27.9041H107.751V30.6289H116.375V34.5609H107.751V37.4143H117.403V41.6606H102.82V23.6611Z" fill="#585B78"/>
<path d="M125.547 23.6611H130.809L135.098 30.6289L139.384 23.6611H144.644V41.6609H139.691V31.3253L135.096 38.3691H134.993L130.422 31.3791V41.6629H125.547V23.6611Z" fill="#585B78"/>
<path d="M166.695 32.714V32.6617C166.695 30.0666 164.82 27.7992 162.075 27.7992C159.354 27.7992 157.533 30.0134 157.533 32.6095V32.6617C157.533 35.2585 159.407 37.5224 162.124 37.5224C164.871 37.522 166.695 35.3117 166.695 32.714ZM152.422 32.714V32.6617C152.422 27.4925 156.582 23.3037 162.125 23.3037C167.669 23.3037 171.772 27.4431 171.772 32.6095V32.6617C171.772 37.8284 167.617 42.0195 162.074 42.0195C156.53 42.0195 152.421 37.8797 152.421 32.714H152.422Z" fill="#585B78"/>
<path d="M179.568 23.6611H184.216L191.609 33.1769V23.6611H196.539V41.6609H192.172L184.5 31.7852V41.6612H179.568V23.6611Z" fill="#585B78"/>
<path d="M203.499 23.6607H208.76L211.892 34.0734L215.354 23.6113H219.645L223.11 34.0734L226.243 23.6607H231.403L225.398 41.7888H221.058L217.437 31.4277L213.842 41.7888H209.505L203.499 23.6607Z" fill="#585B78"/>
<path d="M247.372 34.5616L245.371 29.4462L243.345 34.5616H247.372ZM243.01 23.5361H247.81L255.458 41.6613H250.12L248.81 38.4518H241.883L240.6 41.6613H235.36L243.01 23.5361Z" fill="#585B78"/>
<path d="M265.161 34.9225L258.332 23.6611H264.003L267.702 30.2173L271.426 23.6611H276.999L270.168 34.8444V41.6609H265.161V34.9225Z" fill="#585B78"/>
<path d="M53.3528 33.1131C53.243 33.3584 53.1263 33.6328 53.0175 33.9238C52.5017 35.0103 52.231 36.1973 52.2246 37.4005C52.2181 37.6383 52.2191 37.8819 52.2246 38.1246C52.4011 39.2103 52.3803 40.319 52.163 41.3972C52.1056 41.6655 52.0328 41.9303 51.945 42.1902C51.7104 43.1375 51.1396 43.9666 50.3393 44.5225C49.539 45.0784 48.564 45.323 47.5967 45.2106C51.1922 42.4091 50.1712 37.2849 50.1712 37.2849C50.0852 38.8818 49.645 40.4395 48.8826 41.8444C48.1203 43.2494 47.055 44.4663 45.7643 45.4066C45.7506 45.389 45.7419 45.368 45.7392 45.3458C40.9266 32.8021 25.6385 31.2389 25.6385 31.2389C38.7523 35.9845 43.0595 43.7581 44.4243 47.5722C44.3972 47.6094 44.3656 47.6476 44.3366 47.6862C42.0427 50.4126 39.3399 52.1166 35.6502 52.2865C33.1439 52.4224 30.6324 52.1423 28.2172 51.4575C27.5957 51.2569 26.9858 51.0224 26.39 50.7549C18.5505 47.2272 11.9785 37.1911 13.6916 15.797C13.6916 15.797 14.8377 17.0473 16.635 18.6263C17.2349 19.1505 17.9059 19.7143 18.6287 20.2807C21.287 22.7722 24.3819 24.4031 27.7473 25.5378C28.4163 25.7645 29.1019 25.9716 29.7961 26.161C33.0084 26.6088 36.1145 27.6306 38.9667 29.1778C39.6758 29.5705 40.3613 30.0045 41.0198 30.4775C43.0881 31.7595 44.7282 33.6304 45.7304 35.8513C47.2546 34.2351 49.8496 32.7943 53.9713 31.8801C53.9713 31.8801 53.6829 32.3733 53.3528 33.1131ZM32.3002 2.26092e-06C25.9179 0.00516952 19.6804 1.90682 14.3762 5.46456C9.07202 9.0223 4.9393 14.0764 2.50048 19.9879C0.0616526 25.8995 -0.573783 32.403 0.6745 38.6765C1.92278 44.9499 4.99874 50.7116 9.51353 55.2331C14.0283 59.7547 19.7792 62.8331 26.0393 64.0792C32.2993 65.3252 38.7874 64.6831 44.6834 62.2339C50.5793 59.7847 55.6185 55.6384 59.1638 50.3191C62.709 44.9998 64.6013 38.7464 64.6013 32.3494C64.5976 23.7664 61.1924 15.5364 55.1348 9.4698C49.0772 3.40317 40.8634 -0.00320368 32.3002 2.26092e-06Z" fill="#57ED7D"/>
</g>
<defs>
<clipPath id="clip0_214_217">
<rect width="277" height="65" fill="white"/>
</clipPath>
</defs>
</svg>
