<svg width="124" height="27" viewBox="0 0 124 27" fill="none" xmlns="http://www.w3.org/2000/svg">
<g clip-path="url(#clip0_3_888)">
<path d="M43.934 12.0356V19.985H39.875V12.8126C39.875 11.9758 39.629 11.7367 39.26 11.7367C38.8295 11.7367 38.3375 12.0954 37.907 12.8126V19.985H33.848V5.04249L37.907 4.6241V10.2425C38.8295 9.28617 39.752 8.86778 40.982 8.86778C42.827 8.80801 43.934 10.0034 43.934 12.0356ZM55.742 15.7413H49.1615C49.4075 17.2954 50.1455 17.5344 51.3755 17.5344C52.175 17.5344 52.913 17.2356 53.8355 16.5781L55.496 18.7896C54.266 19.8057 52.6055 20.4034 51.0065 20.4034C47.009 20.4034 45.1025 17.9528 45.1025 14.6655C45.1025 11.4977 46.9475 8.86778 50.576 8.86778C53.774 8.86778 55.9265 10.9 55.9265 14.4862C55.865 14.785 55.8035 15.323 55.742 15.7413ZM51.8675 13.3505C51.8675 12.2747 51.6215 11.3781 50.576 11.3781C49.715 11.3781 49.2845 11.8563 49.1 13.5298H51.8675V13.3505ZM56.849 16.877V4.98272L60.908 4.56433V16.6977C60.908 17.0563 61.0925 17.2356 61.4 17.2356C61.523 17.2356 61.7075 17.2356 61.8305 17.1161L62.5685 19.9253C61.8305 20.1643 61.0925 20.2839 60.3545 20.2839C58.079 20.4034 56.849 19.0885 56.849 16.877ZM62.999 16.877V4.98272L67.058 4.56433V16.6977C67.058 17.0563 67.2425 17.2356 67.55 17.2356C67.673 17.2356 67.8575 17.2356 67.9805 17.1161L68.7185 19.9253C67.9805 20.1643 67.2425 20.2839 66.5045 20.2839C64.229 20.4034 62.999 19.0885 62.999 16.877ZM79.7885 14.6057C79.7885 18.1321 77.636 20.3436 74.1305 20.3436C70.6865 20.3436 68.4725 18.3115 68.4725 14.5459C68.4725 11.0195 70.625 8.80801 74.1305 8.80801C77.5745 8.80801 79.7885 10.9 79.7885 14.6057ZM72.716 14.6057C72.716 16.7574 73.1465 17.5344 74.192 17.5344C75.176 17.5344 75.668 16.6977 75.668 14.6057C75.668 12.454 75.2375 11.677 74.192 11.677C73.1465 11.677 72.6545 12.5735 72.716 14.6057ZM91.1045 17.7735L90.305 20.3436C88.8905 20.2241 87.968 19.8655 87.353 18.8494C86.5535 20.0448 85.3235 20.4034 84.032 20.4034C81.818 20.4034 80.4035 18.9689 80.4035 16.9965C80.4035 14.6057 82.2485 13.2908 85.6925 13.2908H86.492V12.9919C86.492 11.9161 86.123 11.6172 84.893 11.6172C83.909 11.677 82.9865 11.8563 82.064 12.1551L81.203 9.64479C82.556 9.10686 84.032 8.80801 85.508 8.80801C89.0135 8.80801 90.428 10.123 90.428 12.7528V16.4586C90.428 17.2356 90.6125 17.5942 91.1045 17.7735ZM86.492 16.9367V15.323H86.0615C84.893 15.323 84.401 15.6816 84.401 16.5184C84.401 17.1161 84.77 17.5344 85.3235 17.5344C85.754 17.5942 86.246 17.3551 86.492 16.9367ZM100.822 10.2425L99.407 12.3942C98.6075 11.9161 97.7465 11.6172 96.824 11.6172C96.1475 11.6172 95.9015 11.7965 95.9015 12.0954C95.9015 12.454 96.0245 12.6333 98.1155 13.231C100.207 13.8885 101.314 14.7253 101.314 16.6977C101.314 18.9092 99.161 20.4034 96.1475 20.4034C94.241 20.4034 92.4575 19.7459 91.3505 18.6701L93.257 16.5781C94.0565 17.1758 95.0405 17.654 96.0245 17.654C96.7625 17.654 97.193 17.4149 97.193 16.9965C97.193 16.4586 96.947 16.339 95.102 15.8011C93.0725 15.2034 91.904 14.0678 91.904 12.3344C91.904 10.4218 93.626 8.86778 96.6395 8.86778C98.2385 8.80801 99.8375 9.34594 100.822 10.2425ZM110.969 10.2425L109.555 12.3942C108.755 11.9161 107.894 11.6172 106.972 11.6172C106.295 11.6172 106.049 11.7965 106.049 12.0954C106.049 12.454 106.172 12.6333 108.263 13.231C110.354 13.8885 111.461 14.7253 111.461 16.6977C111.461 18.9092 109.309 20.4034 106.295 20.4034C104.389 20.4034 102.605 19.7459 101.498 18.6701L103.405 16.5781C104.204 17.1758 105.188 17.654 106.172 17.654C106.91 17.654 107.341 17.4149 107.341 16.9965C107.341 16.4586 107.095 16.339 105.25 15.8011C103.22 15.2034 102.052 14.0678 102.052 12.3344C102.052 10.4218 103.774 8.86778 106.787 8.86778C108.386 8.80801 109.924 9.34594 110.969 10.2425ZM123.208 14.6057C123.208 18.1321 121.055 20.3436 117.55 20.3436C114.106 20.3436 111.892 18.3115 111.892 14.5459C111.892 11.0195 114.044 8.80801 117.55 8.80801C120.994 8.80801 123.208 10.9 123.208 14.6057ZM116.135 14.6057C116.135 16.7574 116.566 17.5344 117.611 17.5344C118.595 17.5344 119.087 16.6977 119.087 14.6057C119.087 12.454 118.657 11.677 117.611 11.677C116.566 11.677 116.074 12.5735 116.135 14.6057Z" fill="#2E2F5E"/>
<path d="M8.141 21.3597C4.082 16.8172 6.788 5.34133 8.51 5.34133C5.189 5.22179 -0.469002 7.37351 0.330498 15.0839C1.253 22.2563 7.895 27.277 15.152 26.3804C17.489 26.0816 19.6415 25.185 21.4865 23.8103C15.0905 28.2931 10.7855 24.2885 8.141 21.3597Z" fill="url(#paint0_linear_3_888)"/>
<path d="M23.0855 13.5897C19.703 20.2242 9.30949 23.0334 8.14099 21.3001C10.1705 24.2288 15.2135 28.2334 21.548 23.6909C27.329 19.3276 28.3745 11.1391 23.885 5.46097C22.4705 3.66787 20.564 2.29316 18.4115 1.39661C25.607 4.56442 24.869 10.123 23.0855 13.5897Z" fill="url(#paint1_linear_3_888)"/>
<path d="M8.50966 5.34142C15.8282 4.56441 24.1307 11.9161 23.0852 13.6495C25.1147 10.1828 25.6067 4.62418 18.4727 1.45636C11.6462 -1.23329 3.89716 1.9943 1.19116 8.68855C0.330159 10.7805 0.0226591 13.0518 0.330159 15.2633C-0.161841 7.61269 5.80366 5.5805 8.50966 5.34142Z" fill="url(#paint2_linear_3_888)"/>
</g>
<defs>
<linearGradient id="paint0_linear_3_888" x1="2.86553" y1="7.12547" x2="14.6177" y2="27.8314" gradientUnits="userSpaceOnUse">
<stop stop-color="#498A63"/>
<stop offset="0.25" stop-color="#61B984"/>
</linearGradient>
<linearGradient id="paint1_linear_3_888" x1="12.4392" y1="25.071" x2="24.6151" y2="4.99289" gradientUnits="userSpaceOnUse">
<stop stop-color="#89356D"/>
<stop offset="0.21" stop-color="#B94794"/>
</linearGradient>
<linearGradient id="paint2_linear_3_888" x1="2.20099" y1="5.85186" x2="23.2442" y2="13.6448" gradientUnits="userSpaceOnUse">
<stop offset="0.6" stop-color="#F59C1C"/>
<stop offset="1" stop-color="#C7702B"/>
</linearGradient>
<clipPath id="clip0_3_888">
<rect width="123" height="26" fill="white" transform="translate(0.20752 0.5)"/>
</clipPath>
</defs>
</svg>
