<svg width="40" height="40" viewBox="0 0 40 40" fill="none" xmlns="http://www.w3.org/2000/svg">
<path d="M28.2398 22.0796C28.2398 19.7996 23.9998 18.5996 19.9998 18.5996C15.9998 18.5996 11.7598 19.8396 11.7598 22.0796V29.2396C11.7598 29.8396 12.0798 30.7196 13.6398 31.4796C15.1998 32.2396 17.5198 32.7196 20.0398 32.7196C22.5598 32.7196 24.8798 32.2796 26.4398 31.4796C27.9598 30.7196 28.3198 29.8396 28.3198 29.2396V25.6796C28.3198 25.6796 28.3198 25.6796 28.3198 25.6396L28.2398 22.0796ZM27.2398 25.6796C27.2398 26.1196 26.7598 26.5996 25.9598 26.9996C24.5598 27.7196 22.3598 28.1196 20.0398 28.1196C17.7198 28.1196 15.5198 27.7196 14.1198 26.9996C13.2798 26.5996 12.8398 26.1196 12.8398 25.6796V23.8396C14.3198 24.9596 17.1198 25.5196 19.8398 25.5596C19.9198 25.5996 19.9998 25.6396 20.0798 25.6396C20.1598 25.6396 20.2398 25.5996 20.3198 25.5596C23.0398 25.5196 25.8398 24.9196 27.2798 23.8396V25.6796H27.2398ZM19.9998 19.6396C24.1198 19.6396 27.1998 20.9196 27.2398 22.0796C27.1998 23.2396 24.1198 24.5196 20.0398 24.5196C15.9198 24.5196 12.8398 23.2396 12.7998 22.0796C12.7998 20.9196 15.8798 19.6396 19.9998 19.6396ZM25.9198 30.5996C24.5198 31.2796 22.3198 31.7196 19.9998 31.7196C17.6798 31.7196 15.4398 31.3196 14.0798 30.5996C13.2398 30.1996 12.7998 29.7196 12.7998 29.2796V27.4396C13.0398 27.5996 13.2798 27.7996 13.6398 27.9596C15.1998 28.7596 17.5198 29.1996 20.0398 29.1996C22.5598 29.1996 24.8798 28.7596 26.4398 27.9596C26.7598 27.7996 27.0398 27.5996 27.2798 27.4396V29.2796C27.2398 29.6796 26.7598 30.1596 25.9198 30.5996Z" fill="currentColor"/>
<path d="M36 21.5203V17.9603V17.9203V10.7603C36 8.48027 31.76 7.28027 27.76 7.28027C24.6 7.28027 21.28 8.04027 20 9.48027C18.76 8.04027 15.44 7.28027 12.24 7.28027C8.24 7.28027 4 8.52027 4 10.7603V10.8003V25.1203C4 25.7203 4.32 26.6003 5.88 27.3603C6.96 27.9203 8.48 28.2803 10.16 28.4803H10.2C10.48 28.4803 10.68 28.2803 10.72 28.0003C10.76 27.7203 10.56 27.4803 10.28 27.4403C8.72 27.2803 7.32 26.9203 6.36 26.4403C5.52 26.0003 5.08 25.5603 5.08 25.1203V23.2803C5.32 23.4403 5.56 23.6403 5.92 23.8003C7 24.3603 8.52 24.7603 10.2 24.9203H10.24C10.48 24.9203 10.72 24.7203 10.76 24.4803C10.8 24.2003 10.6 23.9603 10.32 23.9203C8.76 23.7603 7.36 23.4003 6.4 22.8803C5.56 22.4803 5.12 22.0003 5.12 21.5603V19.7203C5.36 19.8803 5.6 20.0803 5.96 20.2403C7.08 20.8003 8.68 21.2003 10.48 21.3603H10.52C10.8 21.3603 11 21.1603 11.04 20.8803C11.08 20.6003 10.84 20.3603 10.56 20.3203C8.88 20.1603 7.4 19.8003 6.4 19.2803C5.56 18.8803 5.12 18.4003 5.12 17.9603V16.1203C5.36 16.2803 5.6 16.4803 5.96 16.6403C7.52 17.4403 9.84 17.8803 12.36 17.8803C14.88 17.8803 17.2 17.4403 18.76 16.6403C19.08 16.4803 19.36 16.2803 19.6 16.1203V17.0803C19.6 17.3603 19.84 17.6003 20.12 17.6003C20.4 17.6003 20.64 17.3603 20.64 17.0803V16.1203C20.88 16.2803 21.12 16.4803 21.48 16.6403C23.04 17.4403 25.36 17.8803 27.88 17.8803C30.4 17.8803 32.72 17.4403 34.28 16.6403C34.6 16.4803 34.88 16.2803 35.12 16.1203V18.0003C35.12 18.4403 34.64 18.9203 33.84 19.3203C32.84 19.8403 31.36 20.2003 29.68 20.3603C29.4 20.4003 29.2 20.6403 29.2 20.9203C29.24 21.2003 29.44 21.4003 29.72 21.4003H29.76C31.56 21.2403 33.12 20.8403 34.28 20.2803C34.6 20.1203 34.88 19.9203 35.12 19.7603V21.6403C35.12 22.0803 34.64 22.5603 33.84 22.9603C32.88 23.4403 31.48 23.8003 29.92 24.0003C29.64 24.0403 29.44 24.2803 29.48 24.5603C29.52 24.8403 29.72 25.0403 30 25.0403H30.04C31.72 24.8803 33.24 24.4803 34.32 23.9203C34.64 23.7603 34.92 23.6003 35.16 23.4003V25.2403C35.16 25.6803 34.68 26.1603 33.88 26.5603C32.92 27.0403 31.52 27.4003 29.96 27.5603C29.68 27.6003 29.48 27.8403 29.52 28.1203C29.56 28.4003 29.76 28.6003 30.04 28.6003H30.08C31.76 28.4403 33.28 28.0403 34.36 27.4803C35.92 26.6803 36.24 25.8403 36.24 25.2403L36 21.5203ZM27.76 8.28027C31.88 8.28027 34.96 9.56027 35 10.7203C35 11.8803 31.92 13.1603 27.76 13.1603C23.68 13.1603 20.6 11.8803 20.56 10.7603V10.7203C20.56 9.56027 23.64 8.28027 27.76 8.28027ZM12.24 8.28027C16.36 8.28027 19.48 9.56027 19.48 10.7203C19.48 11.8803 16.4 13.2003 12.24 13.2003C8.12 13.2003 5.04 11.9203 5 10.7603V10.7203C5.04 9.60027 8.12 8.28027 12.24 8.28027ZM18.2 15.6803C16.8 16.4003 14.6 16.8003 12.28 16.8003C9.96 16.8003 7.76 16.4003 6.36 15.6803C5.52 15.2803 5.08 14.8003 5.08 14.3603V12.5203C6.6 13.6403 9.52 14.2403 12.32 14.2403C15.12 14.2403 18.04 13.6403 19.56 12.5203V14.3203V14.3603C19.48 14.7603 19 15.2403 18.2 15.6803ZM33.68 15.6803C32.28 16.4003 30.08 16.8003 27.76 16.8003C25.44 16.8003 23.24 16.4003 21.84 15.6803C21.04 15.2803 20.56 14.8003 20.56 14.3603V12.5203C22.08 13.6403 25 14.2403 27.76 14.2403C30.56 14.2403 33.48 13.6403 35 12.5203V14.3603C34.96 14.7603 34.48 15.2403 33.68 15.6803Z" fill="currentColor"/>
</svg>
