<svg width="40" height="40" viewBox="0 0 40 40" fill="none" xmlns="http://www.w3.org/2000/svg">
<path d="M14.7519 10.2C17.5458 17.0303 23.061 22.5575 29.8792 25.3636C30.1822 25.4909 30.5095 25.5515 30.8367 25.5515C31.2004 25.5515 31.564 25.4727 31.8974 25.3212C32.5337 25.0242 33.0186 24.4787 33.2367 23.8121L33.2852 23.6606C33.3822 23.3636 33.3822 23.3636 33.6974 21.9272L34.0671 20.2303C34.261 19.3515 33.8246 18.4666 33.0125 18.0787L30.261 16.7757C29.4489 16.3878 28.4852 16.6121 27.9277 17.3212L26.3822 19.2666C24.2489 17.7394 22.3943 15.8848 20.8671 13.7515L22.8125 12.206C23.5155 11.6484 23.7398 10.6909 23.358 9.87269L22.0549 7.12117C21.6671 6.30299 20.7822 5.87269 19.9034 6.06663L16.5519 6.79996C15.8246 6.95753 15.2064 7.43026 14.8549 8.09693C14.5095 8.75147 14.4731 9.51511 14.7519 10.2ZM15.9277 8.6545C16.1095 8.30905 16.4307 8.06663 16.8125 7.98178L20.164 7.24844C20.2186 7.23632 20.267 7.23026 20.3216 7.23026C20.5943 7.23026 20.8428 7.38178 20.964 7.63632L22.2671 10.3878C22.4064 10.6909 22.3277 11.0424 22.0671 11.2484L19.9822 12.903C19.558 13.2424 19.4671 13.8484 19.7822 14.2909C21.4489 16.6484 23.4852 18.6909 25.8428 20.3515C26.2852 20.6666 26.8974 20.5757 27.2367 20.1515L28.8913 18.0666C29.0974 17.806 29.4549 17.7212 29.7519 17.8666L32.5034 19.1697C32.8064 19.3151 32.964 19.6424 32.8974 19.9636L32.5277 21.6606C32.2186 23.0303 32.2186 23.0303 32.1398 23.2727L32.0852 23.4363C31.9701 23.7878 31.7277 24.0666 31.3943 24.2181C31.061 24.3697 30.6913 24.3818 30.3458 24.2424C23.8186 21.5575 18.5458 16.2727 15.8731 9.73935C15.7337 9.38784 15.7519 8.9939 15.9277 8.6545Z" fill="currentColor"/>
<path d="M37.9037 0.606445H4.33402V6.69129H2.09766V7.90342H4.33402V15.158H2.09766V16.3701H4.33402V23.6246H2.09766V24.8367H4.33402V32.0913H2.09766V33.3034H4.33402V39.3943H37.9037V0.606445ZM5.54614 33.3095H6.7522C6.97038 33.7277 7.40675 34.0186 7.91584 34.0186C8.64311 34.0186 9.23099 33.4307 9.23099 32.7034C9.23099 31.9761 8.64311 31.3883 7.91584 31.3883C7.41281 31.3883 6.97644 31.6792 6.7522 32.0974H5.54614V24.8428H6.7522C6.97038 25.261 7.40675 25.5519 7.91584 25.5519C8.64311 25.5519 9.23099 24.964 9.23099 24.2368C9.23099 23.5095 8.64311 22.9216 7.91584 22.9216C7.41281 22.9216 6.97644 23.2125 6.7522 23.6307H5.54614V16.3701H6.7522C6.97038 16.7883 7.40675 17.0792 7.91584 17.0792C8.64311 17.0792 9.23099 16.4913 9.23099 15.764C9.23099 15.0367 8.64311 14.4489 7.91584 14.4489C7.41281 14.4489 6.97644 14.7398 6.7522 15.158H5.54614V7.90342H6.7522C6.97038 8.3216 7.40675 8.61251 7.91584 8.61251C8.64311 8.61251 9.23099 8.02463 9.23099 7.29735C9.23099 6.57008 8.64311 5.9822 7.91584 5.9822C7.41281 5.9822 6.97644 6.27311 6.7522 6.69129H5.54614V1.81857H10.7825V38.1822H5.54614V33.3095ZM36.6916 38.1822H11.9946V1.81857H36.6916V38.1822Z" fill="currentColor"/>
<path d="M16.9707 29.9336H31.704V31.1457H16.9707V29.9336Z" fill="currentColor"/>
<path d="M25.1523 33.1094H31.9584V34.3215H25.1523V33.1094Z" fill="currentColor"/>
</svg>
