<svg width="40" height="40" viewBox="0 0 40 40" fill="none" xmlns="http://www.w3.org/2000/svg">
<path d="M5 11.25H21.25V12.5H5V11.25Z" fill="currentColor"/>
<path d="M5 15H21.25V16.25H5V15Z" fill="currentColor"/>
<path d="M5 18.75H21.25V20H5V18.75Z" fill="currentColor"/>
<path d="M5 22.5H21.25V23.75H5V22.5Z" fill="currentColor"/>
<path d="M5 26.25H21.25V27.5H5V26.25Z" fill="currentColor"/>
<path d="M37.8375 7.13125L25 4.1625V3.125C24.9985 2.62818 24.8005 2.15212 24.4492 1.80081C24.0979 1.4495 23.6218 1.25148 23.125 1.25H8.125C7.9593 1.25123 7.80043 1.31613 7.68125 1.43125L1.43125 7.68125C1.31613 7.80043 1.25123 7.95931 1.25 8.125V31.875C1.25148 32.3718 1.4495 32.8479 1.80081 33.1992C2.15212 33.5505 2.62818 33.7485 3.125 33.75H8.68125L30.5312 38.7938C30.5782 38.8061 30.6265 38.8124 30.675 38.8125C30.7921 38.8133 30.907 38.7808 31.0063 38.7188C31.1456 38.6283 31.2443 38.487 31.2812 38.325L38.3063 7.875C38.325 7.79535 38.3277 7.71278 38.3141 7.63209C38.3006 7.55139 38.2712 7.47419 38.2276 7.40498C38.184 7.33576 38.127 7.27591 38.0601 7.22892C37.9931 7.18193 37.9174 7.14873 37.8375 7.13125ZM7.5 3.38125V6.875C7.5 7.04076 7.43415 7.19973 7.31694 7.31694C7.19973 7.43415 7.04076 7.5 6.875 7.5H3.38125L7.5 3.38125ZM3.125 32.5C2.95924 32.5 2.80027 32.4342 2.68306 32.3169C2.56585 32.1997 2.5 32.0408 2.5 31.875V8.75H6.875C7.37182 8.74852 7.84788 8.5505 8.19919 8.19919C8.5505 7.84788 8.74852 7.37183 8.75 6.875V2.5H23.125C23.2908 2.5 23.4497 2.56585 23.5669 2.68306C23.6842 2.80027 23.75 2.95924 23.75 3.125V31.875C23.75 32.0408 23.6842 32.1997 23.5669 32.3169C23.4497 32.4342 23.2908 32.5 23.125 32.5H3.125ZM30.2063 37.4375L14.2375 33.75H23.125C23.6218 33.7485 24.0979 33.5505 24.4492 33.1992C24.8005 32.8479 24.9985 32.3718 25 31.875V31.1063L28.8937 32L29.175 30.7875L25 29.8188V27.2563L29.7375 28.3438L30.0125 27.1313L25 25.9688V23.4125L30.5813 24.6938L30.8562 23.4813L25 22.125V19.5563L31.4188 21.0375L31.7062 19.825L25 18.2688V15.7125L32.2688 17.3813L32.5437 16.1688L25 14.425V11.8625L33.1125 13.7313L33.3938 12.5188L25 10.5813V5.45L36.95 8.20625L30.2063 37.4375Z" fill="currentColor"/>
<path d="M20 6.875H21.25V8.125H20V6.875Z" fill="currentColor"/>
<path d="M17.5 6.875H18.75V8.125H17.5V6.875Z" fill="currentColor"/>
<path d="M15 6.875H16.25V8.125H15V6.875Z" fill="currentColor"/>
</svg>
