<svg width="350" height="330" viewBox="0 0 350 330" fill="none" xmlns="http://www.w3.org/2000/svg">
        <rect width="350" height="330" fill="white"/>
        <path d="M205.064 314.997C205.064 310.576 235.307 306.992 272.612 306.992C309.918 306.992 340.16 310.576 340.16 314.997C340.16 319.418 309.918 323.002 272.612 323.002C235.307 323.002 205.064 319.418 205.064 314.997Z" fill="#EEEEEE"/>
        <path d="M11.2206 289.574C11.2206 285.154 69.9831 281.57 142.467 281.57C214.953 281.57 273.713 285.154 273.713 289.574C273.713 293.996 214.953 297.58 142.467 297.58C69.9831 297.58 11.2206 293.996 11.2206 289.574Z" fill="#EEEEEE"/>
        <path d="M34.6244 12.0007C24.5858 12.0007 15.5138 23.6202 27.6409 72.2325C35.0608 101.975 21.094 128.973 8 142.067H34.6244H53.8287V38.6248C53.8287 17.0201 47.7182 12.0007 34.6244 12.0007Z" fill="#EEEEEE"/>
        <path d="M225.992 258.179C225.071 251.622 224.762 244.558 224.762 236.363V142.069V38.6275C224.762 17.0226 218.651 12.0031 205.557 12.0031H34.6251C47.7191 12.0031 53.8294 17.0226 53.8294 38.6275V142.069V236.363C53.8294 244.558 54.1391 251.622 55.0601 258.179C56.5919 269.085 59.8155 278.592 66.1234 289.576H237.056C230.748 278.592 227.524 269.085 225.992 258.179Z" fill="#F8F8F8"/>
        <g opacity="0.3">
        <path d="M113.579 51.6467C113.579 50.5043 114.505 49.5784 115.647 49.5784C116.79 49.5784 117.715 50.5043 117.715 51.6467C117.715 52.7891 116.79 53.715 115.647 53.715C114.505 53.715 113.579 52.7891 113.579 51.6467Z" fill="#424242"/>
        <path d="M125.953 51.6467C125.953 50.5043 126.879 49.5784 128.022 49.5784C129.164 49.5784 130.09 50.5043 130.09 51.6467C130.09 52.7891 129.164 53.715 128.022 53.715C126.879 53.715 125.953 52.7891 125.953 51.6467Z" fill="#424242"/>
        <path d="M138.33 51.6467C138.33 50.5043 139.256 49.5784 140.398 49.5784C141.541 49.5784 142.467 50.5043 142.467 51.6467C142.467 52.7891 141.541 53.715 140.398 53.715C139.256 53.715 138.33 52.7891 138.33 51.6467Z" fill="#424242"/>
        <path d="M150.704 51.6467C150.704 50.5043 151.63 49.5784 152.773 49.5784C153.915 49.5784 154.841 50.5043 154.841 51.6467C154.841 52.7891 153.915 53.715 152.773 53.715C151.63 53.715 150.704 52.7891 150.704 51.6467Z" fill="#424242"/>
        <path d="M163.081 51.6467C163.081 50.5043 164.007 49.5784 165.149 49.5784C166.292 49.5784 167.218 50.5043 167.218 51.6467C167.218 52.7891 166.292 53.715 165.149 53.715C164.007 53.715 163.081 52.7891 163.081 51.6467Z" fill="#424242"/>
        <path d="M93.0795 86.3296H76.5877V69.8378H93.0795V86.3296Z" stroke="#858585" stroke-width="6.66667" stroke-miterlimit="10" stroke-linecap="round" stroke-linejoin="round"/>
        <path d="M200.071 75.3445H105.906C105.533 75.3445 105.231 75.0423 105.231 74.6695C105.231 74.2966 105.533 73.9944 105.906 73.9944H200.071C200.444 73.9944 200.746 74.2966 200.746 74.6695C200.746 75.0423 200.444 75.3445 200.071 75.3445Z" fill="#424242"/>
        <path d="M174.758 82.1754H105.906C105.533 82.1754 105.231 81.8733 105.231 81.5004C105.231 81.1275 105.533 80.8254 105.906 80.8254H174.758C175.131 80.8254 175.433 81.1275 175.433 81.5004C175.433 81.8733 175.131 82.1754 174.758 82.1754Z" fill="#424242"/>
        <path d="M93.0795 116.221H76.5877V99.7288H93.0795V116.221Z" stroke="#858585" stroke-width="6.66667" stroke-miterlimit="10" stroke-linecap="round" stroke-linejoin="round"/>
        <path d="M200.071 105.232H169.374C169.001 105.232 168.699 104.929 168.699 104.556C168.699 104.184 169.001 103.881 169.374 103.881H200.071C200.444 103.881 200.746 104.184 200.746 104.556C200.746 104.929 200.444 105.232 200.071 105.232Z" fill="#858585"/>
        <path d="M160.514 105.232H105.906C105.533 105.232 105.231 104.929 105.231 104.556C105.231 104.184 105.533 103.881 105.906 103.881H160.514C160.887 103.881 161.189 104.184 161.189 104.556C161.189 104.929 160.887 105.232 160.514 105.232Z" fill="#858585"/>
        <path d="M150.705 112.065H105.906C105.533 112.065 105.231 111.762 105.231 111.39C105.231 111.017 105.533 110.715 105.906 110.715H150.705C151.078 110.715 151.38 111.017 151.38 111.39C151.38 111.762 151.078 112.065 150.705 112.065Z" fill="#858585"/>
        <path d="M93.0795 146.114H76.5877V129.622H93.0795V146.114Z" stroke="#858585" stroke-width="6.66667" stroke-miterlimit="10" stroke-linecap="round" stroke-linejoin="round"/>
        <path d="M200.071 135.131H135.838C135.465 135.131 135.163 134.829 135.163 134.456C135.163 134.084 135.465 133.781 135.838 133.781H200.071C200.443 133.781 200.746 134.084 200.746 134.456C200.746 134.829 200.443 135.131 200.071 135.131Z" fill="#424242"/>
        <path d="M122.713 135.131H105.906C105.533 135.131 105.231 134.829 105.231 134.456C105.231 134.084 105.533 133.781 105.906 133.781H122.713C123.086 133.781 123.388 134.084 123.388 134.456C123.388 134.829 123.086 135.131 122.713 135.131Z" fill="#424242"/>
        <path d="M174.758 141.958H105.906C105.533 141.958 105.231 141.656 105.231 141.283C105.231 140.91 105.533 140.608 105.906 140.608H174.758C175.131 140.608 175.433 140.91 175.433 141.283C175.433 141.656 175.131 141.958 174.758 141.958Z" fill="#424242"/>
        <path d="M93.0795 176.007H76.5877V159.515H93.0795V176.007Z" stroke="#858585" stroke-width="6.66667" stroke-miterlimit="10" stroke-linecap="round" stroke-linejoin="round"/>
        <path d="M200.071 165.021H105.906C105.533 165.021 105.231 164.718 105.231 164.346C105.231 163.973 105.533 163.671 105.906 163.671H200.071C200.444 163.671 200.746 163.973 200.746 164.346C200.746 164.718 200.444 165.021 200.071 165.021Z" fill="#424242"/>
        <path d="M174.757 171.854H154.841C154.468 171.854 154.166 171.551 154.166 171.179C154.166 170.806 154.468 170.504 154.841 170.504H174.757C175.13 170.504 175.432 170.806 175.432 171.179C175.432 171.551 175.13 171.854 174.757 171.854Z" fill="#424242"/>
        <path d="M146.114 171.854H105.906C105.533 171.854 105.231 171.551 105.231 171.179C105.231 170.806 105.533 170.504 105.906 170.504H146.114C146.487 170.504 146.789 170.806 146.789 171.179C146.789 171.551 146.487 171.854 146.114 171.854Z" fill="#424242"/>
        <path d="M93.0795 205.902H76.5877V189.41H93.0795V205.902Z" stroke="#858585" stroke-width="6.66667" stroke-miterlimit="10" stroke-linecap="round" stroke-linejoin="round"/>
        <path d="M200.07 194.912H105.905C105.532 194.912 105.23 194.61 105.23 194.237C105.23 193.864 105.532 193.562 105.905 193.562H200.07C200.443 193.562 200.745 193.864 200.745 194.237C200.745 194.61 200.443 194.912 200.07 194.912Z" fill="#858585"/>
        <path d="M174.758 201.743H105.906C105.533 201.743 105.231 201.441 105.231 201.068C105.231 200.695 105.533 200.393 105.906 200.393H174.758C175.131 200.393 175.433 200.695 175.433 201.068C175.433 201.441 175.131 201.743 174.758 201.743Z" fill="#858585"/>
        <path d="M93.0795 235.793H76.5877V219.301H93.0795V235.793Z" stroke="#858585" stroke-width="6.66667" stroke-miterlimit="10" stroke-linecap="round" stroke-linejoin="round"/>
        <path d="M188.865 228.223H105.906C105.533 228.223 105.231 227.921 105.231 227.548C105.231 227.175 105.533 226.873 105.906 226.873H188.865C189.238 226.873 189.54 227.175 189.54 227.548C189.54 227.921 189.238 228.223 188.865 228.223Z" fill="#858585"/>
        </g>
        <path d="M272.232 145.852C275.224 144.015 272.841 136.939 272.396 134.603C271.801 131.472 272.336 115.699 272.336 115.699C264.957 120.372 257.529 134.091 262.111 141.607C260.446 142.443 259.102 143.916 258.48 145.828C257.242 149.625 259.318 153.707 263.116 154.944C266.913 156.181 270.994 154.105 272.231 150.308C272.723 148.802 272.684 147.253 272.232 145.852Z" fill="#424242"/>
        <path class="primary-60" d="M227.275 155.62C228.761 162.548 241.564 179.07 247.395 174.643C252.952 170.426 236.8 160.05 230.261 155.88C228.488 154.75 227.275 155.62 227.275 155.62Z" fill="var(--primary-60)"/>
        <path class="primary-60" d="M249.392 162.798L253.687 171.177L264.77 160.338L260.572 151.7C255.425 157.524 249.392 162.798 249.392 162.798Z" fill="var(--primary-60)"/>
        <path class="primary-10" d="M264.77 160.339L260.573 151.701C262.594 149.68 269.235 141.608 270.916 141.361C272.849 143.223 279.015 150.038 264.77 160.339Z" fill="var(--primary-10)"/>
        <path class="primary-10" d="M262.015 313.37C262.727 313.37 263.613 314.159 263.725 314.996H265.023C265.023 314.996 266.296 312.844 265.625 310.078C265.201 308.334 264.754 308.752 264.301 309.206C263.268 310.045 259.057 310.321 258.726 308.906C257.639 309.069 246.447 312.289 246.447 313.324C246.447 315.002 247.762 314.996 248.657 314.996C259.244 314.996 257.843 314.346 262.015 313.37Z" fill="var(--primary-10)"/>
        <path d="M259.869 307.123C260.231 305.528 264.845 304.331 264.607 307.123C264.552 307.765 264.629 308.386 264.848 308.902H264.845C263.918 310.229 254.174 312.72 252.585 310.651C253.695 310.058 259.869 308.815 259.869 307.123Z" fill="#F7D3C9"/>
        <path class="primary-10" d="M297.777 313.37C298.489 313.37 299.374 314.159 299.488 314.996H300.785C300.785 314.996 302.058 312.844 301.387 310.078C300.964 308.334 300.516 308.752 300.063 309.206C299.031 310.045 294.819 310.321 294.489 308.906C293.401 309.069 282.209 312.289 282.209 313.324C282.209 315.002 283.524 314.996 284.42 314.996C295.007 314.996 293.605 314.346 297.777 313.37Z" fill="var(--primary-10)"/>
        <path d="M295.635 307.123C295.997 305.528 300.611 304.331 300.373 307.123C300.318 307.765 300.396 308.386 300.615 308.902H300.611C299.684 310.229 289.94 312.72 288.35 310.651C289.461 310.058 295.635 308.815 295.635 307.123Z" fill="#F7D3C9"/>
        <path class="primary-10" d="M263.447 189.774C252.833 208.266 259.705 278.48 259.705 307.028H264.771C269.649 283.536 277.553 213.546 285.25 189.774H263.447Z" fill="var(--primary-10)"/>
        <path class="primary-10" d="M289.328 189.774C302.473 209.106 300.509 278.368 300.509 306.916H295.443C292.597 299.839 271.386 203.239 269.463 189.774H289.328Z" fill="var(--primary-10)"/>
        <path class="primary-30" d="M289.328 189.776H263.446C268.17 166.427 255.64 162.753 259.774 155.279C264.077 147.498 267.493 145.828 271.993 140.023C276.067 140.725 279.121 144.096 286.932 140.203C289.814 138.766 294.192 142.771 294.192 150.647C294.624 162.388 286.133 170.684 289.328 189.776Z" fill="var(--primary-30)"/>
        <path d="M211.538 104.694L198.436 114.465L193.022 98.0689L197.367 94.8288L211.538 104.694Z" fill="white"/>
        <path class="secondary-20" d="M197.366 94.8231L193.022 98.0632L191.007 91.9631C190.792 91.3113 191.531 90.7605 192.094 91.1529L197.366 94.8231Z" fill="var(--secondary-20)"/>
        <path class="secondary-20" d="M289.34 235.637L295.337 243.679C296.007 244.578 297.28 244.763 298.18 244.093L307.341 237.261C308.24 236.59 308.426 235.317 307.755 234.417L301.758 226.376L289.34 235.637Z" fill="var(--secondary-20)"/>
        <path d="M286.854 233.018L288.997 235.892L302.099 226.122L299.955 223.247L286.854 233.018Z" fill="#F3F3F3"/>
        <path d="M284.709 230.145L286.853 233.02L299.954 223.249L297.811 220.374L284.709 230.145Z" fill="#EBE6E2"/>
        <path d="M282.566 227.27L284.71 230.145L297.811 220.374L295.667 217.499L282.566 227.27Z" fill="#F3F3F3"/>
        <path d="M280.422 224.395L282.566 227.27L295.667 217.499L293.523 214.624L280.422 224.395Z" fill="#EBE6E2"/>
        <path d="M278.278 221.52L280.422 224.395L293.524 214.624L291.379 211.749L278.278 221.52Z" fill="#F3F3F3"/>
        <path class="secondary-40" d="M204.985 109.578L284.828 216.636L291.379 211.751L211.536 104.692L207.576 103.473C206.261 103.069 204.934 104.059 204.946 105.434L204.985 109.578Z" fill="var(--secondary-40)"/>
        <path class="secondary-30" d="M198.435 114.461L278.278 221.52L284.828 216.634L204.986 109.576L201.026 108.357C199.712 107.952 198.384 108.943 198.397 110.318L198.435 114.461Z" fill="var(--secondary-30)"/>
        <path d="M224.825 154.762C223.69 152.211 224.019 148.133 225.162 148.087C226.305 148.039 226.26 151.973 226.26 151.973C226.541 151.382 226.912 148.535 228.101 149.867C229.042 150.922 227.421 153.685 227.421 153.685C227.835 153.22 228.445 151.322 229.366 152.4C230.286 153.478 230.427 157.36 230.427 157.36C229.276 157.714 226.565 158.669 224.825 154.762Z" fill="#F6D6CE"/>
        <path class="primary-60" d="M275.491 172.956C278.406 170.807 280.381 164.697 281.475 158.233C285.674 159.147 287.538 159.347 291.5 159.977C290.187 167.224 286.198 175.754 282.762 178.604C272.073 187.468 255.555 191.053 255.555 191.053C253.582 189.545 252.677 187.193 252.677 187.193C256.148 185.878 269.665 177.254 275.491 172.956Z" fill="var(--primary-60)"/>
        <path class="primary-40" d="M290.321 142.766C292.894 143.591 294.441 150.502 292.566 160.857C288.544 160.57 284.063 160.073 280.316 158.523C282.464 148.292 285.265 141.147 290.321 142.766Z" fill="var(--primary-40)"/>
        <path class="primary-60" d="M255.556 191.049C253.498 192.656 250.361 192.972 248.667 188.566C247.652 185.927 250.214 183.887 250.214 183.887C250.866 184.76 252.824 187.386 252.824 187.386L255.556 191.049Z" fill="var(--primary-60)"/>
        <path d="M280.016 141.008L280.021 141.009C279.538 137.381 280.786 134.316 281.992 132.338C281.992 132.338 285.375 127.58 285.289 122.732C285.179 116.544 275.385 114.996 272.575 116.419C268.958 118.546 268.396 121.77 267.608 126.042C267.608 126.042 265.872 130.017 265.837 130.284C265.787 130.673 267.005 130.641 267.059 130.832C267.112 131.022 266.702 133.432 267.425 134.468C268.15 135.504 270.547 135.265 271.26 135.734C272.37 136.464 273.643 137.656 271.787 140.469C269.292 145.629 274.835 145.18 280.016 141.008Z" fill="#F7D3C9"/>
        <path d="M301.659 151.5C302.381 150.554 302.861 149.406 302.986 148.136C303.291 145.032 301.402 142.226 298.587 141.235C298.539 141.218 298.38 141.158 298.348 141.148C298.347 141.148 298.346 141.148 298.345 141.147C294.766 140.035 288.317 135.243 287.835 128.436C287.278 120.582 285.471 116.369 280.582 114.98C275.659 113.581 271.643 115.149 270.649 117.783C269.342 125.186 271.618 127.246 274.589 127.774C277.261 128.249 278.34 130.381 277.509 132.421C276.78 134.212 277.527 137.721 278.313 139.83C275.814 141.88 273.392 148.205 276.635 152.143C278.831 154.809 282.309 155.724 285.426 154.496C285.297 154.979 285.194 155.473 285.144 155.986C284.651 161.02 288.332 165.501 293.366 165.994C298.4 166.488 302.881 162.806 303.373 157.773C303.602 155.45 302.933 153.25 301.659 151.5Z" fill="#424242"/>
        <path class="primary-30" d="M94.072 83.3398C93.9076 83.3398 93.7431 83.2771 93.6177 83.1517L89.1883 78.7221C88.9372 78.4713 88.9372 78.0645 89.1883 77.8136C89.4389 77.5626 89.8459 77.5626 90.0967 77.8136L94.072 81.7887L105.672 70.1889C105.923 69.9381 106.33 69.9381 106.581 70.1889C106.832 70.4397 106.832 70.8465 106.581 71.0974L94.5264 83.1517C94.401 83.2771 94.2365 83.3398 94.072 83.3398Z" fill="var(--primary-30)"/>
        <path class="primary-30" d="M94.072 140.244C93.9076 140.244 93.7431 140.181 93.6177 140.056L89.1883 135.626C88.9372 135.376 88.9372 134.969 89.1883 134.718C89.4389 134.467 89.8459 134.467 90.0967 134.718L94.072 138.693L105.672 127.093C105.923 126.842 106.33 126.842 106.581 127.093C106.832 127.344 106.832 127.751 106.581 128.002L94.5264 140.056C94.401 140.181 94.2365 140.244 94.072 140.244Z" fill="var(--primary-30)"/>
        <path class="primary-30" d="M94.072 168.693C93.9017 168.693 93.7382 168.626 93.6177 168.505L89.1883 164.075C88.9372 163.825 88.9372 163.418 89.1883 163.167C89.4389 162.916 89.8459 162.916 90.0967 163.167L94.072 167.142L105.672 155.542C105.923 155.292 106.33 155.292 106.581 155.542C106.832 155.793 106.832 156.2 106.581 156.451L94.5264 168.505C94.4059 168.626 94.2424 168.693 94.072 168.693Z" fill="var(--primary-30)"/>
        <path class="primary-10" d="M97.8863 112.934C97.7218 112.934 97.5573 112.871 97.4319 112.745L89.8074 105.121C89.5564 104.87 89.5564 104.463 89.8074 104.212C90.0583 103.961 90.4653 103.961 90.7159 104.212L98.3406 111.837C98.5914 112.088 98.5914 112.495 98.3406 112.745C98.2152 112.871 98.0507 112.934 97.8863 112.934Z" fill="var(--primary-10)"/>
        <path class="primary-10" d="M90.2616 112.934C90.0971 112.934 89.9327 112.871 89.8073 112.745C89.5564 112.495 89.5564 112.088 89.8073 111.837L97.432 104.212C97.6828 103.961 98.0896 103.961 98.3404 104.212C98.5915 104.463 98.5915 104.87 98.3404 105.121L90.716 112.745C90.5905 112.871 90.4261 112.934 90.2616 112.934Z" fill="var(--primary-10)"/>
        </svg>
