<svg width="100%" height="100%" viewBox="0 0 51 51" fill="none" xmlns="http://www.w3.org/2000/svg">
<g clip-path="url(#clip0_113_13309)">
<path d="M49.8611 42.2366H1.58549C1.10942 42.2366 0.723389 41.8506 0.723389 41.3745V10.3401C0.723389 9.86406 1.10942 9.47803 1.58549 9.47803H49.8612C50.3373 9.47803 50.7233 9.86406 50.7233 10.3401V41.3745C50.7232 41.8506 50.3372 42.2366 49.8611 42.2366Z" fill="#41479B"/>
<path d="M50.7232 10.3401C50.7232 9.86406 50.3372 9.47803 49.8611 9.47803H46.0042L30.0335 19.9416V9.47803H21.4129V19.9416L5.44232 9.47803H1.58549C1.10942 9.47803 0.723389 9.86406 0.723389 10.3401V12.5697L14.4254 21.5469H0.723389V30.1676H14.4254L0.723389 39.1449V41.3745C0.723389 41.8506 1.10942 42.2366 1.58549 42.2366H5.44241L21.4131 31.7731V42.2366H30.0337V31.7731L46.0044 42.2366H49.8613C50.3374 42.2366 50.7234 41.8506 50.7234 41.3745V39.1449L37.0214 30.1677H50.7232V21.547H37.0212L50.7232 12.5697V10.3401Z" fill="#F5F5F5"/>
<path d="M50.7232 23.2711H28.3095V9.47803H23.1371V23.2711H0.723389V28.4435H23.1371V42.2366H28.3095V28.4435H50.7232V23.2711Z" fill="#FF4B55"/>
<path d="M18.199 30.1677L0.748047 41.4955C0.809082 41.9118 1.15234 42.2367 1.58564 42.2367H2.77304L21.3657 30.1678H18.199V30.1677Z" fill="#FF4B55"/>
<path d="M34.5508 30.1677H31.384L49.9497 42.2188C50.3824 42.1728 50.7239 41.8194 50.7239 41.3745V40.6657L34.5508 30.1677Z" fill="#FF4B55"/>
<path d="M0.724121 11.2919L16.5228 21.5471H19.6896L1.22637 9.56219C0.931445 9.69921 0.724121 9.99364 0.724121 10.3402V11.2919Z" fill="#FF4B55"/>
<path d="M33.2012 21.5472L50.694 10.192C50.6214 9.7895 50.2854 9.47827 49.8619 9.47827H48.6268L30.0344 21.5472H33.2012Z" fill="#FF4B55"/>
</g>
<defs>
<clipPath id="clip0_113_13309">
<rect width="50" height="50" fill="white" transform="translate(0.722656 0.857422)"/>
</clipPath>
</defs>
</svg>
