<svg width="100%" height="100%" viewBox="0 0 51 51" fill="none" xmlns="http://www.w3.org/2000/svg">
<g clip-path="url(#clip0_113_13817)">
<path d="M1.19975 41.8208H49.4755C49.9516 41.8208 50.3376 41.4347 50.3376 40.9587V9.92424C50.3376 9.44817 49.9516 9.06213 49.4755 9.06213H1.19975C0.723681 9.06223 0.337646 9.44817 0.337646 9.92424V40.9587C0.337646 41.4348 0.723681 41.8208 1.19975 41.8208Z" fill="#C8414B"/>
<path d="M50.3376 15.9591H0.337646V34.9249H50.3376V15.9591Z" fill="#FFD250"/>
<path d="M21.458 25.4415L22.189 22.1524C22.2563 21.8494 22.0258 21.5621 21.7154 21.5621H21.2006C20.8903 21.5621 20.6599 21.8494 20.727 22.1524L21.458 25.4415Z" fill="#C8414B"/>
<path d="M22.3203 23.7169H20.5962V31.0441H22.3203V23.7169Z" fill="#F5F5F5"/>
<path d="M22.7508 22.8556H20.1646V23.7177H22.7508V22.8556Z" fill="#FAB446"/>
<path d="M22.7532 25.4415H18.4426V26.3036H22.7532V25.4415Z" fill="#C8414B"/>
<path d="M22.753 28.8898L20.1667 28.0278V27.1656L22.753 28.0278V28.8898Z" fill="#C8414B"/>
<path d="M8.5288 25.4415L9.25975 22.1524C9.32713 21.8494 9.09657 21.5621 8.78622 21.5621H8.27138C7.96112 21.5621 7.73065 21.8494 7.79784 22.1524L8.5288 25.4415Z" fill="#C8414B"/>
<path d="M11.5447 22.8553C11.0687 22.8553 10.6826 23.2414 10.6826 23.7175V29.3209C10.6826 30.3682 11.6602 32.3381 14.993 32.3381C18.3258 32.3381 19.3033 30.3683 19.3033 29.3209V23.7175C19.3033 23.2414 18.9173 22.8553 18.4412 22.8553H11.5447Z" fill="#F5F5F5"/>
<path d="M14.9942 27.1656H10.6838V23.7173C10.6838 23.2413 11.0699 22.8552 11.5459 22.8552H14.9942V27.1656Z" fill="#C8414B"/>
<path d="M14.9944 27.1655H19.3047V29.3207C19.3047 30.511 18.3399 31.4759 17.1496 31.4759C15.9592 31.4759 14.9944 30.511 14.9944 29.3207V27.1655Z" fill="#C8414B"/>
<path d="M10.6826 27.1656H14.993V29.3208C14.993 30.5111 14.0281 31.476 12.8378 31.476C11.6475 31.476 10.6826 30.5111 10.6826 29.3208V27.1656Z" fill="#FAB446"/>
<path d="M14.1292 31.0354V27.1658H13.2671V31.4327C13.5878 31.3676 13.8775 31.2256 14.1292 31.0354Z" fill="#C8414B"/>
<path d="M12.4051 31.4327V27.1658H11.543V31.0354C11.7947 31.2256 12.0845 31.3676 12.4051 31.4327Z" fill="#C8414B"/>
<path d="M14.1309 25.4415H11.5447V26.3036H14.1309V25.4415Z" fill="#FFB441"/>
<path d="M14.1309 23.7169H11.5447V24.579H14.1309V23.7169Z" fill="#FAB446"/>
<path d="M13.6987 24.2296H11.9746V25.7913H13.6987V24.2296Z" fill="#FAB446"/>
<path d="M9.38867 23.7169H7.66455V31.0441H9.38867V23.7169Z" fill="#F5F5F5"/>
<path d="M9.8184 30.6144H7.23218V31.4765H9.8184V30.6144Z" fill="#FAB446"/>
<path d="M9.8184 22.8556H7.23218V23.7177H9.8184V22.8556Z" fill="#FAB446"/>
<path d="M10.2517 31.4757H6.80347V32.3378H10.2517V31.4757Z" fill="#5064AA"/>
<path d="M23.1824 30.6144H20.5962V31.4765H23.1824V30.6144Z" fill="#FAB446"/>
<path d="M23.1819 31.4757H19.7336V32.3378H23.1819V31.4757Z" fill="#5064AA"/>
<path d="M17.5792 21.9933H12.4067V22.8554H17.5792V21.9933Z" fill="#FAB446"/>
<path d="M15.4244 19.4075H14.5623V21.9937H15.4244V19.4075Z" fill="#FFB441"/>
<path d="M14.1305 20.7001C13.4174 20.7001 12.8374 20.1201 12.8374 19.4071C12.8374 18.694 13.4175 18.114 14.1305 18.114C14.8435 18.114 15.4235 18.6941 15.4235 19.4071C15.4236 20.1201 14.8435 20.7001 14.1305 20.7001ZM14.1305 18.976C13.8927 18.976 13.6994 19.1692 13.6994 19.4071C13.6994 19.6449 13.8926 19.8381 14.1305 19.8381C14.3684 19.8381 14.5615 19.645 14.5615 19.4071C14.5615 19.1693 14.3684 18.976 14.1305 18.976Z" fill="#F5F5F5"/>
<path d="M15.8546 20.7001C15.1415 20.7001 14.5615 20.1201 14.5615 19.4071C14.5615 18.694 15.1416 18.114 15.8546 18.114C16.5677 18.114 17.1477 18.6941 17.1477 19.4071C17.1477 20.1201 16.5676 20.7001 15.8546 20.7001ZM15.8546 18.976C15.6168 18.976 15.4235 19.1692 15.4235 19.4071C15.4235 19.6449 15.6167 19.8381 15.8546 19.8381C16.0924 19.8381 16.2856 19.645 16.2856 19.4071C16.2855 19.1693 16.0924 18.976 15.8546 18.976Z" fill="#F5F5F5"/>
<path d="M17.579 21.5623C16.8659 21.5623 16.2859 20.9822 16.2859 20.2693C16.2859 19.5562 16.866 18.9762 17.579 18.9762C18.292 18.9762 18.872 19.5563 18.872 20.2693C18.872 20.9822 18.2919 21.5623 17.579 21.5623ZM17.579 19.8382C17.3412 19.8382 17.1479 20.0314 17.1479 20.2693C17.1479 20.5071 17.3411 20.7003 17.579 20.7003C17.8167 20.7003 18.01 20.5071 18.01 20.2693C18.01 20.0314 17.8167 19.8382 17.579 19.8382Z" fill="#F5F5F5"/>
<path d="M12.4063 21.5623C11.6933 21.5623 11.1133 20.9822 11.1133 20.2693C11.1133 19.5562 11.6934 18.9762 12.4063 18.9762C13.1194 18.9762 13.6994 19.5563 13.6994 20.2693C13.6995 20.9822 13.1194 21.5623 12.4063 21.5623ZM12.4063 19.8382C12.1686 19.8382 11.9753 20.0314 11.9753 20.2693C11.9753 20.5071 12.1685 20.7003 12.4063 20.7003C12.6442 20.7003 12.8374 20.5071 12.8374 20.2692C12.8374 20.0314 12.6442 19.8382 12.4063 19.8382Z" fill="#F5F5F5"/>
<path d="M17.5787 28.8898V29.3209C17.5787 29.5586 17.3853 29.752 17.1477 29.752C16.91 29.752 16.7166 29.5586 16.7166 29.3209V28.8898H17.5787ZM18.4407 28.0278H15.8545V29.3209C15.8545 30.034 16.4346 30.614 17.1476 30.614C17.8606 30.614 18.4406 30.0339 18.4406 29.3209V28.0278H18.4407Z" fill="#FAB446"/>
<path d="M17.148 26.3036C16.6719 26.3036 16.2859 25.9176 16.2859 25.4415V24.5794C16.2859 24.1033 16.6719 23.7173 17.148 23.7173C17.6241 23.7173 18.0101 24.1033 18.0101 24.5794V25.4415C18.0101 25.9176 17.6241 26.3036 17.148 26.3036Z" fill="#FFA0D2"/>
<path d="M14.9928 28.4582C15.7069 28.4582 16.2858 27.8793 16.2858 27.1651C16.2858 26.451 15.7069 25.8721 14.9928 25.8721C14.2786 25.8721 13.6997 26.451 13.6997 27.1651C13.6997 27.8793 14.2786 28.4582 14.9928 28.4582Z" fill="#5064AA"/>
<path d="M15.4244 17.6827H14.5623V20.269H15.4244V17.6827Z" fill="#FAB446"/>
<path d="M12.4063 21.9933L11.5442 21.1312L12.0492 20.6262C12.8297 19.8457 13.8885 19.4071 14.9925 19.4071C16.0965 19.4071 17.1552 19.8457 17.9359 20.6262L18.4409 21.1312L17.5788 21.9933H12.4063Z" fill="#C8414B"/>
<path d="M14.9916 21.5619C15.2297 21.5619 15.4227 21.3689 15.4227 21.1309C15.4227 20.8928 15.2297 20.6998 14.9916 20.6998C14.7535 20.6998 14.5605 20.8928 14.5605 21.1309C14.5605 21.3689 14.7535 21.5619 14.9916 21.5619Z" fill="#FFD250"/>
<path d="M13.267 21.5619C13.5051 21.5619 13.698 21.3689 13.698 21.1309C13.698 20.8928 13.5051 20.6998 13.267 20.6998C13.0289 20.6998 12.8359 20.8928 12.8359 21.1309C12.8359 21.3689 13.0289 21.5619 13.267 21.5619Z" fill="#FFD250"/>
<path d="M16.7152 21.5619C16.9533 21.5619 17.1463 21.3689 17.1463 21.1309C17.1463 20.8928 16.9533 20.6998 16.7152 20.6998C16.4772 20.6998 16.2842 20.8928 16.2842 21.1309C16.2842 21.3689 16.4772 21.5619 16.7152 21.5619Z" fill="#FFD250"/>
<path d="M11.5427 25.4417H7.23218V26.3038H11.5427V25.4417Z" fill="#C8414B"/>
<path d="M7.23218 28.8899L9.81831 28.0279V27.1658L7.23218 28.0279V28.8899Z" fill="#C8414B"/>
</g>
<defs>
<clipPath id="clip0_113_13817">
<rect width="50" height="50" fill="white" transform="translate(0.335938 0.441406)"/>
</clipPath>
</defs>
</svg>
