<svg width="40" height="40" viewBox="0 0 40 40" fill="none" xmlns="http://www.w3.org/2000/svg">
<g clip-path="url(#clip0_744_12978)">
<path d="M0.0081278 17.2975C-0.00515461 17.3791 -0.00213371 17.4625 0.0170157 17.5429C0.0361652 17.6232 0.071063 17.699 0.11969 17.7658L2.71539 21.3384C2.8122 21.4716 2.95767 21.5613 3.1202 21.5878C3.28273 21.6144 3.44918 21.5758 3.58336 21.4803L5.88922 19.8397V36.4168C5.88922 36.5825 5.95507 36.7415 6.07228 36.8587C6.18949 36.9759 6.34846 37.0418 6.51422 37.0418H33.4865C33.6522 37.0418 33.8112 36.9759 33.9284 36.8587C34.0456 36.7415 34.1115 36.5825 34.1115 36.4168V19.8391L36.4173 21.4797C36.5515 21.5752 36.7179 21.6139 36.8804 21.5873C37.043 21.5607 37.1884 21.4711 37.2852 21.3379L39.8809 17.7658C39.9295 17.6991 39.9643 17.6233 39.9834 17.543C40.0025 17.4627 40.0055 17.3794 39.9922 17.298C39.9789 17.2165 39.9496 17.1385 39.906 17.0684C39.8625 16.9983 39.8054 16.9375 39.7382 16.8896L20.3632 3.07513C20.2573 2.99959 20.1304 2.95898 20.0003 2.95898C19.8702 2.95898 19.7434 2.99959 19.6374 3.07513L0.262425 16.8896C0.195207 16.9374 0.138128 16.9981 0.0944826 17.0681C0.0508368 17.1382 0.0214875 17.2161 0.0081278 17.2975ZM24.6302 35.7918H15.3705V24.6533H24.6302V35.7918ZM32.8615 35.7918H25.8802V24.0283C25.8802 23.8625 25.8143 23.7035 25.6971 23.5863C25.5799 23.4691 25.4209 23.4033 25.2552 23.4033H14.7455C14.5797 23.4033 14.4207 23.4691 14.3035 23.5863C14.1863 23.7035 14.1205 23.8625 14.1205 24.0283V35.7918H7.13922V18.9496L20.0003 9.79763L32.8615 18.9496V35.7918ZM20.0003 4.35122L38.499 17.5409L36.6378 20.1026L20.3627 8.5213C20.2569 8.44597 20.1302 8.40549 20.0003 8.40549C19.8704 8.40549 19.7437 8.44597 19.6379 8.5213L3.36282 20.1026L1.50164 17.5409L20.0003 4.35122Z" fill="currentColor"/>
</g>
<defs>
<clipPath id="clip0_744_12978">
<rect width="40" height="40" fill="white"/>
</clipPath>
</defs>
</svg>
