<svg width="40" height="40" viewBox="0 0 40 40" fill="none" xmlns="http://www.w3.org/2000/svg">
<path d="M35.607 6.24902H4.40055C2.46203 6.24902 0.884766 7.82269 0.884766 9.75652V30.2363C0.884766 32.1748 2.46195 33.7514 4.40055 33.7514H35.607C37.5409 33.7514 39.1145 32.1748 39.1145 30.2363V9.7566C39.1145 7.82277 37.5409 6.24902 35.607 6.24902ZM37.9133 30.2364C37.9133 31.5121 36.8786 32.5503 35.607 32.5503H4.40055C3.12422 32.5503 2.08602 31.5121 2.08602 30.2364V9.7566C2.08602 8.48496 3.12422 7.45027 4.40055 7.45027H35.607C36.8787 7.45027 37.9134 8.48496 37.9134 9.7566V30.2364H37.9133Z" fill="currentColor"/>
<path d="M34.498 11.1641H5.50102C5.16906 11.1641 4.90039 11.4327 4.90039 11.7647C4.90039 12.0966 5.16898 12.3653 5.50102 12.3653H34.498C34.8299 12.3653 35.0986 12.0966 35.0986 11.7647C35.0986 11.4327 34.8299 11.1641 34.498 11.1641Z" fill="currentColor"/>
<path d="M34.4973 17.1523H19.9991C19.6671 17.1523 19.3984 17.421 19.3984 17.753C19.3984 18.0849 19.6671 18.3536 19.9991 18.3536H34.4973C34.8292 18.3536 35.0979 18.0849 35.0979 17.753C35.0979 17.421 34.8292 17.1523 34.4973 17.1523Z" fill="currentColor"/>
<path d="M34.4973 22.3213H19.9991C19.6671 22.3213 19.3984 22.59 19.3984 22.9219C19.3984 23.2539 19.6671 23.5225 19.9991 23.5225H34.4973C34.8292 23.5225 35.0979 23.2539 35.0979 22.9219C35.0979 22.59 34.8292 22.3213 34.4973 22.3213Z" fill="currentColor"/>
<path d="M34.4973 27.4912H19.9991C19.6671 27.4912 19.3984 27.7599 19.3984 28.0918C19.3984 28.4238 19.6671 28.6925 19.9991 28.6925H34.4973C34.8292 28.6925 35.0979 28.4238 35.0979 28.0918C35.0979 27.7599 34.8292 27.4912 34.4973 27.4912Z" fill="currentColor"/>
<path d="M13.519 18.1073C13.519 16.3829 12.1166 14.9805 10.3921 14.9805C8.66297 14.9805 7.25586 16.3829 7.25586 18.1073C7.25586 19.8365 8.66297 21.2436 10.3921 21.2436C12.1166 21.2436 13.519 19.8365 13.519 18.1073ZM8.45711 18.1073C8.45711 17.0457 9.32516 16.1817 10.3921 16.1817C11.4537 16.1817 12.3177 17.0457 12.3177 18.1073C12.3177 19.1743 11.4537 20.0423 10.3921 20.0423C9.32523 20.0423 8.45711 19.1742 8.45711 18.1073Z" fill="currentColor"/>
<path d="M10.3934 22.6074C7.36445 22.6074 4.90039 25.0674 4.90039 28.091C4.90039 28.423 5.16898 28.6916 5.50102 28.6916H15.277C15.6089 28.6916 15.8776 28.423 15.8776 28.091C15.8775 25.0673 13.4176 22.6074 10.3934 22.6074ZM6.14383 27.4904C6.43711 25.4123 8.23133 23.8087 10.3934 23.8087C12.5512 23.8087 14.3414 25.4123 14.6341 27.4904H6.14383Z" fill="currentColor"/>
</svg>
