<svg width="40" height="40" viewBox="0 0 40 40" fill="none" xmlns="http://www.w3.org/2000/svg">
<path d="M35.8301 17.3647H26.4816V10.0902H32.4188C32.5846 10.0902 32.7435 10.0243 32.8608 9.90712C32.978 9.78991 33.0438 9.63094 33.0438 9.46518V7.06317C33.0426 6.02776 32.6308 5.0351 31.8987 4.30289C31.1667 3.57067 30.1741 3.15868 29.1387 3.15726L6.35712 3.15723C5.33451 3.1584 4.35412 3.56515 3.63102 4.28825C2.90792 5.01134 2.50117 5.99173 2.5 7.01435V32.1968C2.50001 32.3626 2.56586 32.5216 2.68307 32.6388C2.80028 32.756 2.95924 32.8218 3.125 32.8218H20.7758V35.1729C20.7762 35.6157 20.9524 36.0403 21.2655 36.3534C21.5786 36.6665 22.0032 36.8427 22.446 36.8431H35.8301C36.2729 36.8426 36.6973 36.6664 37.0104 36.3533C37.3235 36.0402 37.4995 35.6157 37.5 35.1729V19.0346C37.4995 18.5919 37.3234 18.1674 37.0103 17.8544C36.6973 17.5413 36.2728 17.3652 35.8301 17.3647ZM31.7938 7.06317V8.84018H26.482V7.06317C26.4887 6.36318 26.7714 5.69414 27.2688 5.20152C27.7661 4.70891 28.4379 4.43256 29.1379 4.43256C29.8379 4.43256 30.5096 4.70891 31.007 5.20152C31.5043 5.69414 31.7871 6.36318 31.7938 7.06317ZM3.75 31.5718V7.01434C3.75074 6.32312 4.02566 5.66042 4.51443 5.17165C5.0032 4.68288 5.6659 4.40796 6.35712 4.40722H26.2822C25.6077 5.12755 25.2322 6.07728 25.2316 7.0641V17.3647H22.446C22.0032 17.3652 21.5787 17.5413 21.2656 17.8543C20.9525 18.1674 20.7763 18.5919 20.7758 19.0346V31.5718H3.75ZM36.25 35.1729C36.2499 35.2843 36.2057 35.3911 36.1269 35.4699C36.0482 35.5486 35.9415 35.593 35.8301 35.5931H22.446C22.3346 35.593 22.2278 35.5487 22.149 35.4699C22.0702 35.3911 22.0259 35.2843 22.0258 35.1729C22.0285 33.3233 22.0238 21.1727 22.0258 19.0346C22.0259 18.9232 22.0703 18.8165 22.149 18.7378C22.2278 18.659 22.3346 18.6148 22.446 18.6147H35.8301C35.9414 18.6148 36.0482 18.6591 36.1269 18.7378C36.2056 18.8165 36.2499 18.9233 36.25 19.0346V35.1729Z" fill="currentColor"/>
<path d="M33.9254 20.1992H24.3496C24.1838 20.1992 24.0249 20.2651 23.9077 20.3823C23.7905 20.4995 23.7246 20.6585 23.7246 20.8242V23.691C23.7246 23.8568 23.7905 24.0158 23.9077 24.133C24.0249 24.2502 24.1838 24.316 24.3496 24.316H33.9254C34.0912 24.316 34.2501 24.2502 34.3673 24.133C34.4845 24.0158 34.5504 23.8568 34.5504 23.691V20.8242C34.5504 20.6585 34.4845 20.4995 34.3673 20.3823C34.2501 20.2651 34.0912 20.1992 33.9254 20.1992ZM33.3004 23.066H24.9746V21.4492H33.3004V23.066Z" fill="currentColor"/>
<path d="M25.8336 25.4893H24.3492C24.1856 25.4925 24.0297 25.5597 23.9151 25.6766C23.8005 25.7934 23.7363 25.9506 23.7363 26.1143C23.7363 26.278 23.8005 26.4351 23.9151 26.552C24.0298 26.6688 24.1856 26.7361 24.3493 26.7393H25.8336C25.9973 26.7361 26.1531 26.6688 26.2677 26.552C26.3824 26.4351 26.4466 26.2779 26.4466 26.1143C26.4466 25.9506 26.3824 25.7934 26.2677 25.6766C26.1531 25.5597 25.9973 25.4924 25.8336 25.4893Z" fill="currentColor"/>
<path d="M29.8806 25.4893H28.3965C28.2307 25.4893 28.0718 25.5551 27.9545 25.6723C27.8373 25.7895 27.7715 25.9485 27.7715 26.1143C27.7715 26.28 27.8373 26.439 27.9545 26.5562C28.0718 26.6734 28.2307 26.7393 28.3965 26.7393H29.8806C30.0442 26.7361 30.2001 26.6688 30.3147 26.552C30.4293 26.4351 30.4935 26.2779 30.4935 26.1143C30.4935 25.9506 30.4293 25.7934 30.3147 25.6766C30.2001 25.5597 30.0442 25.4924 29.8806 25.4893Z" fill="currentColor"/>
<path d="M33.9255 25.4893H32.4414C32.2756 25.4893 32.1167 25.5551 31.9995 25.6723C31.8823 25.7895 31.8164 25.9485 31.8164 26.1143C31.8164 26.28 31.8823 26.439 31.9995 26.5562C32.1167 26.6734 32.2756 26.7393 32.4414 26.7393H33.9255C34.0891 26.7361 34.245 26.6688 34.3596 26.552C34.4742 26.4351 34.5384 26.2779 34.5384 26.1143C34.5384 25.9506 34.4742 25.7934 34.3596 25.6766C34.245 25.5597 34.0891 25.4924 33.9255 25.4893Z" fill="currentColor"/>
<path d="M25.8336 27.9121H24.3492C24.1856 27.9153 24.0297 27.9826 23.9151 28.0994C23.8005 28.2163 23.7363 28.3734 23.7363 28.5371C23.7363 28.7008 23.8005 28.858 23.9151 28.9748C24.0298 29.0917 24.1856 29.1589 24.3493 29.1621H25.8336C25.9973 29.1589 26.1531 29.0917 26.2677 28.9748C26.3824 28.8579 26.4466 28.7008 26.4466 28.5371C26.4466 28.3734 26.3824 28.2163 26.2677 28.0994C26.1531 27.9826 25.9973 27.9153 25.8336 27.9121Z" fill="currentColor"/>
<path d="M29.8806 27.9121H28.3965C28.2307 27.9121 28.0718 27.978 27.9545 28.0952C27.8373 28.2124 27.7715 28.3713 27.7715 28.5371C27.7715 28.7029 27.8373 28.8618 27.9545 28.9791C28.0718 29.0963 28.2307 29.1621 28.3965 29.1621H29.8806C30.0442 29.1589 30.2001 29.0917 30.3147 28.9748C30.4293 28.8579 30.4935 28.7008 30.4935 28.5371C30.4935 28.3734 30.4293 28.2163 30.3147 28.0994C30.2001 27.9826 30.0442 27.9153 29.8806 27.9121Z" fill="currentColor"/>
<path d="M33.9255 27.9121H32.4414C32.2756 27.9121 32.1167 27.978 31.9995 28.0952C31.8823 28.2124 31.8164 28.3713 31.8164 28.5371C31.8164 28.7029 31.8823 28.8618 31.9995 28.9791C32.1167 29.0963 32.2756 29.1621 32.4414 29.1621H33.9255C34.0891 29.1589 34.245 29.0917 34.3596 28.9748C34.4742 28.8579 34.5384 28.7008 34.5384 28.5371C34.5384 28.3734 34.4742 28.2163 34.3596 28.0994C34.245 27.9826 34.0891 27.9153 33.9255 27.9121Z" fill="currentColor"/>
<path d="M25.8336 30.335H24.3492C24.1856 30.3382 24.0297 30.4054 23.9151 30.5223C23.8005 30.6391 23.7363 30.7963 23.7363 30.96C23.7363 31.1237 23.8005 31.2808 23.9151 31.3977C24.0298 31.5145 24.1856 31.5818 24.3493 31.585H25.8336C25.9973 31.5818 26.1531 31.5145 26.2677 31.3977C26.3824 31.2808 26.4466 31.1236 26.4466 30.96C26.4466 30.7963 26.3824 30.6391 26.2677 30.5223C26.1531 30.4054 25.9973 30.3382 25.8336 30.335Z" fill="currentColor"/>
<path d="M29.8806 30.335H28.3965C28.2307 30.335 28.0718 30.4008 27.9545 30.518C27.8373 30.6352 27.7715 30.7942 27.7715 30.96C27.7715 31.1257 27.8373 31.2847 27.9545 31.4019C28.0718 31.5191 28.2307 31.585 28.3965 31.585H29.8806C30.0442 31.5818 30.2001 31.5145 30.3147 31.3977C30.4293 31.2808 30.4935 31.1236 30.4935 30.96C30.4935 30.7963 30.4293 30.6391 30.3147 30.5223C30.2001 30.4054 30.0442 30.3382 29.8806 30.335Z" fill="currentColor"/>
<path d="M33.9255 30.335H32.4414C32.2756 30.335 32.1167 30.4008 31.9995 30.518C31.8823 30.6352 31.8164 30.7942 31.8164 30.96C31.8164 31.1257 31.8823 31.2847 31.9995 31.4019C32.1167 31.5191 32.2756 31.585 32.4414 31.585H33.9255C34.0891 31.5818 34.245 31.5145 34.3596 31.3977C34.4742 31.2808 34.5384 31.1236 34.5384 30.96C34.5384 30.7963 34.4742 30.6391 34.3596 30.5223C34.245 30.4054 34.0891 30.3382 33.9255 30.335Z" fill="currentColor"/>
<path d="M25.8339 32.7578H24.3496C24.1859 32.7609 24.0299 32.8281 23.9152 32.945C23.8006 33.0619 23.7363 33.2191 23.7363 33.3828C23.7363 33.5466 23.8006 33.7038 23.9153 33.8206C24.0299 33.9375 24.1859 34.0047 24.3496 34.0078H25.8339C25.9976 34.0046 26.1535 33.9374 26.2681 33.8205C26.3827 33.7036 26.4469 33.5465 26.4469 33.3828C26.4469 33.2191 26.3827 33.062 26.2681 32.9451C26.1535 32.8283 25.9976 32.761 25.8339 32.7578Z" fill="currentColor"/>
<path d="M29.8806 32.7578H28.3965C28.2307 32.7578 28.0718 32.8237 27.9545 32.9409C27.8373 33.0581 27.7715 33.2171 27.7715 33.3828C27.7715 33.5486 27.8373 33.7075 27.9545 33.8248C28.0718 33.942 28.2307 34.0078 28.3965 34.0078H29.8806C30.0442 34.0046 30.2001 33.9374 30.3147 33.8205C30.4293 33.7036 30.4935 33.5465 30.4935 33.3828C30.4935 33.2191 30.4293 33.062 30.3147 32.9451C30.2001 32.8283 30.0442 32.761 29.8806 32.7578Z" fill="currentColor"/>
<path d="M33.9255 32.7578H32.4414C32.2756 32.7578 32.1167 32.8237 31.9995 32.9409C31.8823 33.0581 31.8164 33.2171 31.8164 33.3828C31.8164 33.5486 31.8823 33.7075 31.9995 33.8248C32.1167 33.942 32.2756 34.0078 32.4414 34.0078H33.9255C34.0891 34.0046 34.245 33.9374 34.3596 33.8205C34.4742 33.7036 34.5384 33.5465 34.5384 33.3828C34.5384 33.2191 34.4742 33.062 34.3596 32.9451C34.245 32.8283 34.0891 32.761 33.9255 32.7578Z" fill="currentColor"/>
<path d="M8.19466 10.2422H20.7877C20.9513 10.2389 21.1071 10.1716 21.2217 10.0548C21.3362 9.9379 21.4003 9.78079 21.4003 9.61717C21.4003 9.45354 21.3362 9.29643 21.2216 9.17958C21.1071 9.06273 20.9513 8.99545 20.7877 8.99219H8.19466C8.03106 8.99546 7.87527 9.06275 7.76073 9.1796C7.64619 9.29645 7.58203 9.45356 7.58203 9.61719C7.58203 9.78082 7.64619 9.93792 7.76073 10.0548C7.87527 10.1716 8.03106 10.2389 8.19466 10.2422Z" fill="currentColor"/>
<path d="M8.19466 13.5908H20.7877C20.9513 13.5875 21.1071 13.5203 21.2217 13.4034C21.3362 13.2865 21.4003 13.1294 21.4003 12.9658C21.4003 12.8022 21.3362 12.6451 21.2216 12.5282C21.1071 12.4114 20.9513 12.3441 20.7877 12.3408H8.19466C8.03106 12.3441 7.87527 12.4114 7.76073 12.5282C7.64619 12.6451 7.58203 12.8022 7.58203 12.9658C7.58203 13.1294 7.64619 13.2866 7.76073 13.4034C7.87527 13.5203 8.03106 13.5875 8.19466 13.5908Z" fill="currentColor"/>
<path d="M18.4998 15.6904H8.19463C8.03104 15.6937 7.87525 15.761 7.76071 15.8779C7.64618 15.9947 7.58203 16.1518 7.58203 16.3155C7.58204 16.4791 7.6462 16.6362 7.76074 16.753C7.87529 16.8699 8.03108 16.9372 8.19468 16.9404H18.4998C18.6634 16.9372 18.8192 16.8699 18.9337 16.753C19.0483 16.6362 19.1124 16.4791 19.1124 16.3154C19.1124 16.1518 19.0483 15.9947 18.9337 15.8778C18.8192 15.761 18.6634 15.6937 18.4998 15.6904Z" fill="currentColor"/>
<path d="M18.4998 19.0391H8.19463C8.03104 19.0423 7.87525 19.1096 7.76071 19.2265C7.64618 19.3433 7.58203 19.5005 7.58203 19.6641C7.58204 19.8277 7.6462 19.9848 7.76074 20.1017C7.87529 20.2185 8.03108 20.2858 8.19468 20.2891H18.4998C18.6634 20.2858 18.8192 20.2185 18.9337 20.1017C19.0483 19.9848 19.1124 19.8277 19.1124 19.6641C19.1124 19.5004 19.0483 19.3433 18.9337 19.2265C18.8192 19.1096 18.6634 19.0423 18.4998 19.0391Z" fill="currentColor"/>
<path d="M18.4998 22.3877H8.19463C8.03104 22.391 7.87525 22.4583 7.76071 22.5751C7.64618 22.692 7.58203 22.8491 7.58203 23.0127C7.58204 23.1763 7.6462 23.3334 7.76074 23.4503C7.87529 23.5671 8.03108 23.6344 8.19468 23.6377H18.4998C18.6634 23.6344 18.8192 23.5671 18.9337 23.4503C19.0483 23.3334 19.1124 23.1763 19.1124 23.0127C19.1124 22.8491 19.0483 22.692 18.9337 22.5751C18.8192 22.4583 18.6634 22.391 18.4998 22.3877Z" fill="currentColor"/>
<path d="M18.4998 25.7363H8.19463C8.03104 25.7396 7.87525 25.8069 7.76071 25.9238C7.64618 26.0406 7.58203 26.1977 7.58203 26.3613C7.58204 26.525 7.6462 26.6821 7.76074 26.7989C7.87529 26.9158 8.03108 26.9831 8.19468 26.9863H18.4998C18.6634 26.9831 18.8192 26.9158 18.9337 26.7989C19.0483 26.6821 19.1124 26.525 19.1124 26.3613C19.1124 26.1977 19.0483 26.0406 18.9337 25.9237C18.8192 25.8069 18.6634 25.7396 18.4998 25.7363Z" fill="currentColor"/>
</svg>
