<svg width="40" height="40" viewBox="0 0 40 40" fill="none" xmlns="http://www.w3.org/2000/svg">
<path d="M38.0288 8.46398H25.6991V4.98242C25.6986 4.50604 25.5091 4.04933 25.1722 3.71248C24.8354 3.37562 24.3787 3.18613 23.9023 3.18555H16.0973C15.6209 3.18613 15.1642 3.37562 14.8273 3.71248C14.4905 4.04933 14.301 4.50604 14.3004 4.98242V8.46398H1.97071C1.82567 8.46398 1.68657 8.5216 1.58401 8.62416C1.48145 8.72672 1.42383 8.86582 1.42383 9.01086V16.579C1.42302 17.0537 1.5463 17.5204 1.78146 17.9328C2.01662 18.3451 2.35549 18.6889 2.76446 18.9299V34.7043C2.76512 35.2635 2.98757 35.7997 3.38301 36.1951C3.77845 36.5906 4.31459 36.813 4.87383 36.8137H35.1248C35.684 36.813 36.2202 36.5906 36.6156 36.1951C37.011 35.7997 37.2335 35.2635 37.2341 34.7043V18.9299C37.6431 18.6889 37.982 18.3451 38.2171 17.9328C38.4523 17.5204 38.5756 17.0537 38.5748 16.579V9.01086C38.5748 8.86598 38.5173 8.72702 38.4149 8.62449C38.3126 8.52196 38.1737 8.46423 38.0288 8.46398ZM15.3941 4.98242C15.3944 4.79602 15.4686 4.61732 15.6004 4.48551C15.7322 4.3537 15.9109 4.27954 16.0973 4.2793H23.9023C24.0887 4.27954 24.2674 4.3537 24.3992 4.48551C24.531 4.61732 24.6051 4.79602 24.6054 4.98242V8.46398H23.706V5.72555C23.7061 5.65372 23.6919 5.58259 23.6645 5.51622C23.637 5.44985 23.5967 5.38955 23.5459 5.33876C23.4951 5.28797 23.4348 5.24768 23.3685 5.22022C23.3021 5.19275 23.231 5.17863 23.1591 5.17867H16.8404C16.7686 5.17863 16.6974 5.19275 16.6311 5.22022C16.5647 5.24768 16.5044 5.28797 16.4536 5.33876C16.4028 5.38955 16.3625 5.44985 16.3351 5.51622C16.3076 5.58259 16.2935 5.65372 16.2935 5.72555V8.46398H15.3941V4.98242ZM17.3873 8.46398V6.27242H22.6123V8.46398H17.3873ZM35.1248 35.7199H4.87477C4.60551 35.7196 4.34737 35.6125 4.15698 35.4221C3.96658 35.2317 3.85948 34.9736 3.85914 34.7043V19.3196L18.0804 22.7571V24.6112C18.0805 24.7562 18.1381 24.8952 18.2407 24.9978C18.3432 25.1003 18.4823 25.158 18.6273 25.158H21.3738C21.5189 25.158 21.658 25.1004 21.7605 24.9979C21.8631 24.8953 21.9207 24.7562 21.9207 24.6112V22.7584L36.1423 19.3209V34.7055C36.1416 34.9749 36.0341 35.233 35.8433 35.4232C35.6526 35.6134 35.3941 35.7201 35.1248 35.7199ZM19.1732 24.0655V21.253H20.826V24.0655H19.1732ZM37.482 16.579C37.4825 16.9471 37.359 17.3046 37.1312 17.5938C36.9035 17.883 36.5849 18.087 36.227 18.1727L21.9198 21.6327V20.7074C21.9198 20.6356 21.9057 20.5645 21.8782 20.4981C21.8508 20.4317 21.8105 20.3714 21.7597 20.3206C21.7089 20.2698 21.6486 20.2296 21.5822 20.2021C21.5159 20.1746 21.4447 20.1605 21.3729 20.1605H18.6263C18.4813 20.1605 18.3422 20.2182 18.2396 20.3207C18.1371 20.4233 18.0795 20.5624 18.0795 20.7074V21.6327L3.77258 18.1737C3.41462 18.0879 3.09603 17.8839 2.8683 17.5947C2.64057 17.3056 2.51701 16.948 2.51758 16.5799V9.55773H37.482V16.579Z" fill="currentColor"/>
</svg>
