<svg width="40" height="40" viewBox="0 0 40 40" fill="none" xmlns="http://www.w3.org/2000/svg">
<path d="M36.9315 28.2247L23.9565 16.6309L27.0378 13.5559L27.7565 14.2747C27.8146 14.3332 27.8838 14.3797 27.9599 14.4115C28.0361 14.4432 28.1178 14.4595 28.2003 14.4595C28.2828 14.4595 28.3645 14.4432 28.4407 14.4115C28.5168 14.3797 28.5859 14.3332 28.644 14.2747L29.6315 13.2872C29.8697 13.0492 30.0585 12.7666 30.1874 12.4556C30.3163 12.1447 30.3826 11.8113 30.3826 11.4747C30.3826 11.138 30.3163 10.8047 30.1874 10.4937C30.0585 10.1827 29.8697 9.90014 29.6315 9.66217L22.6378 2.66842C22.1564 2.18905 21.5047 1.91992 20.8253 1.91992C20.1459 1.91992 19.4942 2.18905 19.0128 2.66842L18.0253 3.66217C17.9089 3.77927 17.8436 3.93768 17.8436 4.10279C17.8436 4.26791 17.9089 4.42632 18.0253 4.54342L19.069 5.58717L9.24405 15.4122L8.2003 14.3747C8.0832 14.2583 7.92479 14.1929 7.75967 14.1929C7.59456 14.1929 7.43615 14.2583 7.31905 14.3747L6.3253 15.3622C6.08719 15.6001 5.8983 15.8827 5.76942 16.1937C5.64055 16.5047 5.57422 16.838 5.57422 17.1747C5.57422 17.5113 5.64055 17.8447 5.76942 18.1556C5.8983 18.4666 6.08719 18.7492 6.3253 18.9872L13.319 25.9747C13.557 26.2128 13.8396 26.4017 14.1506 26.5305C14.4616 26.6594 14.7949 26.7257 15.1315 26.7257C15.4682 26.7257 15.8015 26.6594 16.1125 26.5305C16.4235 26.4017 16.7061 26.2128 16.944 25.9747L17.9315 24.9997C17.9901 24.9416 18.0366 24.8724 18.0684 24.7963C18.1001 24.7201 18.1164 24.6384 18.1164 24.5559C18.1164 24.4734 18.1001 24.3917 18.0684 24.3156C18.0366 24.2394 17.9901 24.1703 17.9315 24.1122L17.2128 23.3934L20.2878 20.3122L31.8753 33.2747C32.2005 33.6356 32.5956 33.9268 33.0367 34.1304C33.4778 34.3341 33.9557 34.4461 34.4414 34.4595C34.927 34.4729 35.4104 34.3876 35.8621 34.2086C36.3137 34.0297 36.7244 33.7608 37.069 33.4184C37.4119 33.0742 37.6812 32.6639 37.8607 32.2124C38.0401 31.761 38.1261 31.2777 38.1132 30.7921C38.1003 30.3064 37.989 29.8284 37.7859 29.3871C37.5827 28.9458 37.2921 28.5503 36.9315 28.2247ZM19.9003 3.55592C20.1512 3.31158 20.4876 3.17485 20.8378 3.17485C21.188 3.17485 21.5244 3.31158 21.7753 3.55592L28.7503 10.5497C28.8743 10.6723 28.9727 10.8183 29.0398 10.9792C29.107 11.1402 29.1416 11.3128 29.1416 11.4872C29.1416 11.6615 29.107 11.8342 29.0398 11.9951C28.9727 12.156 28.8743 12.302 28.7503 12.4247L28.2003 12.9747L19.3753 4.09967L19.9003 3.55592ZM16.0565 25.0934C15.9339 25.2174 15.7879 25.3158 15.627 25.383C15.4661 25.4501 15.2934 25.4847 15.119 25.4847C14.9447 25.4847 14.772 25.4501 14.6111 25.383C14.4502 25.3158 14.3042 25.2174 14.1815 25.0934L7.2128 18.1247C7.08999 18.0027 6.99252 17.8576 6.92602 17.6978C6.85951 17.5379 6.82528 17.3665 6.8253 17.1934C6.82255 17.0181 6.85548 16.844 6.92209 16.6817C6.98871 16.5195 7.08761 16.3725 7.2128 16.2497L7.75655 15.6997L16.6065 24.5434L16.0565 25.0934ZM10.1253 16.2934L19.9503 6.46842L26.1503 12.6684L16.3253 22.4997L10.1253 16.2934ZM36.194 32.5434C35.9691 32.7653 35.7016 32.9393 35.4076 33.0552C35.1136 33.171 34.7993 33.2262 34.4834 33.2174C34.1676 33.2087 33.8568 33.1362 33.5697 33.0042C33.2826 32.8723 33.0251 32.6836 32.8128 32.4497L21.1753 19.4184L23.0503 17.5434L36.1003 29.1559C36.3343 29.3683 36.5229 29.6257 36.6548 29.9128C36.7868 30.1999 36.8593 30.5107 36.8681 30.8266C36.8768 31.1424 36.8216 31.4567 36.7058 31.7507C36.59 32.0447 36.4159 32.3122 36.194 32.5372V32.5434Z" fill="currentColor"/>
<path d="M23.575 36.875H22.4125V33.6875C22.4125 33.5217 22.3467 33.3628 22.2294 33.2456C22.1122 33.1283 21.9533 33.0625 21.7875 33.0625H20.8375V31.8125C20.8375 31.6467 20.7717 31.4878 20.6544 31.3706C20.5372 31.2533 20.3783 31.1875 20.2125 31.1875H5.8375C5.67174 31.1875 5.51277 31.2533 5.39556 31.3706C5.27835 31.4878 5.2125 31.6467 5.2125 31.8125V33.0625H4.2875C4.12174 33.0625 3.96277 33.1283 3.84556 33.2456C3.72835 33.3628 3.6625 33.5217 3.6625 33.6875V36.875H2.5C2.33424 36.875 2.17527 36.9408 2.05806 37.0581C1.94085 37.1753 1.875 37.3342 1.875 37.5C1.875 37.6658 1.94085 37.8247 2.05806 37.9419C2.17527 38.0592 2.33424 38.125 2.5 38.125H23.575C23.7408 38.125 23.8997 38.0592 24.0169 37.9419C24.1342 37.8247 24.2 37.6658 24.2 37.5C24.2 37.3342 24.1342 37.1753 24.0169 37.0581C23.8997 36.9408 23.7408 36.875 23.575 36.875ZM6.4875 32.4062H19.6125V33.0312H6.4875V32.4062ZM4.9125 36.875V34.3125H21.1625V36.875H4.9125Z" fill="currentColor"/>
</svg>
