<svg width="40" height="40" viewBox="0 0 40 40" fill="none" xmlns="http://www.w3.org/2000/svg">
<path d="M32.4441 18.7504H21.2504V7.55664C21.2504 6.86539 20.6904 6.30664 20.0004 6.30664C19.3104 6.30664 18.7504 6.86539 18.7504 7.55664V18.7504H7.55664C6.86664 18.7504 6.30664 19.3091 6.30664 20.0004C6.30664 20.6916 6.86664 21.2504 7.55664 21.2504H18.7504V32.4441C18.7504 33.1354 19.3104 33.6941 20.0004 33.6941C20.6904 33.6941 21.2504 33.1354 21.2504 32.4441V21.2504H32.4441C33.1341 21.2504 33.6941 20.6916 33.6941 20.0004C33.6941 19.3091 33.1341 18.7504 32.4441 18.7504Z" fill="currentColor"/>
</svg>
