<svg width="40" height="40" viewBox="0 0 40 40" fill="none" xmlns="http://www.w3.org/2000/svg">
<g clip-path="url(#clip0_744_12926)">
<path d="M39.7505 11.2391C39.7054 10.6155 39.4159 10.0512 38.935 9.65C37.991 8.86289 36.5934 8.97492 35.7531 9.90508L34.1703 11.6585C34.1691 11.6599 34.1678 11.6611 34.1665 11.6624C34.1659 11.6631 34.1653 11.664 34.1647 11.6647L31.5605 14.5498C31.5578 14.5528 31.5539 14.553 31.5511 14.551L27.7582 11.6487C27.1328 11.1702 26.3857 10.9056 25.5935 10.8914C25.0107 10.8809 26.9757 10.9117 22.6513 10.8482V9.51937C23.3081 8.88641 23.9372 7.95445 23.9372 7.0668V3.93672C23.9371 1.76594 22.1711 0 20.0004 0C17.8297 0 16.0637 1.76594 16.0637 3.93672V7.06688C16.0637 7.95461 16.6928 8.88648 17.3496 9.51945V10.8321L14.4035 10.8916C13.6152 10.9084 12.868 11.1702 12.2427 11.6488L8.45003 14.5509C8.4469 14.5531 8.44308 14.5528 8.44081 14.5504L5.83589 11.6645C5.83534 11.6639 5.83487 11.6631 5.83425 11.6625C5.83315 11.6612 5.83198 11.6602 5.83089 11.659L4.24761 9.90484C3.40737 8.97492 2.00979 8.86297 1.06558 9.65008C0.584872 10.0512 0.295341 10.6155 0.250263 11.2391C0.205185 11.8625 0.410185 12.462 0.82745 12.9272L4.07667 16.5491C4.293 16.7903 4.66362 16.8098 4.90409 16.5939C5.14495 16.3778 5.16503 16.0073 4.94893 15.7665L3.66683 14.3373L5.34472 12.8693L7.57128 15.336C7.97948 15.7873 8.67808 15.8515 9.1619 15.4818L12.9549 12.5795C13.3812 12.2532 13.8907 12.0747 14.4278 12.0633L14.6611 12.0586L14.3294 13.1834C14.2179 13.5648 14.309 13.9694 14.5728 14.2655L18.8178 19.0354L19.2095 20.0474C19.2558 20.1671 19.3265 20.2711 19.4145 20.3553V22.857H13.7434V17.9922C13.7434 17.6866 13.5862 17.4115 13.323 17.2563C13.0601 17.1013 12.7439 17.0967 12.4789 17.2432L9.31745 18.9759C8.72909 19.298 8.00573 19.1744 7.55823 18.6749L6.76761 17.7945C6.55136 17.5536 6.18097 17.5338 5.94018 17.7499C5.6994 17.9662 5.67948 18.3366 5.89565 18.5773L6.68589 19.4573C7.49823 20.3639 8.81167 20.5887 9.88042 20.0037L12.5715 18.5288V22.857H7.94143C7.39292 22.857 6.94675 23.3032 6.94675 23.8516V26.0893C6.94675 26.6378 7.393 27.084 7.94143 27.084H9.40198V29.6937C9.40198 29.964 9.51558 30.2248 9.71472 30.4102L12.2043 32.717V39.0234C12.2043 39.562 12.6424 40 13.1809 40H26.82C27.3585 40 27.7965 39.562 27.7965 39.0234V32.717L30.2871 30.4093C30.4853 30.2248 30.5989 29.9641 30.5989 29.6937V27.084H32.0593C32.6078 27.084 33.054 26.6378 33.054 26.0893V23.8516C33.054 23.3031 32.6078 22.857 32.0593 22.857H27.4293V18.5288L30.1206 20.0038C31.1882 20.5883 32.5017 20.3637 33.3147 19.4577L39.1733 12.9272C39.5906 12.462 39.7955 11.8625 39.7505 11.2391ZM2.88433 13.465L1.69987 12.1447C1.4969 11.9185 1.39722 11.6269 1.41917 11.3236C1.44112 11.0202 1.58214 10.7454 1.81628 10.5501C2.26761 10.1738 2.96823 10.2368 3.378 10.6903L4.55956 11.9993L2.88433 13.465ZM24.5424 13.4977L22.3896 15.9166L23.8903 12.0385L24.113 12.0418L24.5424 13.4977ZM20.0004 10.5342C20.5106 10.5342 21.0205 10.4543 21.4793 10.2954V11.1726C21.4793 11.2183 21.455 11.2613 21.4155 11.2849L20.0296 12.1162C20.0118 12.1268 19.989 12.1267 19.9714 12.1162L18.5852 11.2848C18.546 11.2613 18.5216 11.2182 18.5216 11.1725V10.2953C18.9803 10.4543 19.4902 10.5342 20.0004 10.5342ZM17.9826 12.29L19.3685 13.1212C19.5634 13.2382 19.7819 13.2966 20.0004 13.2966C20.2189 13.2966 20.4375 13.2382 20.6323 13.1212L22.0179 12.2902C22.1412 12.2163 22.2496 12.123 22.3405 12.0157L22.6409 12.0201L20.0004 18.8439L17.3538 12.0041L17.6463 11.9982C17.74 12.1127 17.8529 12.2123 17.9826 12.29ZM20.0004 1.17188C21.525 1.17188 22.7653 2.41219 22.7653 3.93672V4.13867L19.9365 3.1025C19.4582 2.92734 18.9214 3.09789 18.6313 3.5175C18.4115 3.83539 17.9076 4.48391 17.2357 4.85758V3.93672C17.2356 2.41219 18.4759 1.17188 20.0004 1.17188ZM17.2356 7.06688V6.13859C18.3533 5.75203 19.1569 4.80984 19.5721 4.21711L22.7652 5.38672V7.06688C22.7652 7.85969 21.638 8.97422 21.2128 9.145C20.4877 9.43633 19.5132 9.43633 18.7879 9.145C18.3617 8.97375 17.2356 7.85938 17.2356 7.06688ZM15.4585 13.4977L15.8903 12.0337L16.107 12.0293L17.6111 15.9166L15.4585 13.4977ZM29.427 29.6088L26.936 31.9167C26.7382 32.1012 26.6246 32.362 26.6246 32.6321V38.8281H13.3762V32.632C13.3762 32.3618 13.2626 32.101 13.0635 31.9155L10.5739 29.6088V27.0841H29.427V29.6088ZM31.8822 25.9121H8.11862V24.0288H31.8822V25.9121ZM32.4425 18.6751C31.9946 19.1741 31.2714 19.2978 30.6835 18.976L27.5237 17.2442C27.2567 17.0966 26.9405 17.1012 26.6778 17.2563C26.4146 17.4115 26.2575 17.6866 26.2575 17.9921V22.8569H20.5864V20.3552C20.6742 20.2709 20.7449 20.1669 20.7913 20.0472L21.1828 19.0352L25.4278 14.2656C25.6919 13.9692 25.783 13.5645 25.671 13.182L25.34 12.0598L25.5723 12.0633C26.11 12.0747 26.6196 12.2533 27.0459 12.5795L30.8391 15.482C31.3226 15.8516 32.0212 15.7875 32.4299 15.3356L34.656 12.8694L36.3339 14.3374L32.4425 18.6751ZM38.301 12.1447L37.1165 13.465L35.4414 11.9993L36.6227 10.6905C37.0327 10.2368 37.7332 10.1737 38.1844 10.5498C38.6682 10.9536 38.7217 11.6758 38.301 12.1447Z" fill="currentColor"/>
</g>
<defs>
<clipPath id="clip0_744_12926">
<rect width="40" height="40" fill="white"/>
</clipPath>
</defs>
</svg>
