<svg width="40" height="40" viewBox="0 0 40 40" fill="none" xmlns="http://www.w3.org/2000/svg">
<path d="M24.0563 20.0001C30.0313 16.0438 27.2688 6.59383 20 6.56258C12.7312 6.53133 10 16.0438 15.9438 20.0001C13.308 20.8626 11.0121 22.5356 9.38353 24.7803C7.75498 27.0251 6.87704 29.7268 6.875 32.5001C6.875 32.7487 6.97377 32.9872 7.14959 33.163C7.3254 33.3388 7.56386 33.4376 7.8125 33.4376C8.06114 33.4376 8.2996 33.3388 8.47541 33.163C8.65123 32.9872 8.75 32.7487 8.75 32.5001C8.75 29.5164 9.93526 26.6549 12.045 24.5451C14.1548 22.4353 17.0163 21.2501 20 21.2501C22.9837 21.2501 25.8452 22.4353 27.955 24.5451C30.0647 26.6549 31.25 29.5164 31.25 32.5001C31.25 32.7487 31.3488 32.9872 31.5246 33.163C31.7004 33.3388 31.9389 33.4376 32.1875 33.4376C32.4361 33.4376 32.6746 33.3388 32.8504 33.163C33.0262 32.9872 33.125 32.7487 33.125 32.5001C33.123 29.7268 32.245 27.0251 30.6165 24.7803C28.9879 22.5356 26.692 20.8626 24.0563 20.0001ZM14.5375 13.9001C14.5392 12.4518 15.1152 11.0634 16.1393 10.0393C17.1633 9.01527 18.5518 8.43923 20 8.43758C27.2375 8.72508 27.2375 19.0626 20 19.3563C18.5528 19.3547 17.1653 18.7795 16.1415 17.7568C15.1176 16.7341 14.5408 15.3472 14.5375 13.9001Z" fill="currentColor"/>
</svg>
