<svg width="350" height="330" viewBox="0 0 350 330" fill="none" xmlns="http://www.w3.org/2000/svg">
          <rect width="350" height="330" fill="white"/>
          <path d="M104.047 319.199C104.047 315.442 128.942 312.397 159.651 312.397C190.362 312.397 215.256 315.442 215.256 319.199C215.256 322.955 190.362 326 159.651 326C128.942 326 104.047 322.955 104.047 319.199Z" fill="#EEEEEE"/>
          <path class="primary-80" d="M70.5096 134.675C70.5096 133.674 70.6989 132.726 71.0785 131.831C71.4574 130.936 71.9809 130.163 72.6485 129.511C73.3158 128.858 74.0969 128.342 74.9916 127.963C75.8865 127.584 76.8653 127.394 77.9276 127.394C78.9586 127.394 79.9292 127.584 80.8397 127.963C81.7497 128.342 82.5383 128.858 83.2059 129.511C83.8724 130.163 84.396 130.936 84.7757 131.831C85.1546 132.726 85.3446 133.674 85.3446 134.675C85.3446 135.707 85.1546 136.662 84.7757 137.542C84.396 138.423 83.8724 139.188 83.2059 139.84C82.5383 140.492 81.7497 141.001 80.8397 141.364C79.9292 141.728 78.9586 141.911 77.9276 141.911C76.8653 141.911 75.8865 141.728 74.9916 141.364C74.0969 141.001 73.3158 140.492 72.6485 139.84C71.9809 139.188 71.4574 138.423 71.0785 137.542C70.6989 136.662 70.5096 135.707 70.5096 134.675ZM62 81.2512C63.0922 80.3109 64.2676 79.4312 65.5266 78.6115C66.7858 77.7926 68.1511 77.0798 69.6225 76.4727C71.094 75.8667 72.6863 75.3887 74.4 75.0393C76.1138 74.691 77.9569 74.5158 79.9292 74.5158C82.6597 74.5158 85.1315 74.8879 87.3472 75.6313C89.5614 76.3744 91.458 77.4358 93.0354 78.8163C94.6129 80.1966 95.8332 81.8582 96.6984 83.7991C97.5628 85.741 97.9956 87.91 97.9956 90.3065C97.9956 92.6124 97.6692 94.6075 97.0168 96.2908C96.3644 97.9745 95.5453 99.4381 94.5597 100.682C93.5733 101.926 92.4892 103.003 91.3059 103.913C90.1223 104.823 89.0001 105.673 87.9383 106.461C86.876 107.251 85.9584 108.032 85.1847 108.805C84.4114 109.579 83.9342 110.436 83.7523 111.376L82.6142 117.883H74.0135L73.1491 110.511C72.9364 109.056 73.1181 107.79 73.6946 106.712C74.2711 105.635 75.0448 104.649 76.016 103.753C76.9866 102.859 78.0708 101.994 79.2692 101.16C80.4678 100.326 81.5898 99.4313 82.6368 98.475C83.6831 97.5197 84.5626 96.4431 85.2758 95.2445C85.9887 94.0461 86.3453 92.6279 86.3453 90.9891C86.3453 88.9872 85.6552 87.3949 84.2747 86.2113C82.8944 85.0278 81.067 84.4362 78.792 84.4362C77.1229 84.4362 75.7195 84.6188 74.5824 84.9824C73.4445 85.3471 72.4666 85.7491 71.6474 86.1887C70.8278 86.6281 70.1301 87.0304 69.5541 87.3939C68.9776 87.7584 68.4314 87.9404 67.9164 87.9404C66.763 87.9404 65.8978 87.4403 65.322 86.4388L62 81.2512Z" fill="var(--primary-80)"/>
          <path class="primary-70" d="M175.634 80.486C178.316 80.486 180.598 81.424 182.48 83.3003C184.362 85.1759 185.304 87.4519 185.304 90.1262C185.304 92.8016 184.362 95.0868 182.48 96.9816C180.598 98.8769 178.316 99.8257 175.634 99.8257C172.95 99.8257 170.668 98.8769 168.786 96.9816C166.904 95.0868 165.964 92.8016 165.964 90.1262C165.964 87.4519 166.904 85.1759 168.786 83.3003C170.668 81.424 172.95 80.486 175.634 80.486ZM176.137 71.7228H173.821C173.74 67.2812 173.956 63.9607 174.466 61.7599C174.976 59.5596 176.303 56.5284 178.45 52.6664C180.595 48.8039 182.005 45.7032 182.68 43.3616C183.353 41.0212 183.692 38.1302 183.692 34.6882C183.692 29.3668 182.637 25.4463 180.53 22.9252C178.423 20.4037 175.931 19.1428 173.054 19.1428C170.866 19.1428 169.031 19.7236 167.552 20.8837C166.431 21.7637 165.872 22.6825 165.872 23.6428C165.872 24.2833 166.252 25.2826 167.012 26.6421C168.731 29.724 169.591 32.3446 169.591 34.5038C169.591 36.4649 168.921 38.105 167.583 39.4239C166.246 40.7444 164.581 41.4038 162.585 41.4038C160.35 41.4038 158.474 40.6153 156.957 39.0352C155.439 37.4549 154.682 35.3664 154.682 32.7663C154.682 28.0477 156.727 23.9102 160.816 20.3519C164.905 16.7932 170.617 15.0131 177.952 15.0131C185.729 15.0131 191.651 16.8641 195.72 20.5641C199.788 24.2659 201.823 28.7355 201.823 33.9766C201.823 37.7772 200.77 41.289 198.665 44.5089C196.56 47.7292 192.491 51.3002 186.46 55.2193C182.412 57.86 179.75 60.2113 178.474 62.2719C177.2 64.3316 176.421 67.4825 176.137 71.7228Z" fill="var(--primary-70)"/>
          <path class="primary-80" d="M263.022 125.243C267.997 125.243 271.681 128.826 271.681 133.802C271.681 138.878 267.997 142.462 263.022 142.462C258.145 142.462 254.462 138.878 254.462 133.802C254.462 128.826 258.145 125.243 263.022 125.243ZM264.514 70.0007C278.648 70.0007 289 78.3621 289 90.3057V90.8038C289 102.25 281.635 107.227 274.269 110.412L272.079 111.307C269.591 112.402 268.794 113.796 268.794 116.782V120.365H257.348V116.085C257.348 109.615 259.339 105.534 265.609 102.848L267.7 101.951C274.071 99.1641 277.454 96.6761 277.454 90.9029C277.454 84.6323 272.079 80.7507 264.514 80.7507C256.651 80.7507 250.58 84.6323 250.58 92.2965V95.0832H239.134V91.7988C239.134 78.1627 250.181 70.0007 264.514 70.0007Z" fill="var(--primary-80)"/>
          <path class="secondary-20" d="M100.219 21.3992C100.219 11.9905 107.846 4.36321 117.255 4.36321C126.663 4.36321 134.291 11.9905 134.291 21.3992C134.291 30.808 126.663 38.4352 117.255 38.4352C107.846 38.4352 100.219 30.808 100.219 21.3992Z" fill="var(--secondary-20)"/>
          <path d="M116.958 27.7933C118.378 27.7933 119.43 28.8166 119.43 30.2379C119.43 31.6872 118.378 32.7108 116.958 32.7108C115.565 32.7108 114.513 31.6872 114.513 30.2379C114.513 28.8166 115.565 27.7933 116.958 27.7933ZM117.384 11.0542C121.42 11.0542 124.376 13.4421 124.376 16.853V16.9952C124.376 20.2636 122.273 21.6851 120.169 22.5947L119.544 22.8505C118.833 23.1631 118.606 23.5612 118.606 24.4139V25.4371H115.337V24.2148C115.337 22.3671 115.906 21.2019 117.696 20.4345L118.293 20.1785C120.113 19.3825 121.079 18.672 121.079 17.0234C121.079 15.2326 119.544 14.1242 117.384 14.1242C115.138 14.1242 113.404 15.2326 113.404 17.4213V18.217H110.135V17.2793C110.135 13.3851 113.291 11.0542 117.384 11.0542Z" fill="white"/>
          <path class="secondary-30" d="M241.123 149.946L230.062 153.678C226.061 151.302 221.043 149.884 215.589 149.884C202.53 149.884 191.944 157.991 191.944 167.989C191.944 177.989 202.53 186.094 215.589 186.094C228.647 186.094 239.233 177.989 239.233 167.989C239.233 164.825 238.17 161.852 236.307 159.263L241.123 149.946Z" fill="var(--secondary-30)"/>
          <path d="M212.519 176.709C212.519 176.376 212.582 176.06 212.709 175.761C212.835 175.464 213.01 175.206 213.232 174.989C213.454 174.771 213.714 174.599 214.012 174.473C214.311 174.347 214.637 174.283 214.991 174.283C215.334 174.283 215.658 174.347 215.962 174.473C216.265 174.599 216.528 174.771 216.75 174.989C216.972 175.206 217.146 175.464 217.273 175.761C217.399 176.06 217.462 176.376 217.462 176.709C217.462 177.053 217.399 177.372 217.273 177.665C217.146 177.959 216.972 178.214 216.75 178.43C216.528 178.648 216.265 178.818 215.962 178.939C215.658 179.06 215.334 179.12 214.991 179.12C214.637 179.12 214.311 179.06 214.012 178.939C213.714 178.818 213.454 178.648 213.232 178.43C213.01 178.214 212.835 177.959 212.709 177.665C212.582 177.372 212.519 177.053 212.519 176.709ZM209.684 158.908C210.048 158.594 210.439 158.301 210.859 158.028C211.278 157.755 211.733 157.518 212.224 157.315C212.714 157.114 213.245 156.954 213.815 156.838C214.387 156.722 215.001 156.663 215.658 156.663C216.568 156.663 217.391 156.787 218.13 157.035C218.868 157.283 219.5 157.636 220.025 158.096C220.551 158.556 220.957 159.11 221.246 159.757C221.534 160.404 221.678 161.127 221.678 161.925C221.678 162.694 221.569 163.358 221.352 163.919C221.134 164.48 220.862 164.968 220.533 165.382C220.205 165.797 219.843 166.156 219.449 166.459C219.055 166.762 218.681 167.046 218.327 167.308C217.973 167.571 217.667 167.832 217.409 168.089C217.151 168.347 216.993 168.633 216.932 168.946L216.553 171.114H213.687L213.399 168.658C213.328 168.172 213.388 167.75 213.58 167.391C213.773 167.033 214.031 166.704 214.354 166.406C214.677 166.108 215.039 165.819 215.438 165.542C215.837 165.263 216.211 164.965 216.56 164.647C216.909 164.329 217.202 163.97 217.44 163.57C217.677 163.171 217.796 162.699 217.796 162.153C217.796 161.486 217.566 160.955 217.106 160.561C216.646 160.166 216.037 159.969 215.279 159.969C214.723 159.969 214.255 160.03 213.876 160.151C213.497 160.273 213.171 160.406 212.898 160.553C212.625 160.699 212.393 160.833 212.201 160.955C212.009 161.076 211.827 161.137 211.655 161.137C211.271 161.137 210.982 160.97 210.791 160.636L209.684 158.908Z" fill="white"/>
          <path d="M174.62 91.4205L174.62 88.706H177.787L177.786 91.4205H174.62Z" fill="#858585"/>
          <path d="M179.239 111.61V91.4156L176.204 91.4157V114.645C177.88 114.645 179.239 113.286 179.239 111.61Z" fill="#424242"/>
          <path d="M173.17 91.4156L173.169 111.61C173.169 113.286 174.528 114.645 176.204 114.645V91.4157L173.17 91.4156Z" fill="#424242"/>
          <path d="M176.3 87.6027C166.938 87.6556 159.307 80.1099 159.253 70.7481C159.2 61.3869 166.746 53.7546 176.108 53.7009C185.469 53.6479 193.101 61.1941 193.155 70.5552C193.208 79.9171 185.662 87.5491 176.3 87.6027ZM189.37 57.4867C182.098 50.2156 170.309 50.2156 163.038 57.4865C155.768 64.7576 155.768 76.5461 163.038 83.8172C170.309 91.0882 182.098 91.0882 189.369 83.8172C196.64 76.5463 196.64 64.7576 189.37 57.4867Z" fill="#424242"/>
          <path d="M186.897 57.4932C189.324 60.4073 190.794 64.1495 190.817 68.2385C190.87 77.5998 183.324 85.2322 173.962 85.2854C169.873 85.3088 166.115 83.8818 163.173 81.4878C166.304 85.246 171.028 87.6268 176.3 87.5974C185.662 87.5437 193.208 79.9116 193.155 70.5498C193.124 65.2774 190.69 60.5806 186.897 57.4932Z" fill="#EEEEEE"/>
          <path d="M171.494 310.924C170.806 306.794 159.704 265.684 161.235 249.134H174.767C175.966 277.233 175.713 288.801 176.246 310.797C176.209 312.327 172.16 313.196 171.494 310.924Z" fill="#F7D3C9"/>
          <path class="primary-10" d="M174.086 317.568C173.373 317.568 172.488 318.358 172.375 319.195H171.077C171.077 319.195 169.803 317.042 170.475 314.275C170.898 312.53 171.346 312.949 171.799 313.402C172.832 314.241 177.046 314.518 177.377 313.102C178.464 313.266 189.661 316.487 189.661 317.522C189.661 319.2 188.346 319.195 187.449 319.195C176.857 319.195 178.261 318.544 174.086 317.568Z" fill="var(--primary-10)"/>
          <path d="M176.231 311.324C175.868 309.728 171.252 308.531 171.492 311.324C171.546 311.966 171.468 312.588 171.249 313.103H171.252C172.18 314.432 181.928 316.924 183.519 314.855C182.408 314.26 176.231 313.016 176.231 311.324Z" fill="#F7D3C9"/>
          <path d="M138.346 310.924C138.12 306.743 134.749 265.413 138.102 249.134L151.467 250.213C148.505 278.247 146.124 290.061 143.083 311.323C142.878 312.84 138.757 313.256 138.346 310.924Z" fill="#F7D3C9"/>
          <path class="primary-10" d="M140.939 317.568C140.226 317.568 139.341 318.358 139.228 319.195H137.93C137.93 319.195 136.656 317.042 137.328 314.275C137.751 312.53 138.199 312.949 138.652 313.402C139.685 314.241 143.899 314.518 144.23 313.102C145.317 313.266 156.514 316.487 156.514 317.522C156.514 319.2 155.199 319.195 154.302 319.195C143.71 319.195 145.114 318.544 140.939 317.568Z" fill="var(--primary-10)"/>
          <path d="M143.083 311.324C142.72 309.728 138.104 308.531 138.344 311.324C138.399 311.966 138.32 312.588 138.102 313.103H138.104C139.032 314.432 148.781 316.924 150.371 314.855C149.261 314.26 143.083 313.016 143.083 311.324Z" fill="#F7D3C9"/>
          <path d="M134.869 138.663C132.962 144.699 125.384 178.886 126.371 180.93C129.816 187.966 143.082 204.306 143.082 204.306C143.082 204.306 145.121 213.168 148.899 214.277C152.677 215.385 153.43 214.195 153.807 213.668C154.702 212.412 149.29 206.521 150.522 205.352C151.582 204.78 152.542 204.298 152.957 204.09C150.316 203.488 150.484 201.883 148.586 200.995C145.383 199.496 135.868 183.698 134.793 180.303C136.178 172.515 141.835 157.602 144.249 151.615C146.662 145.629 134.869 138.663 134.869 138.663Z" fill="#F7D3C9"/>
          <path d="M167.421 129.346C174.246 127.002 187.59 123.278 188.11 121.688C188.614 120.146 178.165 110.23 175.388 108.271C173.238 106.755 178.588 102.388 180.115 103.721C184.732 107.753 199.041 118.529 198.425 121.737C196.804 130.178 174.45 139.334 170.793 141.851C167.437 144.16 167.393 143.066 165.331 139.235C163.269 135.403 164.212 130.447 167.421 129.346Z" fill="#F7D3C9"/>
          <path class="primary-30" d="M167.114 182.364C167.038 175.759 174.826 131.575 167.421 129.346C159.966 127.101 140.98 126.582 136.385 134.73C131.79 142.88 136.425 150.64 137.502 157.873C138.58 165.105 142.258 175.398 141.718 182.863C144.786 182.827 167.114 182.364 167.114 182.364Z" fill="var(--primary-30)"/>
          <path class="primary-30" d="M167.115 182.365C170.878 188.879 192.601 211.741 192.127 255.271C166.977 264.357 143.194 264.347 122.29 250.043C121.683 235.753 125.479 201.918 141.718 182.863C147.955 182.751 167.115 182.365 167.115 182.365Z" fill="var(--primary-30)"/>
          <path class="primary-40" d="M174.854 260.055C180.526 258.991 186.289 257.379 192.127 255.27C192.601 211.74 170.878 188.878 167.115 182.364C167.063 177.894 170.612 156.219 170.618 141.979C167.606 167.088 161.122 175.018 161.237 182.613C161.394 192.999 178.921 211.985 179.05 239.635C179.095 249.124 176.412 258.115 174.854 260.055Z" fill="var(--primary-40)"/>
          <path d="M151.323 99.4699C144.364 99.5498 135.79 107.461 138.662 122.628C141.533 137.795 136.133 152.009 126.446 152.371C132.716 162.843 139.613 169.358 150.306 165.217C156.743 162.723 162.713 154.442 164.273 141.797C165.489 131.945 165.703 125.164 165.065 114.372C164.361 102.447 157.289 99.4021 151.323 99.4699Z" fill="#424242"/>
          <path d="M175.388 108.268C173.58 107.457 171.931 105.517 172.165 102.319C172.375 99.4408 171.569 97.5869 173.17 97.9846C175.115 98.4676 178.737 96.871 179.24 96.369C181.415 96.369 180.976 101.923 180.115 103.718C179.39 105.231 175.388 108.268 175.388 108.268Z" fill="#F7D3C9"/>
        </svg>